Graphik-Medium.ufo
<glyph name="exclam" format="2">
  <advance width="305"/>
  <unicode hex="0021"/>
  <outline>
    <contour>
      <point x="152" y="-7" type="curve" smooth="yes"/>
      <point x="108" y="-7"/>
      <point x="72" y="27"/>
      <point x="72" y="70" type="curve" smooth="yes"/>
      <point x="72" y="114"/>
      <point x="108" y="148"/>
      <point x="152" y="148" type="curve" smooth="yes"/>
      <point x="197" y="148"/>
      <point x="233" y="114"/>
      <point x="233" y="70" type="curve" smooth="yes"/>
      <point x="233" y="27"/>
      <point x="197" y="-7"/>
    </contour>
    <contour>
      <point x="104" y="215" type="line"/>
      <point x="86" y="715" type="line"/>
      <point x="221" y="715" type="line"/>
      <point x="202" y="215" type="line"/>
    </contour>
  </outline>
</glyph>
<glyph name="quotedbl" format="2">
  <advance width="409"/>
  <unicode hex="0022"/>
  <outline>
    <contour>
      <point x="70" y="458" type="line"/>
      <point x="53" y="715" type="line"/>
      <point x="174" y="715" type="line"/>
      <point x="157" y="458" type="line"/>
    </contour>
    <contour>
      <point x="253" y="458" type="line"/>
      <point x="235" y="715" type="line"/>
      <point x="356" y="715" type="line"/>
      <point x="339" y="458" type="line"/>
    </contour>
  </outline>
</glyph>
<glyph name="numbersign" format="2">
  <advance width="532"/>
  <unicode hex="0023"/>
  <outline>
    <contour>
      <point x="259" y="99" type="line"/>
      <point x="283" y="266" type="line"/>
      <point x="200" y="266" type="line"/>
      <point x="176" y="99" type="line"/>
      <point x="87" y="99" type="line"/>
      <point x="111" y="266" type="line"/>
      <point x="34" y="266" type="line"/>
      <point x="34" y="364" type="line"/>
      <point x="126" y="364" type="line"/>
      <point x="142" y="474" type="line"/>
      <point x="60" y="474" type="line"/>
      <point x="60" y="569" type="line"/>
      <point x="156" y="569" type="line"/>
      <point x="178" y="715" type="line"/>
      <point x="266" y="715" type="line"/>
      <point x="245" y="569" type="line"/>
      <point x="328" y="569" type="line"/>
      <point x="350" y="715" type="line"/>
      <point x="439" y="715" type="line"/>
      <point x="417" y="569" type="line"/>
      <point x="498" y="569" type="line"/>
      <point x="498" y="474" type="line"/>
      <point x="403" y="474" type="line"/>
      <point x="387" y="364" type="line"/>
      <point x="472" y="364" type="line"/>
      <point x="472" y="266" type="line"/>
      <point x="372" y="266" type="line"/>
      <point x="348" y="99" type="line"/>
    </contour>
    <contour>
      <point x="231" y="474" type="line"/>
      <point x="215" y="364" type="line"/>
      <point x="298" y="364" type="line"/>
      <point x="314" y="474" type="line"/>
    </contour>
  </outline>
</glyph>
<glyph name="dollar" format="2">
  <advance width="635"/>
  <unicode hex="0024"/>
  <outline>
    <contour>
      <point x="286" y="-135" type="line"/>
      <point x="286" y="-9" type="line"/>
      <point x="115" y="3"/>
      <point x="47" y="100"/>
      <point x="37" y="221" type="curve"/>
      <point x="161" y="221" type="line"/>
      <point x="169" y="156"/>
      <point x="191" y="101"/>
      <point x="286" y="89" type="curve"/>
      <point x="286" y="314" type="line"/>
      <point x="138" y="339"/>
      <point x="61" y="393"/>
      <point x="61" y="520" type="curve" smooth="yes"/>
      <point x="61" y="631"/>
      <point x="150" y="714"/>
      <point x="286" y="723" type="curve"/>
      <point x="286" y="813" type="line"/>
      <point x="353" y="813" type="line"/>
      <point x="353" y="722" type="line"/>
      <point x="482" y="710"/>
      <point x="562" y="643"/>
      <point x="574" y="519" type="curve"/>
      <point x="456" y="519" type="line"/>
      <point x="445" y="580"/>
      <point x="414" y="615"/>
      <point x="353" y="625" type="curve"/>
      <point x="353" y="420" type="line"/>
      <point x="501" y="396"/>
      <point x="587" y="346"/>
      <point x="587" y="211" type="curve" smooth="yes"/>
      <point x="587" y="94"/>
      <point x="500" y="1"/>
      <point x="353" y="-9" type="curve"/>
      <point x="353" y="-135" type="line"/>
    </contour>
    <contour>
      <point x="464" y="199" type="curve" smooth="yes"/>
      <point x="464" y="256"/>
      <point x="440" y="284"/>
      <point x="353" y="303" type="curve"/>
      <point x="353" y="89" type="line"/>
      <point x="420" y="98"/>
      <point x="464" y="140"/>
    </contour>
    <contour>
      <point x="179" y="531" type="curve" smooth="yes"/>
      <point x="179" y="479"/>
      <point x="198" y="449"/>
      <point x="286" y="431" type="curve"/>
      <point x="286" y="628" type="line"/>
      <point x="217" y="620"/>
      <point x="179" y="581"/>
    </contour>
  </outline>
</glyph>
<glyph name="percent" format="2">
  <advance width="801"/>
  <unicode hex="0025"/>
  <outline>
    <contour>
      <point x="205" y="456" type="curve" smooth="yes"/>
      <point x="252" y="456"/>
      <point x="281" y="490"/>
      <point x="281" y="549" type="curve" smooth="yes"/>
      <point x="281" y="607"/>
      <point x="252" y="642"/>
      <point x="205" y="642" type="curve" smooth="yes"/>
      <point x="158" y="642"/>
      <point x="128" y="609"/>
      <point x="128" y="549" type="curve" smooth="yes"/>
      <point x="128" y="488"/>
      <point x="158" y="456"/>
    </contour>
    <contour>
      <point x="204" y="375" type="curve" smooth="yes"/>
      <point x="106" y="375"/>
      <point x="30" y="449"/>
      <point x="30" y="548" type="curve" smooth="yes"/>
      <point x="30" y="648"/>
      <point x="109" y="722"/>
      <point x="205" y="722" type="curve" smooth="yes"/>
      <point x="301" y="722"/>
      <point x="378" y="650"/>
      <point x="378" y="550" type="curve" smooth="yes"/>
      <point x="378" y="449"/>
      <point x="302" y="375"/>
    </contour>
    <contour>
      <point x="128" y="0" type="line"/>
      <point x="589" y="715" type="line"/>
      <point x="673" y="715" type="line"/>
      <point x="213" y="0" type="line"/>
    </contour>
    <contour>
      <point x="597" y="71" type="curve" smooth="yes"/>
      <point x="644" y="71"/>
      <point x="673" y="105"/>
      <point x="673" y="164" type="curve" smooth="yes"/>
      <point x="673" y="222"/>
      <point x="644" y="257"/>
      <point x="597" y="257" type="curve" smooth="yes"/>
      <point x="550" y="257"/>
      <point x="520" y="224"/>
      <point x="520" y="164" type="curve" smooth="yes"/>
      <point x="520" y="103"/>
      <point x="550" y="71"/>
    </contour>
    <contour>
      <point x="596" y="-10" type="curve" smooth="yes"/>
      <point x="498" y="-10"/>
      <point x="423" y="64"/>
      <point x="423" y="163" type="curve" smooth="yes"/>
      <point x="423" y="263"/>
      <point x="501" y="337"/>
      <point x="597" y="337" type="curve" smooth="yes"/>
      <point x="693" y="337"/>
      <point x="771" y="265"/>
      <point x="771" y="165" type="curve" smooth="yes"/>
      <point x="771" y="64"/>
      <point x="694" y="-10"/>
    </contour>
  </outline>
</glyph>
<glyph name="ampersand" format="2">
  <advance width="716"/>
  <unicode hex="0026"/>
  <outline>
    <contour>
      <point x="685" y="370" type="line"/>
      <point x="568" y="146" type="line"/>
      <point x="688" y="0" type="line"/>
      <point x="535" y="0" type="line"/>
      <point x="475" y="73" type="line"/>
      <point x="430" y="27"/>
      <point x="371" y="-9"/>
      <point x="279" y="-9" type="curve" smooth="yes"/>
      <point x="140" y="-9"/>
      <point x="44" y="70"/>
      <point x="44" y="195" type="curve" smooth="yes"/>
      <point x="44" y="300"/>
      <point x="109" y="361"/>
      <point x="205" y="407" type="curve"/>
      <point x="167" y="457"/>
      <point x="149" y="505"/>
      <point x="149" y="548" type="curve" smooth="yes"/>
      <point x="149" y="661"/>
      <point x="242" y="721"/>
      <point x="346" y="721" type="curve" smooth="yes"/>
      <point x="444" y="721"/>
      <point x="526" y="662"/>
      <point x="526" y="566" type="curve" smooth="yes"/>
      <point x="526" y="483"/>
      <point x="470" y="424"/>
      <point x="377" y="384" type="curve"/>
      <point x="503" y="230" type="line"/>
      <point x="576" y="370" type="line"/>
    </contour>
    <contour>
      <point x="293" y="91" type="curve" smooth="yes"/>
      <point x="339" y="91"/>
      <point x="380" y="111"/>
      <point x="413" y="150" type="curve"/>
      <point x="261" y="335" type="line"/>
      <point x="208" y="308"/>
      <point x="170" y="275"/>
      <point x="170" y="208" type="curve" smooth="yes"/>
      <point x="170" y="136"/>
      <point x="215" y="91"/>
    </contour>
    <contour>
      <point x="267" y="547" type="curve" smooth="yes"/>
      <point x="267" y="514"/>
      <point x="287" y="483"/>
      <point x="321" y="442" type="curve"/>
      <point x="388" y="473"/>
      <point x="416" y="505"/>
      <point x="416" y="561" type="curve" smooth="yes"/>
      <point x="416" y="602"/>
      <point x="388" y="632"/>
      <point x="346" y="632" type="curve" smooth="yes"/>
      <point x="302" y="632"/>
      <point x="267" y="604"/>
    </contour>
  </outline>
</glyph>
<glyph name="quotesingle" format="2">
  <advance width="229"/>
  <unicode hex="0027"/>
  <outline>
    <contour>
      <point x="70" y="458" type="line"/>
      <point x="53" y="715" type="line"/>
      <point x="176" y="715" type="line"/>
      <point x="159" y="458" type="line"/>
    </contour>
  </outline>
</glyph>
<glyph name="parenleft" format="2">
  <advance width="335"/>
  <unicode hex="0028"/>
  <outline>
    <contour>
      <point x="213" y="-148" type="line"/>
      <point x="127" y="-46"/>
      <point x="47" y="104"/>
      <point x="47" y="313" type="curve" smooth="yes"/>
      <point x="47" y="521"/>
      <point x="127" y="672"/>
      <point x="213" y="774" type="curve"/>
      <point x="319" y="774" type="line"/>
      <point x="238" y="666"/>
      <point x="167" y="520"/>
      <point x="167" y="313" type="curve" smooth="yes"/>
      <point x="167" y="105"/>
      <point x="238" y="-40"/>
      <point x="319" y="-148" type="curve"/>
    </contour>
  </outline>
</glyph>
<glyph name="parenright" format="2">
  <advance width="335"/>
  <unicode hex="0029"/>
  <outline>
    <contour>
      <point x="17" y="-146" type="line"/>
      <point x="97" y="-38"/>
      <point x="168" y="108"/>
      <point x="168" y="315" type="curve" smooth="yes"/>
      <point x="168" y="523"/>
      <point x="97" y="668"/>
      <point x="17" y="776" type="curve"/>
      <point x="122" y="776" type="line"/>
      <point x="208" y="674"/>
      <point x="288" y="524"/>
      <point x="288" y="315" type="curve" smooth="yes"/>
      <point x="288" y="107"/>
      <point x="208" y="-44"/>
      <point x="122" y="-146" type="curve"/>
    </contour>
  </outline>
</glyph>
<glyph name="asterisk" format="2">
  <advance width="429"/>
  <unicode hex="002A"/>
  <outline>
    <contour>
      <point x="149" y="394" type="line"/>
      <point x="72" y="449" type="line"/>
      <point x="157" y="551" type="line"/>
      <point x="37" y="574" type="line"/>
      <point x="64" y="663" type="line"/>
      <point x="178" y="613" type="line"/>
      <point x="165" y="743" type="line"/>
      <point x="265" y="743" type="line"/>
      <point x="252" y="613" type="line"/>
      <point x="366" y="663" type="line"/>
      <point x="392" y="574" type="line"/>
      <point x="271" y="551" type="line"/>
      <point x="356" y="449" type="line"/>
      <point x="280" y="394" type="line"/>
      <point x="213" y="512" type="line"/>
    </contour>
  </outline>
</glyph>
<glyph name="comma" format="2">
  <advance width="292"/>
  <unicode hex="002C"/>
  <outline>
    <contour>
      <point x="103" y="-123" type="line"/>
      <point x="28" y="-90" type="line"/>
      <point x="119" y="147" type="line"/>
      <point x="234" y="101" type="line"/>
    </contour>
  </outline>
</glyph>
<glyph name="period" format="2">
  <advance width="289"/>
  <unicode hex="002E"/>
  <outline>
    <contour>
      <point x="144" y="-7" type="curve" smooth="yes"/>
      <point x="100" y="-7"/>
      <point x="65" y="27"/>
      <point x="65" y="71" type="curve" smooth="yes"/>
      <point x="65" y="115"/>
      <point x="100" y="150"/>
      <point x="144" y="150" type="curve" smooth="yes"/>
      <point x="189" y="150"/>
      <point x="224" y="115"/>
      <point x="224" y="71" type="curve" smooth="yes"/>
      <point x="224" y="27"/>
      <point x="189" y="-7"/>
    </contour>
  </outline>
</glyph>
<glyph name="slash" format="2">
  <advance width="415"/>
  <unicode hex="002F"/>
  <outline>
    <contour>
      <point x="-6" y="-148" type="line"/>
      <point x="295" y="776" type="line"/>
      <point x="398" y="776" type="line"/>
      <point x="96" y="-148" type="line"/>
    </contour>
  </outline>
</glyph>
<glyph name="zero" format="2">
  <advance width="701"/>
  <unicode hex="0030"/>
  <outline>
    <contour>
      <point x="354" y="96" type="curve" smooth="yes"/>
      <point x="464" y="96"/>
      <point x="517" y="180"/>
      <point x="517" y="342" type="curve" smooth="yes"/>
      <point x="517" y="377" type="line" smooth="yes"/>
      <point x="517" y="529"/>
      <point x="459" y="621"/>
      <point x="352" y="621" type="curve" smooth="yes"/>
      <point x="244" y="621"/>
      <point x="185" y="535"/>
      <point x="185" y="376" type="curve" smooth="yes"/>
      <point x="185" y="340" type="line" smooth="yes"/>
      <point x="185" y="178"/>
      <point x="247" y="96"/>
    </contour>
    <contour>
      <point x="351" y="-10" type="curve" smooth="yes"/>
      <point x="169" y="-10"/>
      <point x="51" y="124"/>
      <point x="51" y="339" type="curve" smooth="yes"/>
      <point x="51" y="375" type="line" smooth="yes"/>
      <point x="51" y="592"/>
      <point x="171" y="725"/>
      <point x="351" y="725" type="curve" smooth="yes"/>
      <point x="532" y="725"/>
      <point x="650" y="593"/>
      <point x="650" y="378" type="curve" smooth="yes"/>
      <point x="650" y="342" type="line" smooth="yes"/>
      <point x="650" y="127"/>
      <point x="538" y="-10"/>
    </contour>
  </outline>
</glyph>
<glyph name="one" format="2">
  <advance width="419"/>
  <unicode hex="0031"/>
  <outline>
    <contour>
      <point x="183" y="0" type="line"/>
      <point x="183" y="583" type="line"/>
      <point x="32" y="480" type="line"/>
      <point x="32" y="597" type="line"/>
      <point x="198" y="715" type="line"/>
      <point x="317" y="715" type="line"/>
      <point x="317" y="0" type="line"/>
    </contour>
  </outline>
</glyph>
<glyph name="two" format="2">
  <advance width="578"/>
  <unicode hex="0032"/>
  <outline>
    <contour>
      <point x="15" y="0" type="line"/>
      <point x="15" y="24" type="line"/>
      <point x="285" y="309" type="line" smooth="yes"/>
      <point x="353" y="381"/>
      <point x="394" y="444"/>
      <point x="394" y="512" type="curve" smooth="yes"/>
      <point x="394" y="579"/>
      <point x="356" y="621"/>
      <point x="287" y="621" type="curve" smooth="yes"/>
      <point x="216" y="621"/>
      <point x="171" y="580"/>
      <point x="159" y="479" type="curve"/>
      <point x="37" y="479" type="line"/>
      <point x="46" y="635"/>
      <point x="140" y="725"/>
      <point x="291" y="725" type="curve" smooth="yes"/>
      <point x="439" y="725"/>
      <point x="527" y="640"/>
      <point x="527" y="514" type="curve" smooth="yes"/>
      <point x="527" y="421"/>
      <point x="472" y="340"/>
      <point x="387" y="258" type="curve" smooth="yes"/>
      <point x="228" y="103" type="line"/>
      <point x="532" y="103" type="line"/>
      <point x="532" y="0" type="line"/>
    </contour>
  </outline>
</glyph>
<glyph name="three" format="2">
  <advance width="623"/>
  <unicode hex="0033"/>
  <outline>
    <contour>
      <point x="304" y="-10" type="curve" smooth="yes"/>
      <point x="134" y="-10"/>
      <point x="41" y="84"/>
      <point x="35" y="221" type="curve"/>
      <point x="156" y="221" type="line"/>
      <point x="163" y="146"/>
      <point x="205" y="90"/>
      <point x="301" y="90" type="curve" smooth="yes"/>
      <point x="394" y="90"/>
      <point x="437" y="135"/>
      <point x="437" y="206" type="curve" smooth="yes"/>
      <point x="437" y="284"/>
      <point x="395" y="323"/>
      <point x="308" y="323" type="curve" smooth="yes"/>
      <point x="253" y="323" type="line"/>
      <point x="253" y="418" type="line"/>
      <point x="304" y="418" type="line" smooth="yes"/>
      <point x="386" y="418"/>
      <point x="423" y="456"/>
      <point x="423" y="523" type="curve" smooth="yes"/>
      <point x="423" y="581"/>
      <point x="386" y="624"/>
      <point x="312" y="624" type="curve" smooth="yes"/>
      <point x="236" y="624"/>
      <point x="187" y="578"/>
      <point x="179" y="506" type="curve"/>
      <point x="61" y="506" type="line"/>
      <point x="68" y="630"/>
      <point x="161" y="725"/>
      <point x="314" y="725" type="curve" smooth="yes"/>
      <point x="463" y="725"/>
      <point x="550" y="639"/>
      <point x="550" y="533" type="curve" smooth="yes"/>
      <point x="550" y="452"/>
      <point x="503" y="403"/>
      <point x="434" y="377" type="curve"/>
      <point x="517" y="358"/>
      <point x="572" y="299"/>
      <point x="572" y="204" type="curve" smooth="yes"/>
      <point x="572" y="72"/>
      <point x="468" y="-10"/>
    </contour>
  </outline>
</glyph>
<glyph name="four" format="2">
  <advance width="641"/>
  <unicode hex="0034"/>
  <outline>
    <contour>
      <point x="385" y="0" type="line"/>
      <point x="385" y="145" type="line"/>
      <point x="31" y="145" type="line"/>
      <point x="31" y="192" type="line"/>
      <point x="347" y="715" type="line"/>
      <point x="514" y="715" type="line"/>
      <point x="514" y="244" type="line"/>
      <point x="610" y="244" type="line"/>
      <point x="610" y="145" type="line"/>
      <point x="514" y="145" type="line"/>
      <point x="514" y="0" type="line"/>
    </contour>
    <contour>
      <point x="173" y="244" type="line"/>
      <point x="387" y="244" type="line"/>
      <point x="387" y="614" type="line"/>
    </contour>
  </outline>
</glyph>
<glyph name="five" format="2">
  <advance width="604"/>
  <unicode hex="0035"/>
  <outline>
    <contour>
      <point x="291" y="-10" type="curve" smooth="yes"/>
      <point x="123" y="-10"/>
      <point x="44" y="82"/>
      <point x="36" y="205" type="curve"/>
      <point x="160" y="205" type="line"/>
      <point x="171" y="139"/>
      <point x="198" y="93"/>
      <point x="290" y="93" type="curve" smooth="yes"/>
      <point x="372" y="93"/>
      <point x="419" y="150"/>
      <point x="419" y="238" type="curve" smooth="yes"/>
      <point x="419" y="324"/>
      <point x="369" y="379"/>
      <point x="290" y="379" type="curve" smooth="yes"/>
      <point x="217" y="379"/>
      <point x="173" y="354"/>
      <point x="141" y="317" type="curve"/>
      <point x="73" y="317" type="line"/>
      <point x="79" y="715" type="line"/>
      <point x="513" y="715" type="line"/>
      <point x="513" y="610" type="line"/>
      <point x="181" y="610" type="line"/>
      <point x="180" y="416" type="line"/>
      <point x="208" y="448"/>
      <point x="258" y="476"/>
      <point x="334" y="476" type="curve" smooth="yes"/>
      <point x="463" y="476"/>
      <point x="554" y="386"/>
      <point x="554" y="236" type="curve" smooth="yes"/>
      <point x="554" y="85"/>
      <point x="445" y="-10"/>
    </contour>
  </outline>
</glyph>
<glyph name="six" format="2">
  <advance width="641"/>
  <unicode hex="0036"/>
  <outline>
    <contour>
      <point x="331" y="-10" type="curve" smooth="yes"/>
      <point x="123" y="-10"/>
      <point x="51" y="136"/>
      <point x="51" y="325" type="curve" smooth="yes"/>
      <point x="51" y="342" type="line" smooth="yes"/>
      <point x="51" y="590"/>
      <point x="176" y="725"/>
      <point x="347" y="725" type="curve" smooth="yes"/>
      <point x="477" y="725"/>
      <point x="563" y="661"/>
      <point x="580" y="536" type="curve"/>
      <point x="456" y="536" type="line"/>
      <point x="443" y="590"/>
      <point x="415" y="622"/>
      <point x="346" y="622" type="curve" smooth="yes"/>
      <point x="250" y="622"/>
      <point x="187" y="537"/>
      <point x="183" y="374" type="curve"/>
      <point x="216" y="429"/>
      <point x="275" y="466"/>
      <point x="360" y="466" type="curve" smooth="yes"/>
      <point x="497" y="466"/>
      <point x="595" y="372"/>
      <point x="595" y="233" type="curve" smooth="yes"/>
      <point x="595" y="88"/>
      <point x="493" y="-10"/>
    </contour>
    <contour>
      <point x="329" y="88" type="curve" smooth="yes"/>
      <point x="409" y="88"/>
      <point x="463" y="145"/>
      <point x="463" y="230" type="curve" smooth="yes"/>
      <point x="463" y="316"/>
      <point x="411" y="374"/>
      <point x="329" y="374" type="curve" smooth="yes"/>
      <point x="248" y="374"/>
      <point x="191" y="317"/>
      <point x="191" y="238" type="curve" smooth="yes"/>
      <point x="191" y="143"/>
      <point x="248" y="88"/>
    </contour>
  </outline>
</glyph>
<glyph name="seven" format="2">
  <advance width="545"/>
  <unicode hex="0037"/>
  <outline>
    <contour>
      <point x="132" y="0" type="line"/>
      <point x="362" y="607" type="line"/>
      <point x="29" y="607" type="line"/>
      <point x="29" y="715" type="line"/>
      <point x="529" y="715" type="line"/>
      <point x="529" y="699" type="line"/>
      <point x="269" y="0" type="line"/>
    </contour>
  </outline>
</glyph>
<glyph name="eight" format="2">
  <advance width="627"/>
  <unicode hex="0038"/>
  <outline>
    <contour>
      <point x="314" y="-10" type="curve" smooth="yes"/>
      <point x="172" y="-10"/>
      <point x="46" y="62"/>
      <point x="46" y="202" type="curve" smooth="yes"/>
      <point x="46" y="293"/>
      <point x="100" y="356"/>
      <point x="180" y="384" type="curve"/>
      <point x="114" y="410"/>
      <point x="74" y="462"/>
      <point x="74" y="533" type="curve" smooth="yes"/>
      <point x="74" y="654"/>
      <point x="190" y="725"/>
      <point x="314" y="725" type="curve" smooth="yes"/>
      <point x="442" y="725"/>
      <point x="553" y="653"/>
      <point x="553" y="535" type="curve" smooth="yes"/>
      <point x="553" y="462"/>
      <point x="511" y="413"/>
      <point x="447" y="385" type="curve"/>
      <point x="531" y="355"/>
      <point x="580" y="293"/>
      <point x="580" y="206" type="curve" smooth="yes"/>
      <point x="580" y="65"/>
      <point x="458" y="-10"/>
    </contour>
    <contour>
      <point x="314" y="90" type="curve" smooth="yes"/>
      <point x="390" y="90"/>
      <point x="447" y="134"/>
      <point x="447" y="214" type="curve" smooth="yes"/>
      <point x="447" y="293"/>
      <point x="389" y="336"/>
      <point x="315" y="336" type="curve" smooth="yes"/>
      <point x="242" y="336"/>
      <point x="180" y="293"/>
      <point x="180" y="213" type="curve" smooth="yes"/>
      <point x="180" y="133"/>
      <point x="242" y="90"/>
    </contour>
    <contour>
      <point x="316" y="423" type="curve" smooth="yes"/>
      <point x="381" y="423"/>
      <point x="427" y="462"/>
      <point x="427" y="527" type="curve" smooth="yes"/>
      <point x="427" y="588"/>
      <point x="378" y="629"/>
      <point x="314" y="629" type="curve" smooth="yes"/>
      <point x="251" y="629"/>
      <point x="201" y="590"/>
      <point x="201" y="526" type="curve" smooth="yes"/>
      <point x="201" y="461"/>
      <point x="254" y="423"/>
    </contour>
  </outline>
</glyph>
<glyph name="nine" format="2">
  <advance width="642"/>
  <unicode hex="0039"/>
  <outline>
    <contour>
      <point x="302" y="-9" type="curve" smooth="yes"/>
      <point x="156" y="-9"/>
      <point x="69" y="63"/>
      <point x="52" y="186" type="curve"/>
      <point x="177" y="186" type="line"/>
      <point x="190" y="130"/>
      <point x="223" y="94"/>
      <point x="300" y="94" type="curve" smooth="yes"/>
      <point x="402" y="94"/>
      <point x="457" y="176"/>
      <point x="459" y="339" type="curve"/>
      <point x="426" y="285"/>
      <point x="368" y="249"/>
      <point x="283" y="249" type="curve" smooth="yes"/>
      <point x="145" y="249"/>
      <point x="46" y="340"/>
      <point x="46" y="481" type="curve" smooth="yes"/>
      <point x="46" y="627"/>
      <point x="148" y="726"/>
      <point x="311" y="726" type="curve" smooth="yes"/>
      <point x="498" y="726"/>
      <point x="590" y="600"/>
      <point x="590" y="394" type="curve" smooth="yes"/>
      <point x="590" y="357" type="line" smooth="yes"/>
      <point x="590" y="122"/>
      <point x="486" y="-9"/>
    </contour>
    <contour>
      <point x="311" y="342" type="curve" smooth="yes"/>
      <point x="392" y="342"/>
      <point x="449" y="396"/>
      <point x="449" y="475" type="curve" smooth="yes"/>
      <point x="449" y="571"/>
      <point x="392" y="627"/>
      <point x="310" y="627" type="curve" smooth="yes"/>
      <point x="230" y="627"/>
      <point x="177" y="570"/>
      <point x="177" y="485" type="curve" smooth="yes"/>
      <point x="177" y="399"/>
      <point x="229" y="342"/>
    </contour>
  </outline>
</glyph>
<glyph name="colon" format="2">
  <advance width="297"/>
  <unicode hex="003A"/>
  <outline>
    <contour>
      <point x="148" y="-7" type="curve" smooth="yes"/>
      <point x="104" y="-7"/>
      <point x="69" y="27"/>
      <point x="69" y="71" type="curve" smooth="yes"/>
      <point x="69" y="115"/>
      <point x="104" y="150"/>
      <point x="148" y="150" type="curve" smooth="yes"/>
      <point x="193" y="150"/>
      <point x="228" y="115"/>
      <point x="228" y="71" type="curve" smooth="yes"/>
      <point x="228" y="27"/>
      <point x="193" y="-7"/>
    </contour>
    <contour>
      <point x="148" y="285" type="curve" smooth="yes"/>
      <point x="104" y="285"/>
      <point x="69" y="320"/>
      <point x="69" y="364" type="curve" smooth="yes"/>
      <point x="69" y="408"/>
      <point x="104" y="442"/>
      <point x="148" y="442" type="curve" smooth="yes"/>
      <point x="193" y="442"/>
      <point x="228" y="408"/>
      <point x="228" y="364" type="curve" smooth="yes"/>
      <point x="228" y="320"/>
      <point x="193" y="285"/>
    </contour>
  </outline>
</glyph>
<glyph name="semicolon" format="2">
  <advance width="303"/>
  <unicode hex="003B"/>
  <outline>
    <contour>
      <point x="91" y="-123" type="line"/>
      <point x="17" y="-90" type="line"/>
      <point x="108" y="147" type="line"/>
      <point x="222" y="101" type="line"/>
    </contour>
    <contour>
      <point x="163" y="285" type="curve" smooth="yes"/>
      <point x="118" y="285"/>
      <point x="83" y="320"/>
      <point x="83" y="364" type="curve" smooth="yes"/>
      <point x="83" y="408"/>
      <point x="118" y="442"/>
      <point x="163" y="442" type="curve" smooth="yes"/>
      <point x="207" y="442"/>
      <point x="243" y="408"/>
      <point x="243" y="364" type="curve" smooth="yes"/>
      <point x="243" y="320"/>
      <point x="207" y="285"/>
    </contour>
  </outline>
</glyph>
<glyph name="less" format="2">
  <advance width="507"/>
  <unicode hex="003C"/>
  <outline>
    <contour>
      <point x="447" y="81" type="line"/>
      <point x="49" y="309" type="line"/>
      <point x="49" y="335" type="line"/>
      <point x="447" y="563" type="line"/>
      <point x="447" y="451" type="line"/>
      <point x="213" y="323" type="line"/>
      <point x="447" y="192" type="line"/>
    </contour>
  </outline>
</glyph>
<glyph name="equal" format="2">
  <advance width="513"/>
  <unicode hex="003D"/>
  <outline>
    <contour>
      <point x="39" y="185" type="line"/>
      <point x="39" y="276" type="line"/>
      <point x="473" y="276" type="line"/>
      <point x="473" y="185" type="line"/>
    </contour>
    <contour>
      <point x="39" y="371" type="line"/>
      <point x="39" y="463" type="line"/>
      <point x="473" y="463" type="line"/>
      <point x="473" y="371" type="line"/>
    </contour>
  </outline>
</glyph>
<glyph name="greater" format="2">
  <advance width="507"/>
  <unicode hex="003E"/>
  <outline>
    <contour>
      <point x="60" y="81" type="line"/>
      <point x="60" y="194" type="line"/>
      <point x="294" y="322" type="line"/>
      <point x="60" y="453" type="line"/>
      <point x="60" y="564" type="line"/>
      <point x="459" y="335" type="line"/>
      <point x="459" y="310" type="line"/>
    </contour>
  </outline>
</glyph>
<glyph name="question" format="2">
  <advance width="516"/>
  <unicode hex="003F"/>
  <outline>
    <contour>
      <point x="175" y="215" type="line"/>
      <point x="175" y="253" type="line" smooth="yes"/>
      <point x="175" y="332"/>
      <point x="228" y="381"/>
      <point x="276" y="428" type="curve" smooth="yes"/>
      <point x="313" y="465"/>
      <point x="346" y="498"/>
      <point x="346" y="541" type="curve" smooth="yes"/>
      <point x="346" y="592"/>
      <point x="318" y="625"/>
      <point x="257" y="625" type="curve" smooth="yes"/>
      <point x="195" y="625"/>
      <point x="152" y="581"/>
      <point x="145" y="512" type="curve"/>
      <point x="29" y="512" type="line"/>
      <point x="36" y="643"/>
      <point x="129" y="725"/>
      <point x="263" y="725" type="curve" smooth="yes"/>
      <point x="406" y="725"/>
      <point x="473" y="647"/>
      <point x="473" y="550" type="curve" smooth="yes"/>
      <point x="473" y="479"/>
      <point x="430" y="433"/>
      <point x="385" y="389" type="curve" smooth="yes"/>
      <point x="338" y="344"/>
      <point x="290" y="303"/>
      <point x="287" y="247" type="curve" smooth="yes"/>
      <point x="287" y="215" type="line"/>
    </contour>
    <contour>
      <point x="230" y="-7" type="curve" smooth="yes"/>
      <point x="185" y="-7"/>
      <point x="148" y="27"/>
      <point x="148" y="70" type="curve" smooth="yes"/>
      <point x="148" y="114"/>
      <point x="185" y="148"/>
      <point x="230" y="148" type="curve" smooth="yes"/>
      <point x="274" y="148"/>
      <point x="310" y="114"/>
      <point x="310" y="70" type="curve" smooth="yes"/>
      <point x="310" y="27"/>
      <point x="274" y="-7"/>
    </contour>
  </outline>
</glyph>
<glyph name="at" format="2">
  <advance width="917"/>
  <unicode hex="0040"/>
  <outline>
    <contour>
      <point x="460" y="-151" type="curve" smooth="yes"/>
      <point x="191" y="-151"/>
      <point x="39" y="38"/>
      <point x="39" y="257" type="curve" smooth="yes"/>
      <point x="39" y="509"/>
      <point x="242" y="689"/>
      <point x="475" y="689" type="curve" smooth="yes"/>
      <point x="713" y="689"/>
      <point x="879" y="535"/>
      <point x="879" y="324" type="curve" smooth="yes"/>
      <point x="879" y="132"/>
      <point x="770" y="61"/>
      <point x="680" y="61" type="curve" smooth="yes"/>
      <point x="596" y="61"/>
      <point x="563" y="93"/>
      <point x="552" y="145" type="curve"/>
      <point x="524" y="93"/>
      <point x="472" y="56"/>
      <point x="409" y="56" type="curve" smooth="yes"/>
      <point x="311" y="56"/>
      <point x="247" y="124"/>
      <point x="247" y="235" type="curve" smooth="yes"/>
      <point x="247" y="372"/>
      <point x="335" y="468"/>
      <point x="444" y="468" type="curve" smooth="yes"/>
      <point x="512" y="468"/>
      <point x="546" y="437"/>
      <point x="561" y="403" type="curve"/>
      <point x="568" y="460" type="line"/>
      <point x="676" y="460" type="line"/>
      <point x="645" y="200" type="line" smooth="yes"/>
      <point x="638" y="151"/>
      <point x="654" y="126"/>
      <point x="691" y="126" type="curve" smooth="yes"/>
      <point x="747" y="126"/>
      <point x="803" y="183"/>
      <point x="803" y="323" type="curve" smooth="yes"/>
      <point x="803" y="501"/>
      <point x="680" y="622"/>
      <point x="475" y="622" type="curve" smooth="yes"/>
      <point x="272" y="622"/>
      <point x="119" y="475"/>
      <point x="119" y="257" type="curve" smooth="yes"/>
      <point x="119" y="72"/>
      <point x="234" y="-84"/>
      <point x="461" y="-84" type="curve" smooth="yes"/>
      <point x="573" y="-84"/>
      <point x="648" y="-51"/>
      <point x="705" y="0" type="curve"/>
      <point x="788" y="0" type="line"/>
      <point x="731" y="-90"/>
      <point x="607" y="-151"/>
    </contour>
    <contour>
      <point x="439" y="141" type="curve" smooth="yes"/>
      <point x="494" y="141"/>
      <point x="548" y="194"/>
      <point x="548" y="286" type="curve" smooth="yes"/>
      <point x="548" y="349"/>
      <point x="516" y="382"/>
      <point x="459" y="382" type="curve" smooth="yes"/>
      <point x="404" y="382"/>
      <point x="358" y="328"/>
      <point x="358" y="238" type="curve" smooth="yes"/>
      <point x="358" y="179"/>
      <point x="390" y="141"/>
    </contour>
  </outline>
</glyph>
<glyph name="B" format="2">
  <advance width="645"/>
  <unicode hex="0042"/>
  <outline>
    <contour>
      <point x="82" y="0" type="line"/>
      <point x="82" y="715" type="line"/>
      <point x="338" y="715" type="line" smooth="yes"/>
      <point x="485" y="715"/>
      <point x="572" y="659"/>
      <point x="572" y="529" type="curve" smooth="yes"/>
      <point x="572" y="525" type="line" smooth="yes"/>
      <point x="572" y="454"/>
      <point x="540" y="398"/>
      <point x="459" y="373" type="curve"/>
      <point x="556" y="352"/>
      <point x="602" y="299"/>
      <point x="602" y="204" type="curve" smooth="yes"/>
      <point x="602" y="200" type="line" smooth="yes"/>
      <point x="602" y="67"/>
      <point x="514" y="0"/>
      <point x="357" y="0" type="curve" smooth="yes"/>
    </contour>
    <contour>
      <point x="212" y="95" type="line"/>
      <point x="341" y="95" type="line" smooth="yes"/>
      <point x="430" y="95"/>
      <point x="471" y="135"/>
      <point x="471" y="209" type="curve" smooth="yes"/>
      <point x="471" y="213" type="line" smooth="yes"/>
      <point x="471" y="287"/>
      <point x="430" y="324"/>
      <point x="332" y="324" type="curve" smooth="yes"/>
      <point x="212" y="324" type="line"/>
    </contour>
    <contour>
      <point x="212" y="414" type="line"/>
      <point x="322" y="414" type="line" smooth="yes"/>
      <point x="410" y="414"/>
      <point x="444" y="446"/>
      <point x="444" y="519" type="curve" smooth="yes"/>
      <point x="444" y="523" type="line" smooth="yes"/>
      <point x="444" y="591"/>
      <point x="405" y="620"/>
      <point x="320" y="620" type="curve" smooth="yes"/>
      <point x="212" y="620" type="line"/>
    </contour>
  </outline>
</glyph>
<glyph name="C" format="2">
  <advance width="741"/>
  <unicode hex="0043"/>
  <outline>
    <contour>
      <point x="395" y="-10" type="curve" smooth="yes"/>
      <point x="171" y="-10"/>
      <point x="46" y="133"/>
      <point x="46" y="353" type="curve" smooth="yes"/>
      <point x="46" y="361" type="line" smooth="yes"/>
      <point x="46" y="576"/>
      <point x="194" y="726"/>
      <point x="393" y="726" type="curve" smooth="yes"/>
      <point x="557" y="726"/>
      <point x="684" y="644"/>
      <point x="700" y="476" type="curve"/>
      <point x="565" y="476" type="line"/>
      <point x="550" y="571"/>
      <point x="497" y="620"/>
      <point x="394" y="620" type="curve" smooth="yes"/>
      <point x="268" y="620"/>
      <point x="186" y="522"/>
      <point x="186" y="362" type="curve" smooth="yes"/>
      <point x="186" y="354" type="line" smooth="yes"/>
      <point x="186" y="193"/>
      <point x="263" y="98"/>
      <point x="395" y="98" type="curve" smooth="yes"/>
      <point x="494" y="98"/>
      <point x="564" y="148"/>
      <point x="578" y="249" type="curve"/>
      <point x="708" y="249" type="line"/>
      <point x="687" y="77"/>
      <point x="565" y="-10"/>
    </contour>
  </outline>
</glyph>
<glyph name="F" format="2">
  <advance width="559"/>
  <unicode hex="0046"/>
  <outline>
    <contour>
      <point x="82" y="0" type="line"/>
      <point x="82" y="715" type="line"/>
      <point x="525" y="715" type="line"/>
      <point x="525" y="609" type="line"/>
      <point x="215" y="609" type="line"/>
      <point x="215" y="396" type="line"/>
      <point x="459" y="396" type="line"/>
      <point x="459" y="293" type="line"/>
      <point x="215" y="293" type="line"/>
      <point x="215" y="0" type="line"/>
    </contour>
  </outline>
</glyph>
<glyph name="K" format="2">
  <advance width="659"/>
  <unicode hex="004B"/>
  <outline>
    <contour>
      <point x="82" y="0" type="line"/>
      <point x="82" y="715" type="line"/>
      <point x="215" y="715" type="line"/>
      <point x="215" y="391" type="line"/>
      <point x="489" y="716" type="line"/>
      <point x="632" y="716" type="line"/>
      <point x="336" y="374" type="line"/>
      <point x="647" y="0" type="line"/>
      <point x="490" y="0" type="line"/>
      <point x="215" y="334" type="line"/>
      <point x="215" y="0" type="line"/>
    </contour>
  </outline>
</glyph>
<glyph name="L" format="2">
  <advance width="551"/>
  <unicode hex="004C"/>
  <outline>
    <contour>
      <point x="82" y="0" type="line"/>
      <point x="82" y="715" type="line"/>
      <point x="215" y="715" type="line"/>
      <point x="215" y="106" type="line"/>
      <point x="520" y="106" type="line"/>
      <point x="520" y="0" type="line"/>
    </contour>
  </outline>
</glyph>
<glyph name="M" format="2">
  <advance width="890"/>
  <unicode hex="004D"/>
  <outline>
    <contour>
      <point x="82" y="0" type="line"/>
      <point x="82" y="715" type="line"/>
      <point x="260" y="715" type="line"/>
      <point x="448" y="227" type="line"/>
      <point x="632" y="715" type="line"/>
      <point x="808" y="715" type="line"/>
      <point x="808" y="0" type="line"/>
      <point x="675" y="0" type="line"/>
      <point x="675" y="540" type="line"/>
      <point x="462" y="0" type="line"/>
      <point x="419" y="0" type="line"/>
      <point x="202" y="540" type="line"/>
      <point x="202" y="0" type="line"/>
    </contour>
  </outline>
</glyph>
<glyph name="P" format="2">
  <advance width="609"/>
  <unicode hex="0050"/>
  <outline>
    <contour>
      <point x="82" y="0" type="line"/>
      <point x="82" y="715" type="line"/>
      <point x="312" y="715" type="line" smooth="yes"/>
      <point x="472" y="715"/>
      <point x="577" y="644"/>
      <point x="577" y="494" type="curve" smooth="yes"/>
      <point x="577" y="490" type="line" smooth="yes"/>
      <point x="577" y="339"/>
      <point x="468" y="272"/>
      <point x="315" y="272" type="curve" smooth="yes"/>
      <point x="215" y="272" type="line"/>
      <point x="215" y="0" type="line"/>
    </contour>
    <contour>
      <point x="215" y="368" type="line"/>
      <point x="312" y="368" type="line" smooth="yes"/>
      <point x="400" y="368"/>
      <point x="447" y="411"/>
      <point x="447" y="490" type="curve" smooth="yes"/>
      <point x="447" y="494" type="line" smooth="yes"/>
      <point x="447" y="579"/>
      <point x="397" y="612"/>
      <point x="312" y="612" type="curve" smooth="yes"/>
      <point x="215" y="612" type="line"/>
    </contour>
  </outline>
</glyph>
<glyph name="Q" format="2">
  <advance width="814"/>
  <unicode hex="0051"/>
  <outline>
    <contour>
      <point x="644" y="-91" type="line"/>
      <point x="546" y="14" type="line"/>
      <point x="505" y="-1"/>
      <point x="458" y="-10"/>
      <point x="408" y="-10" type="curve" smooth="yes"/>
      <point x="189" y="-10"/>
      <point x="46" y="147"/>
      <point x="46" y="353" type="curve" smooth="yes"/>
      <point x="46" y="361" type="line" smooth="yes"/>
      <point x="46" y="570"/>
      <point x="196" y="724"/>
      <point x="408" y="724" type="curve" smooth="yes"/>
      <point x="621" y="724"/>
      <point x="769" y="573"/>
      <point x="769" y="364" type="curve" smooth="yes"/>
      <point x="769" y="356" type="line" smooth="yes"/>
      <point x="769" y="238"/>
      <point x="723" y="138"/>
      <point x="645" y="72" type="curve"/>
      <point x="724" y="-13" type="line"/>
    </contour>
    <contour>
      <point x="409" y="95" type="curve" smooth="yes"/>
      <point x="429" y="95"/>
      <point x="448" y="97"/>
      <point x="465" y="101" type="curve"/>
      <point x="395" y="177" type="line"/>
      <point x="476" y="253" type="line"/>
      <point x="564" y="158" type="line"/>
      <point x="606" y="204"/>
      <point x="630" y="272"/>
      <point x="630" y="356" type="curve" smooth="yes"/>
      <point x="630" y="364" type="line" smooth="yes"/>
      <point x="630" y="511"/>
      <point x="548" y="619"/>
      <point x="408" y="619" type="curve" smooth="yes"/>
      <point x="267" y="619"/>
      <point x="184" y="516"/>
      <point x="184" y="362" type="curve" smooth="yes"/>
      <point x="184" y="354" type="line" smooth="yes"/>
      <point x="184" y="194"/>
      <point x="280" y="95"/>
    </contour>
  </outline>
</glyph>
<glyph name="R" format="2">
  <advance width="655"/>
  <unicode hex="0052"/>
  <outline>
    <contour>
      <point x="82" y="0" type="line"/>
      <point x="82" y="715" type="line"/>
      <point x="322" y="715" type="line" smooth="yes"/>
      <point x="479" y="715"/>
      <point x="589" y="651"/>
      <point x="589" y="505" type="curve" smooth="yes"/>
      <point x="589" y="501" type="line" smooth="yes"/>
      <point x="589" y="389"/>
      <point x="519" y="332"/>
      <point x="430" y="309" type="curve"/>
      <point x="631" y="0" type="line"/>
      <point x="487" y="0" type="line"/>
      <point x="300" y="289" type="line"/>
      <point x="215" y="289" type="line"/>
      <point x="215" y="0" type="line"/>
    </contour>
    <contour>
      <point x="215" y="384" type="line"/>
      <point x="322" y="384" type="line" smooth="yes"/>
      <point x="411" y="384"/>
      <point x="458" y="422"/>
      <point x="458" y="498" type="curve" smooth="yes"/>
      <point x="458" y="502" type="line" smooth="yes"/>
      <point x="458" y="584"/>
      <point x="407" y="612"/>
      <point x="322" y="612" type="curve" smooth="yes"/>
      <point x="215" y="612" type="line"/>
    </contour>
  </outline>
</glyph>
<glyph name="S" format="2">
  <advance width="635"/>
  <unicode hex="0053"/>
  <outline>
    <contour>
      <point x="325" y="-10" type="curve" smooth="yes"/>
      <point x="130" y="-10"/>
      <point x="48" y="87"/>
      <point x="38" y="222" type="curve"/>
      <point x="166" y="222" type="line"/>
      <point x="175" y="150"/>
      <point x="204" y="90"/>
      <point x="325" y="90" type="curve" smooth="yes"/>
      <point x="404" y="90"/>
      <point x="460" y="134"/>
      <point x="460" y="200" type="curve" smooth="yes"/>
      <point x="460" y="266"/>
      <point x="427" y="291"/>
      <point x="311" y="310" type="curve" smooth="yes"/>
      <point x="140" y="333"/>
      <point x="59" y="385"/>
      <point x="59" y="519" type="curve" smooth="yes"/>
      <point x="59" y="636"/>
      <point x="159" y="724"/>
      <point x="308" y="724" type="curve" smooth="yes"/>
      <point x="462" y="724"/>
      <point x="554" y="654"/>
      <point x="568" y="517" type="curve"/>
      <point x="446" y="517" type="line"/>
      <point x="433" y="592"/>
      <point x="390" y="624"/>
      <point x="308" y="624" type="curve" smooth="yes"/>
      <point x="227" y="624"/>
      <point x="185" y="585"/>
      <point x="185" y="530" type="curve" smooth="yes"/>
      <point x="185" y="472"/>
      <point x="209" y="443"/>
      <point x="333" y="425" type="curve" smooth="yes"/>
      <point x="501" y="402"/>
      <point x="588" y="354"/>
      <point x="588" y="211" type="curve" smooth="yes"/>
      <point x="588" y="87"/>
      <point x="483" y="-10"/>
    </contour>
  </outline>
</glyph>
<glyph name="T" format="2">
  <advance width="583"/>
  <unicode hex="0054"/>
  <outline>
    <contour>
      <point x="225" y="0" type="line"/>
      <point x="225" y="610" type="line"/>
      <point x="26" y="610" type="line"/>
      <point x="26" y="715" type="line"/>
      <point x="558" y="715" type="line"/>
      <point x="558" y="610" type="line"/>
      <point x="359" y="610" type="line"/>
      <point x="359" y="0" type="line"/>
    </contour>
  </outline>
</glyph>
<glyph name="U" format="2">
  <advance width="723"/>
  <unicode hex="0055"/>
  <outline>
    <contour>
      <point x="357" y="-10" type="curve" smooth="yes"/>
      <point x="178" y="-10"/>
      <point x="76" y="88"/>
      <point x="76" y="272" type="curve" smooth="yes"/>
      <point x="76" y="715" type="line"/>
      <point x="210" y="715" type="line"/>
      <point x="210" y="282" type="line" smooth="yes"/>
      <point x="210" y="151"/>
      <point x="252" y="97"/>
      <point x="358" y="97" type="curve" smooth="yes"/>
      <point x="461" y="97"/>
      <point x="513" y="143"/>
      <point x="513" y="291" type="curve" smooth="yes"/>
      <point x="513" y="715" type="line"/>
      <point x="647" y="715" type="line"/>
      <point x="647" y="280" type="line" smooth="yes"/>
      <point x="647" y="93"/>
      <point x="546" y="-10"/>
    </contour>
  </outline>
</glyph>
<glyph name="X" format="2">
  <advance width="695"/>
  <unicode hex="0058"/>
  <outline>
    <contour>
      <point x="36" y="0" type="line"/>
      <point x="266" y="367" type="line"/>
      <point x="52" y="715" type="line"/>
      <point x="202" y="715" type="line"/>
      <point x="354" y="461" type="line"/>
      <point x="505" y="715" type="line"/>
      <point x="642" y="715" type="line"/>
      <point x="431" y="370" type="line"/>
      <point x="660" y="0" type="line"/>
      <point x="508" y="0" type="line"/>
      <point x="340" y="279" type="line"/>
      <point x="172" y="0" type="line"/>
    </contour>
  </outline>
</glyph>
<glyph name="Z" format="2">
  <advance width="608"/>
  <unicode hex="005A"/>
  <outline>
    <contour>
      <point x="22" y="0" type="line"/>
      <point x="22" y="18" type="line"/>
      <point x="387" y="610" type="line"/>
      <point x="59" y="610" type="line"/>
      <point x="59" y="715" type="line"/>
      <point x="575" y="715" type="line"/>
      <point x="575" y="698" type="line"/>
      <point x="218" y="107" type="line"/>
      <point x="565" y="107" type="line"/>
      <point x="565" y="0" type="line"/>
    </contour>
  </outline>
</glyph>
<glyph name="backslash" format="2">
  <advance width="415"/>
  <unicode hex="005C"/>
  <outline>
    <contour>
      <point x="319" y="-148" type="line"/>
      <point x="18" y="776" type="line"/>
      <point x="120" y="776" type="line"/>
      <point x="421" y="-148" type="line"/>
    </contour>
  </outline>
</glyph>
<glyph name="bracketright" format="2">
  <advance width="377"/>
  <unicode hex="005D"/>
  <outline>
    <contour>
      <point x="42" y="-148" type="line"/>
      <point x="42" y="-57" type="line"/>
      <point x="176" y="-57" type="line"/>
      <point x="176" y="685" type="line"/>
      <point x="42" y="685" type="line"/>
      <point x="42" y="776" type="line"/>
      <point x="298" y="776" type="line"/>
      <point x="298" y="-148" type="line"/>
    </contour>
  </outline>
</glyph>
<glyph name="underscore" format="2">
  <advance width="410"/>
  <unicode hex="005F"/>
  <outline>
    <contour>
      <point x="-1" y="-159" type="line"/>
      <point x="-1" y="-85" type="line"/>
      <point x="411" y="-85" type="line"/>
      <point x="411" y="-159" type="line"/>
    </contour>
  </outline>
</glyph>
<glyph name="grave" format="2">
  <advance width="400"/>
  <unicode hex="0060"/>
  <outline>
    <contour>
      <point x="163" y="601" type="line"/>
      <point x="59" y="756" type="line"/>
      <point x="193" y="756" type="line"/>
      <point x="252" y="601" type="line"/>
    </contour>
  </outline>
</glyph>
<glyph name="b" format="2">
  <advance width="633"/>
  <unicode hex="0062"/>
  <outline>
    <contour>
      <point x="364" y="-10" type="curve" smooth="yes"/>
      <point x="281" y="-10"/>
      <point x="221" y="31"/>
      <point x="193" y="84" type="curve"/>
      <point x="193" y="0" type="line"/>
      <point x="72" y="0" type="line"/>
      <point x="72" y="765" type="line"/>
      <point x="193" y="765" type="line"/>
      <point x="193" y="439" type="line"/>
      <point x="222" y="489"/>
      <point x="287" y="534"/>
      <point x="364" y="534" type="curve" smooth="yes"/>
      <point x="495" y="534"/>
      <point x="596" y="437"/>
      <point x="596" y="268" type="curve" smooth="yes"/>
      <point x="596" y="260" type="line" smooth="yes"/>
      <point x="596" y="92"/>
      <point x="499" y="-10"/>
    </contour>
    <contour>
      <point x="334" y="86" type="curve" smooth="yes"/>
      <point x="423" y="86"/>
      <point x="472" y="146"/>
      <point x="472" y="258" type="curve" smooth="yes"/>
      <point x="472" y="266" type="line" smooth="yes"/>
      <point x="472" y="382"/>
      <point x="412" y="439"/>
      <point x="333" y="439" type="curve" smooth="yes"/>
      <point x="249" y="439"/>
      <point x="189" y="382"/>
      <point x="189" y="266" type="curve" smooth="yes"/>
      <point x="189" y="258" type="line" smooth="yes"/>
      <point x="189" y="141"/>
      <point x="246" y="86"/>
    </contour>
  </outline>
</glyph>
<glyph name="c" format="2">
  <advance width="575"/>
  <unicode hex="0063"/>
  <outline>
    <contour>
      <point x="301" y="-10" type="curve" smooth="yes"/>
      <point x="151" y="-10"/>
      <point x="37" y="88"/>
      <point x="37" y="255" type="curve" smooth="yes"/>
      <point x="37" y="263" type="line" smooth="yes"/>
      <point x="37" y="429"/>
      <point x="155" y="534"/>
      <point x="301" y="534" type="curve" smooth="yes"/>
      <point x="417" y="534"/>
      <point x="526" y="482"/>
      <point x="540" y="338" type="curve"/>
      <point x="423" y="338" type="line"/>
      <point x="413" y="408"/>
      <point x="367" y="437"/>
      <point x="303" y="437" type="curve" smooth="yes"/>
      <point x="220" y="437"/>
      <point x="161" y="373"/>
      <point x="161" y="265" type="curve" smooth="yes"/>
      <point x="161" y="257" type="line" smooth="yes"/>
      <point x="161" y="143"/>
      <point x="217" y="83"/>
      <point x="306" y="83" type="curve" smooth="yes"/>
      <point x="370" y="83"/>
      <point x="425" y="121"/>
      <point x="432" y="195" type="curve"/>
      <point x="543" y="195" type="line"/>
      <point x="534" y="75"/>
      <point x="443" y="-10"/>
    </contour>
  </outline>
</glyph>
<glyph name="d" format="2">
  <advance width="633"/>
  <unicode hex="0064"/>
  <outline>
    <contour>
      <point x="268" y="-10" type="curve" smooth="yes"/>
      <point x="137" y="-10"/>
      <point x="38" y="83"/>
      <point x="38" y="253" type="curve" smooth="yes"/>
      <point x="38" y="261" type="line" smooth="yes"/>
      <point x="38" y="428"/>
      <point x="137" y="534"/>
      <point x="273" y="534" type="curve" smooth="yes"/>
      <point x="358" y="534"/>
      <point x="411" y="495"/>
      <point x="440" y="443" type="curve"/>
      <point x="440" y="765" type="line"/>
      <point x="561" y="765" type="line"/>
      <point x="561" y="0" type="line"/>
      <point x="440" y="0" type="line"/>
      <point x="440" y="88" type="line"/>
      <point x="412" y="36"/>
      <point x="345" y="-10"/>
    </contour>
    <contour>
      <point x="298" y="86" type="curve" smooth="yes"/>
      <point x="382" y="86"/>
      <point x="444" y="142"/>
      <point x="444" y="259" type="curve" smooth="yes"/>
      <point x="444" y="267" type="line" smooth="yes"/>
      <point x="444" y="382"/>
      <point x="391" y="439"/>
      <point x="303" y="439" type="curve" smooth="yes"/>
      <point x="214" y="439"/>
      <point x="162" y="377"/>
      <point x="162" y="264" type="curve" smooth="yes"/>
      <point x="162" y="256" type="line" smooth="yes"/>
      <point x="162" y="141"/>
      <point x="220" y="86"/>
    </contour>
  </outline>
</glyph>
<glyph name="f" format="2">
  <advance width="362"/>
  <unicode hex="0066"/>
  <outline>
    <contour>
      <point x="93" y="0" type="line"/>
      <point x="93" y="432" type="line"/>
      <point x="22" y="432" type="line"/>
      <point x="22" y="523" type="line"/>
      <point x="93" y="523" type="line"/>
      <point x="93" y="593" type="line" smooth="yes"/>
      <point x="93" y="708"/>
      <point x="157" y="770"/>
      <point x="269" y="770" type="curve" smooth="yes"/>
      <point x="298" y="770"/>
      <point x="316" y="767"/>
      <point x="338" y="760" type="curve"/>
      <point x="338" y="666" type="line"/>
      <point x="324" y="671"/>
      <point x="305" y="675"/>
      <point x="283" y="675" type="curve" smooth="yes"/>
      <point x="234" y="675"/>
      <point x="214" y="643"/>
      <point x="214" y="598" type="curve" smooth="yes"/>
      <point x="214" y="523" type="line"/>
      <point x="333" y="523" type="line"/>
      <point x="333" y="432" type="line"/>
      <point x="214" y="432" type="line"/>
      <point x="214" y="0" type="line"/>
    </contour>
  </outline>
</glyph>
<glyph name="k" format="2">
  <advance width="540"/>
  <unicode hex="006B"/>
  <outline>
    <contour>
      <point x="72" y="0" type="line"/>
      <point x="72" y="765" type="line"/>
      <point x="193" y="765" type="line"/>
      <point x="193" y="293" type="line"/>
      <point x="380" y="523" type="line"/>
      <point x="512" y="523" type="line"/>
      <point x="309" y="283" type="line"/>
      <point x="529" y="0" type="line"/>
      <point x="389" y="0" type="line"/>
      <point x="193" y="257" type="line"/>
      <point x="193" y="0" type="line"/>
    </contour>
  </outline>
</glyph>
<glyph name="m" format="2">
  <advance width="918"/>
  <unicode hex="006D"/>
  <outline>
    <contour>
      <point x="72" y="0" type="line"/>
      <point x="72" y="523" type="line"/>
      <point x="193" y="523" type="line"/>
      <point x="193" y="443" type="line"/>
      <point x="218" y="492"/>
      <point x="275" y="534"/>
      <point x="352" y="534" type="curve" smooth="yes"/>
      <point x="420" y="534"/>
      <point x="474" y="505"/>
      <point x="500" y="440" type="curve"/>
      <point x="540" y="505"/>
      <point x="612" y="534"/>
      <point x="677" y="534" type="curve" smooth="yes"/>
      <point x="773" y="534"/>
      <point x="851" y="475"/>
      <point x="851" y="331" type="curve" smooth="yes"/>
      <point x="851" y="0" type="line"/>
      <point x="730" y="0" type="line"/>
      <point x="730" y="323" type="line" smooth="yes"/>
      <point x="730" y="400"/>
      <point x="697" y="433"/>
      <point x="637" y="433" type="curve" smooth="yes"/>
      <point x="577" y="433"/>
      <point x="522" y="393"/>
      <point x="522" y="313" type="curve" smooth="yes"/>
      <point x="522" y="0" type="line"/>
      <point x="401" y="0" type="line"/>
      <point x="401" y="323" type="line" smooth="yes"/>
      <point x="401" y="400"/>
      <point x="367" y="433"/>
      <point x="308" y="433" type="curve" smooth="yes"/>
      <point x="248" y="433"/>
      <point x="193" y="393"/>
      <point x="193" y="313" type="curve" smooth="yes"/>
      <point x="193" y="0" type="line"/>
    </contour>
  </outline>
</glyph>
<glyph name="o" format="2">
  <advance width="611"/>
  <unicode hex="006F"/>
  <outline>
    <contour>
      <point x="306" y="84" type="curve" smooth="yes"/>
      <point x="396" y="84"/>
      <point x="450" y="151"/>
      <point x="450" y="258" type="curve" smooth="yes"/>
      <point x="450" y="265" type="line" smooth="yes"/>
      <point x="450" y="373"/>
      <point x="396" y="439"/>
      <point x="306" y="439" type="curve" smooth="yes"/>
      <point x="216" y="439"/>
      <point x="161" y="374"/>
      <point x="161" y="266" type="curve" smooth="yes"/>
      <point x="161" y="258" type="line" smooth="yes"/>
      <point x="161" y="151"/>
      <point x="214" y="84"/>
    </contour>
    <contour>
      <point x="305" y="-10" type="curve" smooth="yes"/>
      <point x="151" y="-10"/>
      <point x="37" y="97"/>
      <point x="37" y="256" type="curve" smooth="yes"/>
      <point x="37" y="264" type="line" smooth="yes"/>
      <point x="37" y="426"/>
      <point x="152" y="534"/>
      <point x="306" y="534" type="curve" smooth="yes"/>
      <point x="459" y="534"/>
      <point x="574" y="427"/>
      <point x="574" y="267" type="curve" smooth="yes"/>
      <point x="574" y="259" type="line" smooth="yes"/>
      <point x="574" y="96"/>
      <point x="459" y="-10"/>
    </contour>
  </outline>
</glyph>
<glyph name="t" format="2">
  <advance width="369"/>
  <unicode hex="0074"/>
  <outline>
    <contour>
      <point x="250" y="-9" type="curve" smooth="yes"/>
      <point x="146" y="-9"/>
      <point x="92" y="47"/>
      <point x="92" y="146" type="curve" smooth="yes"/>
      <point x="92" y="432" type="line"/>
      <point x="22" y="432" type="line"/>
      <point x="22" y="523" type="line"/>
      <point x="92" y="523" type="line"/>
      <point x="92" y="638" type="line"/>
      <point x="213" y="638" type="line"/>
      <point x="213" y="523" type="line"/>
      <point x="328" y="523" type="line"/>
      <point x="328" y="432" type="line"/>
      <point x="213" y="432" type="line"/>
      <point x="213" y="157" type="line" smooth="yes"/>
      <point x="213" y="111"/>
      <point x="235" y="90"/>
      <point x="273" y="90" type="curve" smooth="yes"/>
      <point x="297" y="90"/>
      <point x="315" y="93"/>
      <point x="332" y="100" type="curve"/>
      <point x="332" y="4" type="line"/>
      <point x="313" y="-3"/>
      <point x="287" y="-9"/>
    </contour>
  </outline>
</glyph>
<glyph name="v" format="2">
  <advance width="557"/>
  <unicode hex="0076"/>
  <outline>
    <contour>
      <point x="209" y="0" type="line"/>
      <point x="18" y="523" type="line"/>
      <point x="148" y="523" type="line"/>
      <point x="285" y="124" type="line"/>
      <point x="420" y="523" type="line"/>
      <point x="539" y="523" type="line"/>
      <point x="350" y="0" type="line"/>
    </contour>
  </outline>
</glyph>
<glyph name="w" format="2">
  <advance width="814"/>
  <unicode hex="0077"/>
  <outline>
    <contour>
      <point x="180" y="0" type="line"/>
      <point x="20" y="523" type="line"/>
      <point x="149" y="523" type="line"/>
      <point x="253" y="145" type="line"/>
      <point x="364" y="523" type="line"/>
      <point x="465" y="523" type="line"/>
      <point x="567" y="145" type="line"/>
      <point x="676" y="523" type="line"/>
      <point x="794" y="523" type="line"/>
      <point x="630" y="0" type="line"/>
      <point x="507" y="0" type="line"/>
      <point x="410" y="352" type="line"/>
      <point x="304" y="0" type="line"/>
    </contour>
  </outline>
</glyph>
<glyph name="x" format="2">
  <advance width="556"/>
  <unicode hex="0078"/>
  <outline>
    <contour>
      <point x="21" y="0" type="line"/>
      <point x="203" y="268" type="line"/>
      <point x="33" y="523" type="line"/>
      <point x="173" y="523" type="line"/>
      <point x="282" y="354" type="line"/>
      <point x="390" y="523" type="line"/>
      <point x="517" y="523" type="line"/>
      <point x="348" y="277" type="line"/>
      <point x="535" y="0" type="line"/>
      <point x="394" y="0" type="line"/>
      <point x="272" y="189" type="line"/>
      <point x="147" y="0" type="line"/>
    </contour>
  </outline>
</glyph>
<glyph name="z" format="2">
  <advance width="493"/>
  <unicode hex="007A"/>
  <outline>
    <contour>
      <point x="17" y="0" type="line"/>
      <point x="17" y="14" type="line"/>
      <point x="294" y="427" type="line"/>
      <point x="44" y="427" type="line"/>
      <point x="44" y="523" type="line"/>
      <point x="473" y="523" type="line"/>
      <point x="473" y="506" type="line"/>
      <point x="197" y="97" type="line"/>
      <point x="465" y="97" type="line"/>
      <point x="465" y="0" type="line"/>
    </contour>
  </outline>
</glyph>
<glyph name="braceleft" format="2">
  <advance width="396"/>
  <unicode hex="007B"/>
  <outline>
    <contour>
      <point x="354" y="-147" type="line"/>
      <point x="185" y="-147"/>
      <point x="102" y="-85"/>
      <point x="129" y="70" type="curve" smooth="yes"/>
      <point x="146" y="166" type="line" smooth="yes"/>
      <point x="156" y="221"/>
      <point x="129" y="272"/>
      <point x="36" y="272" type="curve"/>
      <point x="36" y="359" type="line"/>
      <point x="129" y="359"/>
      <point x="156" y="411"/>
      <point x="146" y="465" type="curve" smooth="yes"/>
      <point x="129" y="561" type="line" smooth="yes"/>
      <point x="102" y="718"/>
      <point x="185" y="778"/>
      <point x="354" y="778" type="curve"/>
      <point x="354" y="689" type="line"/>
      <point x="264" y="687"/>
      <point x="232" y="659"/>
      <point x="246" y="562" type="curve" smooth="yes"/>
      <point x="263" y="452" type="line" smooth="yes"/>
      <point x="274" y="380"/>
      <point x="232" y="333"/>
      <point x="163" y="316" type="curve"/>
      <point x="233" y="300"/>
      <point x="274" y="252"/>
      <point x="263" y="180" type="curve" smooth="yes"/>
      <point x="246" y="71" type="line" smooth="yes"/>
      <point x="232" y="-27"/>
      <point x="264" y="-56"/>
      <point x="354" y="-58" type="curve"/>
    </contour>
  </outline>
</glyph>
<glyph name="bar" format="2">
  <advance width="259"/>
  <unicode hex="007C"/>
  <outline>
    <contour>
      <point x="84" y="-148" type="line"/>
      <point x="84" y="776" type="line"/>
      <point x="174" y="776" type="line"/>
      <point x="174" y="-148" type="line"/>
    </contour>
  </outline>
</glyph>
<glyph name="braceright" format="2">
  <advance width="396"/>
  <unicode hex="007D"/>
  <outline>
    <contour>
      <point x="42" y="-147" type="curve"/>
      <point x="42" y="-58" type="line"/>
      <point x="131" y="-56"/>
      <point x="164" y="-27"/>
      <point x="149" y="71" type="curve" smooth="yes"/>
      <point x="133" y="180" type="line" smooth="yes"/>
      <point x="122" y="252"/>
      <point x="163" y="300"/>
      <point x="233" y="316" type="curve"/>
      <point x="163" y="333"/>
      <point x="122" y="380"/>
      <point x="133" y="452" type="curve" smooth="yes"/>
      <point x="149" y="562" type="line" smooth="yes"/>
      <point x="164" y="659"/>
      <point x="131" y="687"/>
      <point x="42" y="689" type="curve"/>
      <point x="42" y="778" type="line"/>
      <point x="211" y="778"/>
      <point x="294" y="718"/>
      <point x="267" y="561" type="curve" smooth="yes"/>
      <point x="250" y="465" type="line" smooth="yes"/>
      <point x="240" y="411"/>
      <point x="267" y="359"/>
      <point x="359" y="359" type="curve"/>
      <point x="359" y="272" type="line"/>
      <point x="267" y="272"/>
      <point x="240" y="221"/>
      <point x="250" y="166" type="curve" smooth="yes"/>
      <point x="267" y="70" type="line" smooth="yes"/>
      <point x="294" y="-85"/>
      <point x="211" y="-147"/>
    </contour>
  </outline>
</glyph>
<glyph name="asciitilde" format="2">
  <advance width="474"/>
  <unicode hex="007E"/>
  <outline>
    <contour>
      <point x="38" y="220" type="line"/>
      <point x="45" y="328"/>
      <point x="101" y="375"/>
      <point x="160" y="375" type="curve" smooth="yes"/>
      <point x="228" y="375"/>
      <point x="272" y="327"/>
      <point x="305" y="327" type="curve" smooth="yes"/>
      <point x="328" y="327"/>
      <point x="347" y="344"/>
      <point x="350" y="377" type="curve"/>
      <point x="436" y="377" type="line"/>
      <point x="431" y="271"/>
      <point x="373" y="221"/>
      <point x="316" y="221" type="curve" smooth="yes"/>
      <point x="245" y="221"/>
      <point x="203" y="270"/>
      <point x="169" y="270" type="curve" smooth="yes"/>
      <point x="145" y="270"/>
      <point x="128" y="252"/>
      <point x="124" y="220" type="curve"/>
    </contour>
  </outline>
</glyph>
<glyph name="exclamdown" format="2">
  <advance width="306"/>
  <unicode hex="00A1"/>
  <outline>
    <contour>
      <point x="85" y="-117" type="line"/>
      <point x="104" y="383" type="line"/>
      <point x="201" y="383" type="line"/>
      <point x="220" y="-117" type="line"/>
    </contour>
    <contour>
      <point x="153" y="450" type="curve" smooth="yes"/>
      <point x="109" y="450"/>
      <point x="72" y="484"/>
      <point x="72" y="528" type="curve" smooth="yes"/>
      <point x="72" y="571"/>
      <point x="109" y="605"/>
      <point x="153" y="605" type="curve" smooth="yes"/>
      <point x="197" y="605"/>
      <point x="234" y="571"/>
      <point x="234" y="528" type="curve" smooth="yes"/>
      <point x="234" y="484"/>
      <point x="197" y="450"/>
    </contour>
  </outline>
</glyph>
<glyph name="cent" format="2">
  <advance width="577"/>
  <unicode hex="00A2"/>
  <outline>
    <contour>
      <point x="270" y="-135" type="line"/>
      <point x="270" y="-8" type="line"/>
      <point x="134" y="5"/>
      <point x="37" y="101"/>
      <point x="37" y="256" type="curve" smooth="yes"/>
      <point x="37" y="264" type="line" smooth="yes"/>
      <point x="37" y="416"/>
      <point x="138" y="517"/>
      <point x="270" y="532" type="curve"/>
      <point x="270" y="629" type="line"/>
      <point x="337" y="629" type="line"/>
      <point x="337" y="532" type="line"/>
      <point x="442" y="523"/>
      <point x="532" y="465"/>
      <point x="545" y="338" type="curve"/>
      <point x="431" y="338" type="line"/>
      <point x="422" y="397"/>
      <point x="385" y="428"/>
      <point x="337" y="438" type="curve"/>
      <point x="337" y="82" type="line"/>
      <point x="390" y="92"/>
      <point x="433" y="130"/>
      <point x="439" y="195" type="curve"/>
      <point x="548" y="195" type="line"/>
      <point x="539" y="84"/>
      <point x="459" y="3"/>
      <point x="337" y="-8" type="curve"/>
      <point x="337" y="-135" type="line"/>
    </contour>
    <contour>
      <point x="159" y="256" type="line" smooth="yes"/>
      <point x="159" y="158"/>
      <point x="202" y="99"/>
      <point x="270" y="84" type="curve"/>
      <point x="270" y="437" type="line"/>
      <point x="204" y="421"/>
      <point x="159" y="360"/>
      <point x="159" y="264" type="curve" smooth="yes"/>
    </contour>
  </outline>
</glyph>
<glyph name="sterling" format="2">
  <advance width="620"/>
  <unicode hex="00A3"/>
  <outline>
    <contour>
      <point x="42" y="304" type="line"/>
      <point x="42" y="389" type="line"/>
      <point x="102" y="389" type="line"/>
      <point x="93" y="425"/>
      <point x="86" y="464"/>
      <point x="86" y="509" type="curve" smooth="yes"/>
      <point x="86" y="641"/>
      <point x="192" y="724"/>
      <point x="328" y="724" type="curve" smooth="yes"/>
      <point x="478" y="724"/>
      <point x="557" y="641"/>
      <point x="566" y="515" type="curve"/>
      <point x="441" y="515" type="line"/>
      <point x="429" y="585"/>
      <point x="400" y="621"/>
      <point x="331" y="621" type="curve" smooth="yes"/>
      <point x="265" y="621"/>
      <point x="220" y="575"/>
      <point x="220" y="504" type="curve" smooth="yes"/>
      <point x="220" y="462"/>
      <point x="226" y="425"/>
      <point x="233" y="389" type="curve"/>
      <point x="432" y="389" type="line"/>
      <point x="432" y="304" type="line"/>
      <point x="250" y="304" type="line"/>
      <point x="256" y="272"/>
      <point x="260" y="239"/>
      <point x="260" y="202" type="curve" smooth="yes"/>
      <point x="260" y="178"/>
      <point x="255" y="158"/>
      <point x="248" y="139" type="curve"/>
      <point x="303" y="124"/>
      <point x="352" y="98"/>
      <point x="388" y="98" type="curve" smooth="yes"/>
      <point x="435" y="98"/>
      <point x="464" y="118"/>
      <point x="468" y="173" type="curve"/>
      <point x="585" y="173" type="line"/>
      <point x="579" y="68"/>
      <point x="518" y="-9"/>
      <point x="410" y="-9" type="curve" smooth="yes"/>
      <point x="317" y="-9"/>
      <point x="246" y="50"/>
      <point x="193" y="50" type="curve" smooth="yes"/>
      <point x="154" y="50"/>
      <point x="137" y="25"/>
      <point x="134" y="0" type="curve"/>
      <point x="30" y="0" type="line"/>
      <point x="35" y="59"/>
      <point x="66" y="125"/>
      <point x="135" y="144" type="curve"/>
      <point x="141" y="161"/>
      <point x="145" y="179"/>
      <point x="145" y="203" type="curve" smooth="yes"/>
      <point x="145" y="237"/>
      <point x="137" y="270"/>
      <point x="127" y="304" type="curve"/>
    </contour>
  </outline>
</glyph>
<glyph name="yen" format="2">
  <advance width="604"/>
  <unicode hex="00A5"/>
  <outline>
    <contour>
      <point x="76" y="286" type="line"/>
      <point x="76" y="349" type="line"/>
      <point x="225" y="349" type="line"/>
      <point x="21" y="715" type="line"/>
      <point x="166" y="715" type="line"/>
      <point x="313" y="427" type="line"/>
      <point x="454" y="715" type="line"/>
      <point x="582" y="715" type="line"/>
      <point x="390" y="349" type="line"/>
      <point x="540" y="349" type="line"/>
      <point x="540" y="286" type="line"/>
      <point x="374" y="286" type="line"/>
      <point x="374" y="219" type="line"/>
      <point x="540" y="219" type="line"/>
      <point x="540" y="155" type="line"/>
      <point x="374" y="155" type="line"/>
      <point x="374" y="0" type="line"/>
      <point x="242" y="0" type="line"/>
      <point x="242" y="155" type="line"/>
      <point x="76" y="155" type="line"/>
      <point x="76" y="219" type="line"/>
      <point x="242" y="219" type="line"/>
      <point x="242" y="286" type="line"/>
    </contour>
  </outline>
</glyph>
<glyph name="brokenbar" format="2">
  <advance width="264"/>
  <unicode hex="00A6"/>
  <outline>
    <contour>
      <point x="84" y="-148" type="line"/>
      <point x="84" y="299" type="line"/>
      <point x="174" y="299" type="line"/>
      <point x="174" y="-148" type="line"/>
    </contour>
    <contour>
      <point x="84" y="369" type="line"/>
      <point x="84" y="776" type="line"/>
      <point x="174" y="776" type="line"/>
      <point x="174" y="369" type="line"/>
    </contour>
  </outline>
</glyph>
<glyph name="section" format="2">
  <advance width="565"/>
  <unicode hex="00A7"/>
  <outline>
    <contour>
      <point x="276" y="-137" type="curve" smooth="yes"/>
      <point x="154" y="-137"/>
      <point x="78" y="-74"/>
      <point x="75" y="34" type="curve"/>
      <point x="191" y="34" type="line"/>
      <point x="195" y="-16"/>
      <point x="218" y="-47"/>
      <point x="277" y="-47" type="curve" smooth="yes"/>
      <point x="334" y="-47"/>
      <point x="361" y="-16"/>
      <point x="361" y="26" type="curve" smooth="yes"/>
      <point x="361" y="69"/>
      <point x="336" y="90"/>
      <point x="234" y="115" type="curve" smooth="yes"/>
      <point x="113" y="145"/>
      <point x="34" y="188"/>
      <point x="34" y="295" type="curve" smooth="yes"/>
      <point x="34" y="361"/>
      <point x="77" y="409"/>
      <point x="145" y="430" type="curve"/>
      <point x="109" y="459"/>
      <point x="90" y="497"/>
      <point x="90" y="553" type="curve" smooth="yes"/>
      <point x="90" y="656"/>
      <point x="180" y="724"/>
      <point x="289" y="724" type="curve" smooth="yes"/>
      <point x="409" y="724"/>
      <point x="482" y="663"/>
      <point x="486" y="557" type="curve"/>
      <point x="371" y="557" type="line"/>
      <point x="367" y="604"/>
      <point x="347" y="634"/>
      <point x="288" y="634" type="curve" smooth="yes"/>
      <point x="230" y="634"/>
      <point x="205" y="601"/>
      <point x="205" y="560" type="curve" smooth="yes"/>
      <point x="205" y="516"/>
      <point x="227" y="497"/>
      <point x="327" y="472" type="curve" smooth="yes"/>
      <point x="447" y="442"/>
      <point x="532" y="405"/>
      <point x="532" y="291" type="curve" smooth="yes"/>
      <point x="532" y="230"/>
      <point x="490" y="179"/>
      <point x="422" y="155" type="curve"/>
      <point x="457" y="127"/>
      <point x="476" y="88"/>
      <point x="476" y="33" type="curve" smooth="yes"/>
      <point x="476" y="-65"/>
      <point x="390" y="-137"/>
    </contour>
    <contour>
      <point x="343" y="200" type="line"/>
      <point x="392" y="212"/>
      <point x="414" y="239"/>
      <point x="414" y="276" type="curve" smooth="yes"/>
      <point x="414" y="324"/>
      <point x="375" y="341"/>
      <point x="299" y="363" type="curve" smooth="yes"/>
      <point x="222" y="385" type="line"/>
      <point x="179" y="376"/>
      <point x="152" y="348"/>
      <point x="152" y="309" type="curve" smooth="yes"/>
      <point x="152" y="264"/>
      <point x="191" y="245"/>
      <point x="268" y="223" type="curve" smooth="yes"/>
    </contour>
  </outline>
</glyph>
<glyph name="dieresis" format="2">
  <advance width="400"/>
  <unicode hex="00A8"/>
  <outline>
    <contour>
      <point x="101" y="613" type="curve" smooth="yes"/>
      <point x="65" y="613"/>
      <point x="35" y="642"/>
      <point x="35" y="678" type="curve" smooth="yes"/>
      <point x="35" y="713"/>
      <point x="65" y="743"/>
      <point x="101" y="743" type="curve" smooth="yes"/>
      <point x="137" y="743"/>
      <point x="167" y="713"/>
      <point x="167" y="678" type="curve" smooth="yes"/>
      <point x="167" y="642"/>
      <point x="137" y="613"/>
    </contour>
    <contour>
      <point x="299" y="613" type="curve" smooth="yes"/>
      <point x="262" y="613"/>
      <point x="233" y="642"/>
      <point x="233" y="678" type="curve" smooth="yes"/>
      <point x="233" y="713"/>
      <point x="262" y="743"/>
      <point x="299" y="743" type="curve" smooth="yes"/>
      <point x="335" y="743"/>
      <point x="365" y="713"/>
      <point x="365" y="678" type="curve" smooth="yes"/>
      <point x="365" y="642"/>
      <point x="335" y="613"/>
    </contour>
  </outline>
</glyph>
<glyph name="copyright" format="2">
  <advance width="843"/>
  <unicode hex="00A9"/>
  <outline>
    <contour>
      <point x="425" y="153" type="curve" smooth="yes"/>
      <point x="296" y="153"/>
      <point x="225" y="232"/>
      <point x="225" y="353" type="curve" smooth="yes"/>
      <point x="225" y="361" type="line" smooth="yes"/>
      <point x="225" y="482"/>
      <point x="309" y="562"/>
      <point x="423" y="562" type="curve" smooth="yes"/>
      <point x="520" y="562"/>
      <point x="592" y="515"/>
      <point x="600" y="416" type="curve"/>
      <point x="504" y="416" type="line"/>
      <point x="497" y="462"/>
      <point x="471" y="486"/>
      <point x="423" y="486" type="curve" smooth="yes"/>
      <point x="363" y="486"/>
      <point x="325" y="442"/>
      <point x="325" y="361" type="curve" smooth="yes"/>
      <point x="325" y="354" type="line" smooth="yes"/>
      <point x="325" y="274"/>
      <point x="360" y="230"/>
      <point x="424" y="230" type="curve" smooth="yes"/>
      <point x="471" y="230"/>
      <point x="506" y="253"/>
      <point x="512" y="304" type="curve"/>
      <point x="604" y="304" type="line"/>
      <point x="596" y="204"/>
      <point x="524" y="153"/>
    </contour>
    <contour>
      <point x="421" y="32" type="curve" smooth="yes"/>
      <point x="593" y="32"/>
      <point x="742" y="165"/>
      <point x="742" y="359" type="curve" smooth="yes"/>
      <point x="742" y="550"/>
      <point x="598" y="683"/>
      <point x="423" y="683" type="curve" smooth="yes"/>
      <point x="245" y="683"/>
      <point x="102" y="549"/>
      <point x="102" y="357" type="curve" smooth="yes"/>
      <point x="102" y="163"/>
      <point x="251" y="32"/>
    </contour>
    <contour>
      <point x="421" y="-13" type="curve" smooth="yes"/>
      <point x="214" y="-13"/>
      <point x="48" y="147"/>
      <point x="48" y="357" type="curve" smooth="yes"/>
      <point x="48" y="564"/>
      <point x="213" y="728"/>
      <point x="423" y="728" type="curve" smooth="yes"/>
      <point x="635" y="728"/>
      <point x="796" y="565"/>
      <point x="796" y="359" type="curve" smooth="yes"/>
      <point x="796" y="148"/>
      <point x="630" y="-13"/>
    </contour>
  </outline>
</glyph>
<glyph name="ordfeminine" format="2">
  <advance width="444"/>
  <unicode hex="00AA"/>
  <outline>
    <contour>
      <point x="169" y="289" type="curve" smooth="yes"/>
      <point x="93" y="289"/>
      <point x="29" y="326"/>
      <point x="29" y="413" type="curve" smooth="yes"/>
      <point x="29" y="511"/>
      <point x="119" y="545"/>
      <point x="244" y="545" type="curve" smooth="yes"/>
      <point x="295" y="545" type="line"/>
      <point x="295" y="567" type="line" smooth="yes"/>
      <point x="295" y="617"/>
      <point x="276" y="643"/>
      <point x="225" y="643" type="curve" smooth="yes"/>
      <point x="178" y="643"/>
      <point x="156" y="619"/>
      <point x="150" y="584" type="curve"/>
      <point x="46" y="584" type="line"/>
      <point x="53" y="680"/>
      <point x="130" y="724"/>
      <point x="230" y="724" type="curve" smooth="yes"/>
      <point x="331" y="724"/>
      <point x="403" y="683"/>
      <point x="403" y="569" type="curve" smooth="yes"/>
      <point x="403" y="298" type="line"/>
      <point x="296" y="298" type="line"/>
      <point x="296" y="348" type="line"/>
      <point x="272" y="314"/>
      <point x="234" y="289"/>
    </contour>
    <contour>
      <point x="200" y="368" type="curve" smooth="yes"/>
      <point x="254" y="368"/>
      <point x="295" y="395"/>
      <point x="295" y="444" type="curve" smooth="yes"/>
      <point x="295" y="481" type="line"/>
      <point x="247" y="481" type="line" smooth="yes"/>
      <point x="180" y="481"/>
      <point x="138" y="465"/>
      <point x="138" y="420" type="curve" smooth="yes"/>
      <point x="138" y="387"/>
      <point x="156" y="368"/>
    </contour>
  </outline>
</glyph>
<glyph name="guillemotleft" format="2">
  <advance width="492"/>
  <unicode hex="00AB"/>
  <outline>
    <contour>
      <point x="176" y="78" type="line"/>
      <point x="48" y="261" type="line"/>
      <point x="176" y="444" type="line"/>
      <point x="271" y="444" type="line"/>
      <point x="148" y="261" type="line"/>
      <point x="271" y="78" type="line"/>
    </contour>
    <contour>
      <point x="355" y="78" type="line"/>
      <point x="227" y="261" type="line"/>
      <point x="355" y="444" type="line"/>
      <point x="450" y="444" type="line"/>
      <point x="327" y="261" type="line"/>
      <point x="450" y="78" type="line"/>
    </contour>
  </outline>
</glyph>
<glyph name="registered" format="2">
  <advance width="515"/>
  <unicode hex="00AE"/>
  <outline>
    <contour>
      <point x="178" y="396" type="line"/>
      <point x="178" y="615" type="line"/>
      <point x="260" y="615" type="line" smooth="yes"/>
      <point x="314" y="615"/>
      <point x="347" y="593"/>
      <point x="347" y="547" type="curve" smooth="yes"/>
      <point x="347" y="546" type="line" smooth="yes"/>
      <point x="347" y="514"/>
      <point x="329" y="496"/>
      <point x="305" y="487" type="curve"/>
      <point x="360" y="396" type="line"/>
      <point x="301" y="396" type="line"/>
      <point x="253" y="477" type="line"/>
      <point x="234" y="477" type="line"/>
      <point x="234" y="396" type="line"/>
    </contour>
    <contour>
      <point x="234" y="515" type="line"/>
      <point x="258" y="515" type="line" smooth="yes"/>
      <point x="280" y="515"/>
      <point x="292" y="524"/>
      <point x="292" y="543" type="curve" smooth="yes"/>
      <point x="292" y="544" type="line" smooth="yes"/>
      <point x="292" y="565"/>
      <point x="279" y="572"/>
      <point x="258" y="572" type="curve" smooth="yes"/>
      <point x="234" y="572" type="line"/>
    </contour>
    <contour>
      <point x="258" y="319" type="curve" smooth="yes"/>
      <point x="361" y="319"/>
      <point x="441" y="394"/>
      <point x="441" y="503" type="curve" smooth="yes"/>
      <point x="441" y="612"/>
      <point x="364" y="687"/>
      <point x="258" y="687" type="curve" smooth="yes"/>
      <point x="151" y="687"/>
      <point x="74" y="611"/>
      <point x="74" y="502" type="curve" smooth="yes"/>
      <point x="74" y="392"/>
      <point x="155" y="319"/>
    </contour>
    <contour>
      <point x="258" y="281" type="curve" smooth="yes"/>
      <point x="133" y="281"/>
      <point x="33" y="377"/>
      <point x="33" y="502" type="curve" smooth="yes"/>
      <point x="33" y="625"/>
      <point x="132" y="725"/>
      <point x="258" y="725" type="curve" smooth="yes"/>
      <point x="385" y="725"/>
      <point x="482" y="626"/>
      <point x="482" y="503" type="curve" smooth="yes"/>
      <point x="482" y="378"/>
      <point x="383" y="281"/>
    </contour>
  </outline>
</glyph>
<glyph name="macron" format="2">
  <advance width="400"/>
  <unicode hex="00AF"/>
  <outline>
    <contour>
      <point x="60" y="634" type="line"/>
      <point x="60" y="712" type="line"/>
      <point x="340" y="712" type="line"/>
      <point x="340" y="634" type="line"/>
    </contour>
  </outline>
</glyph>
<glyph name="degree" format="2">
  <advance width="437"/>
  <unicode hex="00B0"/>
  <outline>
    <contour>
      <point x="219" y="459" type="curve" smooth="yes"/>
      <point x="272" y="459"/>
      <point x="309" y="503"/>
      <point x="309" y="559" type="curve" smooth="yes"/>
      <point x="309" y="617"/>
      <point x="272" y="661"/>
      <point x="219" y="661" type="curve" smooth="yes"/>
      <point x="165" y="661"/>
      <point x="126" y="617"/>
      <point x="126" y="559" type="curve" smooth="yes"/>
      <point x="126" y="503"/>
      <point x="165" y="459"/>
    </contour>
    <contour>
      <point x="219" y="396" type="curve" smooth="yes"/>
      <point x="125" y="396"/>
      <point x="50" y="470"/>
      <point x="50" y="559" type="curve" smooth="yes"/>
      <point x="50" y="650"/>
      <point x="125" y="724"/>
      <point x="219" y="724" type="curve" smooth="yes"/>
      <point x="312" y="724"/>
      <point x="387" y="650"/>
      <point x="387" y="559" type="curve" smooth="yes"/>
      <point x="387" y="470"/>
      <point x="312" y="396"/>
    </contour>
  </outline>
</glyph>
<glyph name="plusminus" format="2">
  <advance width="539"/>
  <unicode hex="00B1"/>
  <outline>
    <contour>
      <point x="219" y="157" type="line"/>
      <point x="219" y="332" type="line"/>
      <point x="37" y="332" type="line"/>
      <point x="37" y="426" type="line"/>
      <point x="219" y="426" type="line"/>
      <point x="219" y="602" type="line"/>
      <point x="320" y="602" type="line"/>
      <point x="320" y="426" type="line"/>
      <point x="503" y="426" type="line"/>
      <point x="503" y="332" type="line"/>
      <point x="320" y="332" type="line"/>
      <point x="320" y="157" type="line"/>
    </contour>
    <contour>
      <point x="37" y="0" type="line"/>
      <point x="37" y="89" type="line"/>
      <point x="504" y="89" type="line"/>
      <point x="504" y="0" type="line"/>
    </contour>
  </outline>
</glyph>
<glyph name="threesuperior" format="2">
  <advance width="336"/>
  <unicode hex="00B3"/>
  <outline>
    <contour>
      <point x="166" y="354" type="curve" smooth="yes"/>
      <point x="68" y="354"/>
      <point x="22" y="403"/>
      <point x="20" y="474" type="curve"/>
      <point x="103" y="474" type="line"/>
      <point x="106" y="443"/>
      <point x="123" y="420"/>
      <point x="161" y="420" type="curve" smooth="yes"/>
      <point x="197" y="420"/>
      <point x="215" y="438"/>
      <point x="215" y="467" type="curve" smooth="yes"/>
      <point x="215" y="497"/>
      <point x="197" y="512"/>
      <point x="161" y="512" type="curve" smooth="yes"/>
      <point x="133" y="512" type="line"/>
      <point x="133" y="570" type="line"/>
      <point x="160" y="570" type="line" smooth="yes"/>
      <point x="196" y="570"/>
      <point x="212" y="586"/>
      <point x="212" y="613" type="curve" smooth="yes"/>
      <point x="212" y="637"/>
      <point x="197" y="653"/>
      <point x="167" y="653" type="curve" smooth="yes"/>
      <point x="137" y="653"/>
      <point x="117" y="635"/>
      <point x="113" y="605" type="curve"/>
      <point x="30" y="605" type="line"/>
      <point x="35" y="671"/>
      <point x="84" y="720"/>
      <point x="169" y="720" type="curve" smooth="yes"/>
      <point x="252" y="720"/>
      <point x="300" y="680"/>
      <point x="300" y="623" type="curve" smooth="yes"/>
      <point x="300" y="583"/>
      <point x="276" y="558"/>
      <point x="239" y="546" type="curve"/>
      <point x="280" y="538"/>
      <point x="309" y="509"/>
      <point x="309" y="464" type="curve" smooth="yes"/>
      <point x="309" y="397"/>
      <point x="257" y="354"/>
    </contour>
  </outline>
</glyph>
<glyph name="paragraph" format="2">
  <advance width="573"/>
  <unicode hex="00B6"/>
  <outline>
    <contour>
      <point x="268" y="-100" type="line"/>
      <point x="268" y="339" type="line"/>
      <point x="257" y="339" type="line" smooth="yes"/>
      <point x="127" y="339"/>
      <point x="38" y="400"/>
      <point x="38" y="524" type="curve" smooth="yes"/>
      <point x="38" y="653"/>
      <point x="131" y="715"/>
      <point x="257" y="715" type="curve" smooth="yes"/>
      <point x="489" y="715" type="line"/>
      <point x="489" y="-100" type="line"/>
      <point x="417" y="-100" type="line"/>
      <point x="417" y="655" type="line"/>
      <point x="339" y="655" type="line"/>
      <point x="339" y="-100" type="line"/>
    </contour>
  </outline>
</glyph>
<glyph name="periodcentered" format="2">
  <advance width="289"/>
  <unicode hex="00B7"/>
  <outline>
    <contour>
      <point x="144" y="248" type="curve" smooth="yes"/>
      <point x="100" y="248"/>
      <point x="65" y="283"/>
      <point x="65" y="327" type="curve" smooth="yes"/>
      <point x="65" y="371"/>
      <point x="100" y="405"/>
      <point x="144" y="405" type="curve" smooth="yes"/>
      <point x="189" y="405"/>
      <point x="224" y="371"/>
      <point x="224" y="327" type="curve" smooth="yes"/>
      <point x="224" y="283"/>
      <point x="189" y="248"/>
    </contour>
  </outline>
</glyph>
<glyph name="cedilla" format="2">
  <advance width="400"/>
  <unicode hex="00B8"/>
  <outline>
    <contour>
      <point x="206" y="-219" type="curve" smooth="yes"/>
      <point x="143" y="-219"/>
      <point x="102" y="-185"/>
      <point x="96" y="-131" type="curve"/>
      <point x="162" y="-131" type="line"/>
      <point x="165" y="-148"/>
      <point x="178" y="-164"/>
      <point x="202" y="-164" type="curve" smooth="yes"/>
      <point x="225" y="-164"/>
      <point x="239" y="-150"/>
      <point x="239" y="-130" type="curve" smooth="yes"/>
      <point x="239" y="-111"/>
      <point x="225" y="-98"/>
      <point x="204" y="-98" type="curve" smooth="yes"/>
      <point x="190" y="-98"/>
      <point x="180" y="-103"/>
      <point x="174" y="-107" type="curve"/>
      <point x="140" y="-75" type="line"/>
      <point x="184" y="0" type="line"/>
      <point x="244" y="0" type="line"/>
      <point x="215" y="-50" type="line"/>
      <point x="265" y="-44"/>
      <point x="315" y="-70"/>
      <point x="315" y="-133" type="curve" smooth="yes"/>
      <point x="315" y="-189"/>
      <point x="268" y="-219"/>
    </contour>
  </outline>
</glyph>
<glyph name="onesuperior" format="2">
  <advance width="253"/>
  <unicode hex="00B9"/>
  <outline>
    <contour>
      <point x="104" y="360" type="line"/>
      <point x="104" y="625" type="line"/>
      <point x="22" y="574" type="line"/>
      <point x="22" y="652" type="line"/>
      <point x="116" y="715" type="line"/>
      <point x="198" y="715" type="line"/>
      <point x="198" y="360" type="line"/>
    </contour>
  </outline>
</glyph>
<glyph name="ordmasculine" format="2">
  <advance width="504"/>
  <unicode hex="00BA"/>
  <outline>
    <contour>
      <point x="253" y="374" type="curve" smooth="yes"/>
      <point x="320" y="374"/>
      <point x="357" y="424"/>
      <point x="357" y="504" type="curve" smooth="yes"/>
      <point x="357" y="510" type="line" smooth="yes"/>
      <point x="357" y="590"/>
      <point x="319" y="639"/>
      <point x="253" y="639" type="curve" smooth="yes"/>
      <point x="187" y="639"/>
      <point x="147" y="591"/>
      <point x="147" y="510" type="curve" smooth="yes"/>
      <point x="147" y="504" type="line" smooth="yes"/>
      <point x="147" y="423"/>
      <point x="185" y="374"/>
    </contour>
    <contour>
      <point x="252" y="289" type="curve" smooth="yes"/>
      <point x="127" y="289"/>
      <point x="34" y="373"/>
      <point x="34" y="501" type="curve" smooth="yes"/>
      <point x="34" y="507" type="line" smooth="yes"/>
      <point x="34" y="639"/>
      <point x="128" y="724"/>
      <point x="253" y="724" type="curve" smooth="yes"/>
      <point x="377" y="724"/>
      <point x="470" y="640"/>
      <point x="470" y="511" type="curve" smooth="yes"/>
      <point x="470" y="505" type="line" smooth="yes"/>
      <point x="470" y="373"/>
      <point x="376" y="289"/>
    </contour>
  </outline>
</glyph>
<glyph name="guillemotright" format="2">
  <advance width="492"/>
  <unicode hex="00BB"/>
  <outline>
    <contour>
      <point x="43" y="78" type="line"/>
      <point x="166" y="261" type="line"/>
      <point x="43" y="444" type="line"/>
      <point x="138" y="444" type="line"/>
      <point x="266" y="261" type="line"/>
      <point x="138" y="78" type="line"/>
    </contour>
    <contour>
      <point x="221" y="78" type="line"/>
      <point x="344" y="261" type="line"/>
      <point x="221" y="444" type="line"/>
      <point x="316" y="444" type="line"/>
      <point x="444" y="261" type="line"/>
      <point x="316" y="78" type="line"/>
    </contour>
  </outline>
</glyph>
<glyph name="onequarter" format="2">
  <advance width="724"/>
  <unicode hex="00BC"/>
  <outline>
    <contour>
      <point x="107" y="360" type="line"/>
      <point x="107" y="625" type="line"/>
      <point x="25" y="574" type="line"/>
      <point x="25" y="652" type="line"/>
      <point x="119" y="715" type="line"/>
      <point x="201" y="715" type="line"/>
      <point x="201" y="360" type="line"/>
    </contour>
    <contour>
      <point x="55" y="0" type="line"/>
      <point x="583" y="715" type="line"/>
      <point x="660" y="715" type="line"/>
      <point x="132" y="0" type="line"/>
    </contour>
    <contour>
      <point x="566" y="0" type="line"/>
      <point x="566" y="69" type="line"/>
      <point x="388" y="69" type="line"/>
      <point x="388" y="103" type="line"/>
      <point x="542" y="355" type="line"/>
      <point x="655" y="355" type="line"/>
      <point x="655" y="133" type="line"/>
      <point x="701" y="133" type="line"/>
      <point x="701" y="69" type="line"/>
      <point x="655" y="69" type="line"/>
      <point x="655" y="0" type="line"/>
    </contour>
    <contour>
      <point x="477" y="133" type="line"/>
      <point x="568" y="133" type="line"/>
      <point x="568" y="290" type="line"/>
    </contour>
  </outline>
</glyph>
<glyph name="onehalf" format="2">
  <advance width="728"/>
  <unicode hex="00BD"/>
  <outline>
    <contour>
      <point x="42" y="0" type="line"/>
      <point x="570" y="715" type="line"/>
      <point x="647" y="715" type="line"/>
      <point x="119" y="0" type="line"/>
    </contour>
    <contour>
      <point x="107" y="360" type="line"/>
      <point x="107" y="625" type="line"/>
      <point x="25" y="574" type="line"/>
      <point x="25" y="652" type="line"/>
      <point x="119" y="715" type="line"/>
      <point x="201" y="715" type="line"/>
      <point x="201" y="360" type="line"/>
    </contour>
    <contour>
      <point x="418" y="0" type="line"/>
      <point x="418" y="13" type="line"/>
      <point x="546" y="148" type="line" smooth="yes"/>
      <point x="582" y="185"/>
      <point x="605" y="216"/>
      <point x="605" y="247" type="curve" smooth="yes"/>
      <point x="605" y="274"/>
      <point x="591" y="290"/>
      <point x="563" y="290" type="curve" smooth="yes"/>
      <point x="534" y="290"/>
      <point x="516" y="272"/>
      <point x="511" y="229" type="curve"/>
      <point x="426" y="229" type="line"/>
      <point x="430" y="314"/>
      <point x="483" y="360"/>
      <point x="567" y="360" type="curve" smooth="yes"/>
      <point x="652" y="360"/>
      <point x="696" y="315"/>
      <point x="696" y="251" type="curve" smooth="yes"/>
      <point x="696" y="204"/>
      <point x="668" y="165"/>
      <point x="626" y="125" type="curve" smooth="yes"/>
      <point x="568" y="68" type="line"/>
      <point x="699" y="68" type="line"/>
      <point x="699" y="0" type="line"/>
    </contour>
  </outline>
</glyph>
<glyph name="threequarters" format="2">
  <advance width="738"/>
  <unicode hex="00BE"/>
  <outline>
    <contour>
      <point x="169" y="354" type="curve" smooth="yes"/>
      <point x="71" y="354"/>
      <point x="25" y="403"/>
      <point x="23" y="474" type="curve"/>
      <point x="106" y="474" type="line"/>
      <point x="109" y="443"/>
      <point x="126" y="420"/>
      <point x="164" y="420" type="curve" smooth="yes"/>
      <point x="200" y="420"/>
      <point x="218" y="438"/>
      <point x="218" y="467" type="curve" smooth="yes"/>
      <point x="218" y="497"/>
      <point x="200" y="512"/>
      <point x="164" y="512" type="curve" smooth="yes"/>
      <point x="136" y="512" type="line"/>
      <point x="136" y="570" type="line"/>
      <point x="163" y="570" type="line" smooth="yes"/>
      <point x="199" y="570"/>
      <point x="215" y="586"/>
      <point x="215" y="613" type="curve" smooth="yes"/>
      <point x="215" y="637"/>
      <point x="200" y="653"/>
      <point x="170" y="653" type="curve" smooth="yes"/>
      <point x="140" y="653"/>
      <point x="120" y="635"/>
      <point x="116" y="605" type="curve"/>
      <point x="33" y="605" type="line"/>
      <point x="38" y="671"/>
      <point x="87" y="720"/>
      <point x="172" y="720" type="curve" smooth="yes"/>
      <point x="255" y="720"/>
      <point x="303" y="680"/>
      <point x="303" y="623" type="curve" smooth="yes"/>
      <point x="303" y="583"/>
      <point x="279" y="558"/>
      <point x="242" y="546" type="curve"/>
      <point x="283" y="538"/>
      <point x="312" y="509"/>
      <point x="312" y="464" type="curve" smooth="yes"/>
      <point x="312" y="397"/>
      <point x="260" y="354"/>
    </contour>
    <contour>
      <point x="96" y="0" type="line"/>
      <point x="624" y="715" type="line"/>
      <point x="701" y="715" type="line"/>
      <point x="173" y="0" type="line"/>
    </contour>
    <contour>
      <point x="577" y="0" type="line"/>
      <point x="577" y="69" type="line"/>
      <point x="399" y="69" type="line"/>
      <point x="399" y="103" type="line"/>
      <point x="553" y="355" type="line"/>
      <point x="666" y="355" type="line"/>
      <point x="666" y="133" type="line"/>
      <point x="712" y="133" type="line"/>
      <point x="712" y="69" type="line"/>
      <point x="666" y="69" type="line"/>
      <point x="666" y="0" type="line"/>
    </contour>
    <contour>
      <point x="488" y="133" type="line"/>
      <point x="579" y="133" type="line"/>
      <point x="579" y="290" type="line"/>
    </contour>
  </outline>
</glyph>
<glyph name="questiondown" format="2">
  <advance width="516"/>
  <unicode hex="00BF"/>
  <outline>
    <contour>
      <point x="340" y="383" type="line"/>
      <point x="340" y="345" type="line" smooth="yes"/>
      <point x="340" y="266"/>
      <point x="288" y="217"/>
      <point x="240" y="170" type="curve" smooth="yes"/>
      <point x="202" y="134"/>
      <point x="170" y="100"/>
      <point x="170" y="57" type="curve" smooth="yes"/>
      <point x="170" y="6"/>
      <point x="197" y="-27"/>
      <point x="258" y="-27" type="curve" smooth="yes"/>
      <point x="321" y="-27"/>
      <point x="363" y="17"/>
      <point x="370" y="86" type="curve"/>
      <point x="486" y="86" type="line"/>
      <point x="480" y="-44"/>
      <point x="387" y="-126"/>
      <point x="252" y="-126" type="curve" smooth="yes"/>
      <point x="109" y="-126"/>
      <point x="42" y="-49"/>
      <point x="42" y="49" type="curve" smooth="yes"/>
      <point x="42" y="119"/>
      <point x="85" y="165"/>
      <point x="130" y="209" type="curve" smooth="yes"/>
      <point x="177" y="254"/>
      <point x="225" y="295"/>
      <point x="229" y="351" type="curve"/>
      <point x="229" y="383" type="line"/>
    </contour>
    <contour>
      <point x="286" y="606" type="curve" smooth="yes"/>
      <point x="331" y="606"/>
      <point x="367" y="571"/>
      <point x="367" y="528" type="curve" smooth="yes"/>
      <point x="367" y="484"/>
      <point x="331" y="450"/>
      <point x="286" y="450" type="curve" smooth="yes"/>
      <point x="242" y="450"/>
      <point x="205" y="484"/>
      <point x="205" y="528" type="curve" smooth="yes"/>
      <point x="205" y="571"/>
      <point x="242" y="606"/>
    </contour>
  </outline>
</glyph>
<glyph name="Atilde" format="2">
  <advance width="703"/>
  <unicode hex="00C3"/>
  <outline>
    <contour>
      <point x="27" y="0" type="line"/>
      <point x="266" y="715" type="line"/>
      <point x="440" y="715" type="line"/>
      <point x="676" y="0" type="line"/>
      <point x="538" y="0" type="line"/>
      <point x="481" y="177" type="line"/>
      <point x="208" y="177" type="line"/>
      <point x="152" y="0" type="line"/>
    </contour>
    <contour>
      <point x="345" y="606" type="line"/>
      <point x="239" y="274" type="line"/>
      <point x="450" y="274" type="line"/>
    </contour>
    <contour>
      <point x="408" y="768" type="curve" smooth="yes"/>
      <point x="360" y="768"/>
      <point x="325" y="807"/>
      <point x="296" y="807" type="curve" smooth="yes"/>
      <point x="278" y="807"/>
      <point x="263" y="790"/>
      <point x="259" y="767" type="curve"/>
      <point x="183" y="767" type="line"/>
      <point x="190" y="851"/>
      <point x="236" y="898"/>
      <point x="292" y="898" type="curve" smooth="yes"/>
      <point x="338" y="898"/>
      <point x="374" y="858"/>
      <point x="405" y="858" type="curve" smooth="yes"/>
      <point x="423" y="858"/>
      <point x="437" y="875"/>
      <point x="441" y="898" type="curve"/>
      <point x="518" y="898" type="line"/>
      <point x="510" y="814"/>
      <point x="463" y="768"/>
    </contour>
  </outline>
</glyph>
<glyph name="Adieresis" format="2">
  <advance width="703"/>
  <unicode hex="00C4"/>
  <outline>
    <contour>
      <point x="27" y="0" type="line"/>
      <point x="266" y="715" type="line"/>
      <point x="440" y="715" type="line"/>
      <point x="676" y="0" type="line"/>
      <point x="538" y="0" type="line"/>
      <point x="481" y="177" type="line"/>
      <point x="208" y="177" type="line"/>
      <point x="152" y="0" type="line"/>
    </contour>
    <contour>
      <point x="345" y="606" type="line"/>
      <point x="239" y="274" type="line"/>
      <point x="450" y="274" type="line"/>
    </contour>
    <contour>
      <point x="244" y="777" type="curve" smooth="yes"/>
      <point x="208" y="777"/>
      <point x="178" y="806"/>
      <point x="178" y="842" type="curve" smooth="yes"/>
      <point x="178" y="878"/>
      <point x="208" y="907"/>
      <point x="244" y="907" type="curve" smooth="yes"/>
      <point x="280" y="907"/>
      <point x="310" y="878"/>
      <point x="310" y="842" type="curve" smooth="yes"/>
      <point x="310" y="806"/>
      <point x="280" y="777"/>
    </contour>
    <contour>
      <point x="455" y="777" type="curve" smooth="yes"/>
      <point x="419" y="777"/>
      <point x="389" y="806"/>
      <point x="389" y="842" type="curve" smooth="yes"/>
      <point x="389" y="878"/>
      <point x="419" y="907"/>
      <point x="455" y="907" type="curve" smooth="yes"/>
      <point x="491" y="907"/>
      <point x="521" y="878"/>
      <point x="521" y="842" type="curve" smooth="yes"/>
      <point x="521" y="806"/>
      <point x="491" y="777"/>
    </contour>
  </outline>
</glyph>
<glyph name="Aring" format="2">
  <advance width="703"/>
  <unicode hex="00C5"/>
  <outline>
    <contour>
      <point x="27" y="0" type="line"/>
      <point x="266" y="715" type="line"/>
      <point x="440" y="715" type="line"/>
      <point x="676" y="0" type="line"/>
      <point x="538" y="0" type="line"/>
      <point x="481" y="177" type="line"/>
      <point x="208" y="177" type="line"/>
      <point x="152" y="0" type="line"/>
    </contour>
    <contour>
      <point x="350" y="753" type="curve" smooth="yes"/>
      <point x="288" y="753"/>
      <point x="238" y="802"/>
      <point x="238" y="862" type="curve" smooth="yes"/>
      <point x="238" y="922"/>
      <point x="288" y="971"/>
      <point x="350" y="971" type="curve" smooth="yes"/>
      <point x="412" y="971"/>
      <point x="462" y="922"/>
      <point x="462" y="862" type="curve" smooth="yes"/>
      <point x="462" y="802"/>
      <point x="412" y="753"/>
    </contour>
    <contour>
      <point x="345" y="606" type="line"/>
      <point x="239" y="274" type="line"/>
      <point x="450" y="274" type="line"/>
    </contour>
    <contour>
      <point x="350" y="807" type="curve" smooth="yes"/>
      <point x="379" y="807"/>
      <point x="400" y="830"/>
      <point x="400" y="862" type="curve" smooth="yes"/>
      <point x="400" y="894"/>
      <point x="379" y="917"/>
      <point x="350" y="917" type="curve" smooth="yes"/>
      <point x="320" y="917"/>
      <point x="300" y="894"/>
      <point x="300" y="862" type="curve" smooth="yes"/>
      <point x="300" y="830"/>
      <point x="320" y="807"/>
    </contour>
  </outline>
</glyph>
<glyph name="AE" format="2">
  <advance width="971"/>
  <unicode hex="00C6"/>
  <outline>
    <contour>
      <point x="22" y="0" type="line"/>
      <point x="373" y="715" type="line"/>
      <point x="916" y="715" type="line"/>
      <point x="916" y="610" type="line"/>
      <point x="604" y="610" type="line"/>
      <point x="604" y="414" type="line"/>
      <point x="854" y="414" type="line"/>
      <point x="854" y="314" type="line"/>
      <point x="604" y="314" type="line"/>
      <point x="604" y="105" type="line"/>
      <point x="933" y="105" type="line"/>
      <point x="933" y="0" type="line"/>
      <point x="471" y="0" type="line"/>
      <point x="471" y="183" type="line"/>
      <point x="239" y="183" type="line"/>
      <point x="152" y="0" type="line"/>
    </contour>
    <contour>
      <point x="444" y="610" type="line"/>
      <point x="285" y="278" type="line"/>
      <point x="471" y="278" type="line"/>
      <point x="471" y="610" type="line"/>
    </contour>
  </outline>
</glyph>
<glyph name="Ccedilla" format="2">
  <advance width="741"/>
  <unicode hex="00C7"/>
  <outline>
    <contour>
      <point x="380" y="-219" type="curve" smooth="yes"/>
      <point x="317" y="-219"/>
      <point x="276" y="-185"/>
      <point x="270" y="-131" type="curve"/>
      <point x="336" y="-131" type="line"/>
      <point x="339" y="-148"/>
      <point x="352" y="-164"/>
      <point x="376" y="-164" type="curve" smooth="yes"/>
      <point x="399" y="-164"/>
      <point x="413" y="-150"/>
      <point x="413" y="-130" type="curve" smooth="yes"/>
      <point x="413" y="-111"/>
      <point x="399" y="-98"/>
      <point x="378" y="-98" type="curve" smooth="yes"/>
      <point x="364" y="-98"/>
      <point x="354" y="-103"/>
      <point x="348" y="-107" type="curve"/>
      <point x="314" y="-75" type="line"/>
      <point x="353" y="-8" type="line"/>
      <point x="155" y="9"/>
      <point x="46" y="147"/>
      <point x="46" y="353" type="curve" smooth="yes"/>
      <point x="46" y="361" type="line" smooth="yes"/>
      <point x="46" y="576"/>
      <point x="194" y="726"/>
      <point x="393" y="726" type="curve" smooth="yes"/>
      <point x="557" y="726"/>
      <point x="684" y="644"/>
      <point x="700" y="476" type="curve"/>
      <point x="565" y="476" type="line"/>
      <point x="550" y="571"/>
      <point x="497" y="620"/>
      <point x="394" y="620" type="curve" smooth="yes"/>
      <point x="268" y="620"/>
      <point x="186" y="522"/>
      <point x="186" y="362" type="curve" smooth="yes"/>
      <point x="186" y="354" type="line" smooth="yes"/>
      <point x="186" y="193"/>
      <point x="263" y="98"/>
      <point x="395" y="98" type="curve" smooth="yes"/>
      <point x="494" y="98"/>
      <point x="564" y="148"/>
      <point x="578" y="249" type="curve"/>
      <point x="708" y="249" type="line"/>
      <point x="687" y="83"/>
      <point x="573" y="-4"/>
      <point x="412" y="-10" type="curve"/>
      <point x="389" y="-50" type="line"/>
      <point x="439" y="-44"/>
      <point x="489" y="-70"/>
      <point x="489" y="-133" type="curve" smooth="yes"/>
      <point x="489" y="-189"/>
      <point x="442" y="-219"/>
    </contour>
  </outline>
</glyph>
<glyph name="Ecircumflex" format="2">
  <advance width="584"/>
  <unicode hex="00CA"/>
  <outline>
    <contour>
      <point x="151" y="766" type="line"/>
      <point x="262" y="901" type="line"/>
      <point x="366" y="901" type="line"/>
      <point x="474" y="766" type="line"/>
      <point x="386" y="766" type="line"/>
      <point x="312" y="821" type="line"/>
      <point x="237" y="766" type="line"/>
    </contour>
    <contour>
      <point x="82" y="0" type="line"/>
      <point x="82" y="715" type="line"/>
      <point x="529" y="715" type="line"/>
      <point x="529" y="610" type="line"/>
      <point x="215" y="610" type="line"/>
      <point x="215" y="414" type="line"/>
      <point x="467" y="414" type="line"/>
      <point x="467" y="314" type="line"/>
      <point x="215" y="314" type="line"/>
      <point x="215" y="105" type="line"/>
      <point x="546" y="105" type="line"/>
      <point x="546" y="0" type="line"/>
    </contour>
  </outline>
</glyph>
<glyph name="Edieresis" format="2">
  <advance width="584"/>
  <unicode hex="00CB"/>
  <outline>
    <contour>
      <point x="82" y="0" type="line"/>
      <point x="82" y="715" type="line"/>
      <point x="529" y="715" type="line"/>
      <point x="529" y="610" type="line"/>
      <point x="215" y="610" type="line"/>
      <point x="215" y="414" type="line"/>
      <point x="467" y="414" type="line"/>
      <point x="467" y="314" type="line"/>
      <point x="215" y="314" type="line"/>
      <point x="215" y="105" type="line"/>
      <point x="546" y="105" type="line"/>
      <point x="546" y="0" type="line"/>
    </contour>
    <contour>
      <point x="207" y="777" type="curve" smooth="yes"/>
      <point x="171" y="777"/>
      <point x="141" y="806"/>
      <point x="141" y="842" type="curve" smooth="yes"/>
      <point x="141" y="878"/>
      <point x="171" y="907"/>
      <point x="207" y="907" type="curve" smooth="yes"/>
      <point x="243" y="907"/>
      <point x="273" y="878"/>
      <point x="273" y="842" type="curve" smooth="yes"/>
      <point x="273" y="806"/>
      <point x="243" y="777"/>
    </contour>
    <contour>
      <point x="418" y="777" type="curve" smooth="yes"/>
      <point x="382" y="777"/>
      <point x="352" y="806"/>
      <point x="352" y="842" type="curve" smooth="yes"/>
      <point x="352" y="878"/>
      <point x="382" y="907"/>
      <point x="418" y="907" type="curve" smooth="yes"/>
      <point x="454" y="907"/>
      <point x="484" y="878"/>
      <point x="484" y="842" type="curve" smooth="yes"/>
      <point x="484" y="806"/>
      <point x="454" y="777"/>
    </contour>
  </outline>
</glyph>
<glyph name="Igrave" format="2">
  <advance width="307"/>
  <unicode hex="00CC"/>
  <outline>
    <contour>
      <point x="86" y="0" type="line"/>
      <point x="86" y="715" type="line"/>
      <point x="220" y="715" type="line"/>
      <point x="220" y="0" type="line"/>
    </contour>
    <contour>
      <point x="114" y="766" type="line"/>
      <point x="16" y="901" type="line"/>
      <point x="152" y="901" type="line"/>
      <point x="205" y="766" type="line"/>
    </contour>
  </outline>
</glyph>
<glyph name="Icircumflex" format="2">
  <advance width="307"/>
  <unicode hex="00CE"/>
  <outline>
    <contour>
      <point x="86" y="0" type="line"/>
      <point x="86" y="715" type="line"/>
      <point x="220" y="715" type="line"/>
      <point x="220" y="0" type="line"/>
    </contour>
    <contour>
      <point x="-9" y="766" type="line"/>
      <point x="102" y="901" type="line"/>
      <point x="206" y="901" type="line"/>
      <point x="314" y="766" type="line"/>
      <point x="226" y="766" type="line"/>
      <point x="152" y="821" type="line"/>
      <point x="77" y="766" type="line"/>
    </contour>
  </outline>
</glyph>
<glyph name="Idieresis" format="2">
  <advance width="307"/>
  <unicode hex="00CF"/>
  <outline>
    <contour>
      <point x="86" y="0" type="line"/>
      <point x="86" y="715" type="line"/>
      <point x="220" y="715" type="line"/>
      <point x="220" y="0" type="line"/>
    </contour>
    <contour>
      <point x="47" y="777" type="curve" smooth="yes"/>
      <point x="11" y="777"/>
      <point x="-19" y="806"/>
      <point x="-19" y="842" type="curve" smooth="yes"/>
      <point x="-19" y="878"/>
      <point x="11" y="907"/>
      <point x="47" y="907" type="curve" smooth="yes"/>
      <point x="83" y="907"/>
      <point x="113" y="878"/>
      <point x="113" y="842" type="curve" smooth="yes"/>
      <point x="113" y="806"/>
      <point x="83" y="777"/>
    </contour>
    <contour>
      <point x="258" y="777" type="curve" smooth="yes"/>
      <point x="222" y="777"/>
      <point x="192" y="806"/>
      <point x="192" y="842" type="curve" smooth="yes"/>
      <point x="192" y="878"/>
      <point x="222" y="907"/>
      <point x="258" y="907" type="curve" smooth="yes"/>
      <point x="294" y="907"/>
      <point x="324" y="878"/>
      <point x="324" y="842" type="curve" smooth="yes"/>
      <point x="324" y="806"/>
      <point x="294" y="777"/>
    </contour>
  </outline>
</glyph>
<glyph name="Ntilde" format="2">
  <advance width="745"/>
  <unicode hex="00D1"/>
  <outline>
    <contour>
      <point x="443" y="768" type="curve" smooth="yes"/>
      <point x="395" y="768"/>
      <point x="360" y="807"/>
      <point x="331" y="807" type="curve" smooth="yes"/>
      <point x="313" y="807"/>
      <point x="298" y="790"/>
      <point x="294" y="767" type="curve"/>
      <point x="218" y="767" type="line"/>
      <point x="225" y="851"/>
      <point x="271" y="898"/>
      <point x="327" y="898" type="curve" smooth="yes"/>
      <point x="373" y="898"/>
      <point x="409" y="858"/>
      <point x="440" y="858" type="curve" smooth="yes"/>
      <point x="458" y="858"/>
      <point x="472" y="875"/>
      <point x="476" y="898" type="curve"/>
      <point x="553" y="898" type="line"/>
      <point x="545" y="814"/>
      <point x="498" y="768"/>
    </contour>
    <contour>
      <point x="82" y="0" type="line"/>
      <point x="82" y="715" type="line"/>
      <point x="241" y="715" type="line"/>
      <point x="542" y="198" type="line"/>
      <point x="542" y="715" type="line"/>
      <point x="663" y="715" type="line"/>
      <point x="663" y="0" type="line"/>
      <point x="525" y="0" type="line"/>
      <point x="203" y="548" type="line"/>
      <point x="203" y="0" type="line"/>
    </contour>
  </outline>
</glyph>
<glyph name="Otilde" format="2">
  <advance width="814"/>
  <unicode hex="00D5"/>
  <outline>
    <contour>
      <point x="464" y="768" type="curve" smooth="yes"/>
      <point x="416" y="768"/>
      <point x="381" y="807"/>
      <point x="352" y="807" type="curve" smooth="yes"/>
      <point x="334" y="807"/>
      <point x="319" y="790"/>
      <point x="315" y="767" type="curve"/>
      <point x="239" y="767" type="line"/>
      <point x="246" y="851"/>
      <point x="292" y="898"/>
      <point x="348" y="898" type="curve" smooth="yes"/>
      <point x="394" y="898"/>
      <point x="430" y="858"/>
      <point x="461" y="858" type="curve" smooth="yes"/>
      <point x="479" y="858"/>
      <point x="493" y="875"/>
      <point x="497" y="898" type="curve"/>
      <point x="574" y="898" type="line"/>
      <point x="566" y="814"/>
      <point x="519" y="768"/>
    </contour>
    <contour>
      <point x="410" y="97" type="curve" smooth="yes"/>
      <point x="545" y="97"/>
      <point x="630" y="200"/>
      <point x="630" y="355" type="curve" smooth="yes"/>
      <point x="630" y="363" type="line" smooth="yes"/>
      <point x="630" y="510"/>
      <point x="548" y="619"/>
      <point x="408" y="619" type="curve" smooth="yes"/>
      <point x="268" y="619"/>
      <point x="185" y="516"/>
      <point x="185" y="362" type="curve" smooth="yes"/>
      <point x="185" y="354" type="line" smooth="yes"/>
      <point x="185" y="198"/>
      <point x="280" y="97"/>
    </contour>
    <contour>
      <point x="408" y="-10" type="curve" smooth="yes"/>
      <point x="189" y="-10"/>
      <point x="46" y="147"/>
      <point x="46" y="353" type="curve" smooth="yes"/>
      <point x="46" y="361" type="line" smooth="yes"/>
      <point x="46" y="570"/>
      <point x="196" y="725"/>
      <point x="408" y="725" type="curve" smooth="yes"/>
      <point x="621" y="725"/>
      <point x="768" y="574"/>
      <point x="768" y="364" type="curve" smooth="yes"/>
      <point x="768" y="356" type="line" smooth="yes"/>
      <point x="768" y="147"/>
      <point x="625" y="-10"/>
    </contour>
  </outline>
</glyph>
<glyph name="Odieresis" format="2">
  <advance width="814"/>
  <unicode hex="00D6"/>
  <outline>
    <contour>
      <point x="300" y="777" type="curve" smooth="yes"/>
      <point x="264" y="777"/>
      <point x="234" y="806"/>
      <point x="234" y="842" type="curve" smooth="yes"/>
      <point x="234" y="878"/>
      <point x="264" y="907"/>
      <point x="300" y="907" type="curve" smooth="yes"/>
      <point x="336" y="907"/>
      <point x="366" y="878"/>
      <point x="366" y="842" type="curve" smooth="yes"/>
      <point x="366" y="806"/>
      <point x="336" y="777"/>
    </contour>
    <contour>
      <point x="511" y="777" type="curve" smooth="yes"/>
      <point x="475" y="777"/>
      <point x="445" y="806"/>
      <point x="445" y="842" type="curve" smooth="yes"/>
      <point x="445" y="878"/>
      <point x="475" y="907"/>
      <point x="511" y="907" type="curve" smooth="yes"/>
      <point x="547" y="907"/>
      <point x="577" y="878"/>
      <point x="577" y="842" type="curve" smooth="yes"/>
      <point x="577" y="806"/>
      <point x="547" y="777"/>
    </contour>
    <contour>
      <point x="410" y="97" type="curve" smooth="yes"/>
      <point x="545" y="97"/>
      <point x="630" y="200"/>
      <point x="630" y="355" type="curve" smooth="yes"/>
      <point x="630" y="363" type="line" smooth="yes"/>
      <point x="630" y="510"/>
      <point x="548" y="619"/>
      <point x="408" y="619" type="curve" smooth="yes"/>
      <point x="268" y="619"/>
      <point x="185" y="516"/>
      <point x="185" y="362" type="curve" smooth="yes"/>
      <point x="185" y="354" type="line" smooth="yes"/>
      <point x="185" y="198"/>
      <point x="280" y="97"/>
    </contour>
    <contour>
      <point x="408" y="-10" type="curve" smooth="yes"/>
      <point x="189" y="-10"/>
      <point x="46" y="147"/>
      <point x="46" y="353" type="curve" smooth="yes"/>
      <point x="46" y="361" type="line" smooth="yes"/>
      <point x="46" y="570"/>
      <point x="196" y="725"/>
      <point x="408" y="725" type="curve" smooth="yes"/>
      <point x="621" y="725"/>
      <point x="768" y="574"/>
      <point x="768" y="364" type="curve" smooth="yes"/>
      <point x="768" y="356" type="line" smooth="yes"/>
      <point x="768" y="147"/>
      <point x="625" y="-10"/>
    </contour>
  </outline>
</glyph>
<glyph name="multiply" format="2">
  <advance width="509"/>
  <unicode hex="00D7"/>
  <outline>
    <contour>
      <point x="101" y="115" type="line"/>
      <point x="35" y="181" type="line"/>
      <point x="189" y="334" type="line"/>
      <point x="34" y="488" type="line"/>
      <point x="100" y="555" type="line"/>
      <point x="254" y="400" type="line"/>
      <point x="408" y="554" type="line"/>
      <point x="474" y="488" type="line"/>
      <point x="320" y="334" type="line"/>
      <point x="475" y="180" type="line"/>
      <point x="408" y="114" type="line"/>
      <point x="254" y="269" type="line"/>
    </contour>
  </outline>
</glyph>
<glyph name="Udieresis" format="2">
  <advance width="723"/>
  <unicode hex="00DC"/>
  <outline>
    <contour>
      <point x="357" y="-10" type="curve" smooth="yes"/>
      <point x="178" y="-10"/>
      <point x="76" y="88"/>
      <point x="76" y="272" type="curve" smooth="yes"/>
      <point x="76" y="715" type="line"/>
      <point x="210" y="715" type="line"/>
      <point x="210" y="282" type="line" smooth="yes"/>
      <point x="210" y="151"/>
      <point x="252" y="97"/>
      <point x="358" y="97" type="curve" smooth="yes"/>
      <point x="461" y="97"/>
      <point x="513" y="143"/>
      <point x="513" y="291" type="curve" smooth="yes"/>
      <point x="513" y="715" type="line"/>
      <point x="647" y="715" type="line"/>
      <point x="647" y="280" type="line" smooth="yes"/>
      <point x="647" y="93"/>
      <point x="546" y="-10"/>
    </contour>
    <contour>
      <point x="254" y="777" type="curve" smooth="yes"/>
      <point x="218" y="777"/>
      <point x="188" y="806"/>
      <point x="188" y="842" type="curve" smooth="yes"/>
      <point x="188" y="878"/>
      <point x="218" y="907"/>
      <point x="254" y="907" type="curve" smooth="yes"/>
      <point x="290" y="907"/>
      <point x="320" y="878"/>
      <point x="320" y="842" type="curve" smooth="yes"/>
      <point x="320" y="806"/>
      <point x="290" y="777"/>
    </contour>
    <contour>
      <point x="465" y="777" type="curve" smooth="yes"/>
      <point x="429" y="777"/>
      <point x="399" y="806"/>
      <point x="399" y="842" type="curve" smooth="yes"/>
      <point x="399" y="878"/>
      <point x="429" y="907"/>
      <point x="465" y="907" type="curve" smooth="yes"/>
      <point x="501" y="907"/>
      <point x="531" y="878"/>
      <point x="531" y="842" type="curve" smooth="yes"/>
      <point x="531" y="806"/>
      <point x="501" y="777"/>
    </contour>
  </outline>
</glyph>
<glyph name="Yacute" format="2">
  <advance width="629"/>
  <unicode hex="00DD"/>
  <outline>
    <contour>
      <point x="254" y="0" type="line"/>
      <point x="254" y="310" type="line"/>
      <point x="17" y="715" type="line"/>
      <point x="164" y="715" type="line"/>
      <point x="325" y="419" type="line"/>
      <point x="482" y="715" type="line"/>
      <point x="612" y="715" type="line"/>
      <point x="388" y="309" type="line"/>
      <point x="388" y="0" type="line"/>
    </contour>
    <contour>
      <point x="265" y="766" type="line"/>
      <point x="319" y="901" type="line"/>
      <point x="455" y="901" type="line"/>
      <point x="356" y="766" type="line"/>
    </contour>
  </outline>
</glyph>
<glyph name="Thorn" format="2">
  <advance width="609"/>
  <unicode hex="00DE"/>
  <outline>
    <contour>
      <point x="82" y="0" type="line"/>
      <point x="82" y="715" type="line"/>
      <point x="215" y="715" type="line"/>
      <point x="215" y="588" type="line"/>
      <point x="312" y="588" type="line" smooth="yes"/>
      <point x="472" y="588"/>
      <point x="577" y="524"/>
      <point x="577" y="373" type="curve" smooth="yes"/>
      <point x="577" y="369" type="line" smooth="yes"/>
      <point x="577" y="218"/>
      <point x="468" y="153"/>
      <point x="315" y="153" type="curve" smooth="yes"/>
      <point x="215" y="153" type="line"/>
      <point x="215" y="0" type="line"/>
    </contour>
    <contour>
      <point x="215" y="250" type="line"/>
      <point x="312" y="250" type="line" smooth="yes"/>
      <point x="400" y="250"/>
      <point x="447" y="290"/>
      <point x="447" y="369" type="curve" smooth="yes"/>
      <point x="447" y="373" type="line" smooth="yes"/>
      <point x="447" y="458"/>
      <point x="397" y="488"/>
      <point x="312" y="488" type="curve" smooth="yes"/>
      <point x="215" y="488" type="line"/>
    </contour>
  </outline>
</glyph>
<glyph name="germandbls" format="2">
  <advance width="608"/>
  <unicode hex="00DF"/>
  <outline>
    <contour>
      <point x="353" y="-9" type="curve" smooth="yes"/>
      <point x="310" y="-9"/>
      <point x="276" y="-1"/>
      <point x="260" y="5" type="curve"/>
      <point x="260" y="101" type="line"/>
      <point x="276" y="94"/>
      <point x="301" y="86"/>
      <point x="332" y="86" type="curve" smooth="yes"/>
      <point x="389" y="86"/>
      <point x="449" y="111"/>
      <point x="449" y="223" type="curve" smooth="yes"/>
      <point x="449" y="230" type="line" smooth="yes"/>
      <point x="449" y="331"/>
      <point x="380" y="384"/>
      <point x="275" y="382" type="curve"/>
      <point x="275" y="477" type="line"/>
      <point x="370" y="475"/>
      <point x="403" y="535"/>
      <point x="403" y="587" type="curve" smooth="yes"/>
      <point x="403" y="591" type="line" smooth="yes"/>
      <point x="403" y="651"/>
      <point x="367" y="686"/>
      <point x="299" y="686" type="curve" smooth="yes"/>
      <point x="235" y="686"/>
      <point x="193" y="640"/>
      <point x="193" y="566" type="curve" smooth="yes"/>
      <point x="193" y="0" type="line"/>
      <point x="72" y="0" type="line"/>
      <point x="72" y="557" type="line" smooth="yes"/>
      <point x="72" y="698"/>
      <point x="179" y="774"/>
      <point x="304" y="774" type="curve" smooth="yes"/>
      <point x="433" y="774"/>
      <point x="518" y="706"/>
      <point x="518" y="593" type="curve" smooth="yes"/>
      <point x="518" y="590" type="line" smooth="yes"/>
      <point x="518" y="525"/>
      <point x="473" y="461"/>
      <point x="399" y="437" type="curve"/>
      <point x="498" y="413"/>
      <point x="573" y="335"/>
      <point x="573" y="225" type="curve" smooth="yes"/>
      <point x="573" y="219" type="line" smooth="yes"/>
      <point x="573" y="53"/>
      <point x="471" y="-9"/>
    </contour>
  </outline>
</glyph>
<glyph name="agrave" format="2">
  <advance width="555"/>
  <unicode hex="00E0"/>
  <outline>
    <contour>
      <point x="209" y="-10" type="curve" smooth="yes"/>
      <point x="113" y="-10"/>
      <point x="34" y="36"/>
      <point x="34" y="145" type="curve" smooth="yes"/>
      <point x="34" y="267"/>
      <point x="152" y="311"/>
      <point x="302" y="311" type="curve" smooth="yes"/>
      <point x="367" y="311" type="line"/>
      <point x="367" y="338" type="line" smooth="yes"/>
      <point x="367" y="408"/>
      <point x="343" y="443"/>
      <point x="272" y="443" type="curve" smooth="yes"/>
      <point x="209" y="443"/>
      <point x="178" y="413"/>
      <point x="172" y="361" type="curve"/>
      <point x="55" y="361" type="line"/>
      <point x="65" y="483"/>
      <point x="162" y="534"/>
      <point x="279" y="534" type="curve" smooth="yes"/>
      <point x="396" y="534"/>
      <point x="488" y="486"/>
      <point x="488" y="343" type="curve" smooth="yes"/>
      <point x="488" y="0" type="line"/>
      <point x="369" y="0" type="line"/>
      <point x="369" y="64" type="line"/>
      <point x="335" y="19"/>
      <point x="289" y="-10"/>
    </contour>
    <contour>
      <point x="238" y="77" type="curve" smooth="yes"/>
      <point x="312" y="77"/>
      <point x="367" y="116"/>
      <point x="367" y="183" type="curve" smooth="yes"/>
      <point x="367" y="235" type="line"/>
      <point x="305" y="235" type="line" smooth="yes"/>
      <point x="213" y="235"/>
      <point x="154" y="214"/>
      <point x="154" y="150" type="curve" smooth="yes"/>
      <point x="154" y="106"/>
      <point x="178" y="77"/>
    </contour>
    <contour>
      <point x="240" y="601" type="line"/>
      <point x="136" y="756" type="line"/>
      <point x="270" y="756" type="line"/>
      <point x="329" y="601" type="line"/>
    </contour>
  </outline>
</glyph>
<glyph name="atilde" format="2">
  <advance width="555"/>
  <unicode hex="00E3"/>
  <outline>
    <contour>
      <point x="209" y="-10" type="curve" smooth="yes"/>
      <point x="113" y="-10"/>
      <point x="34" y="36"/>
      <point x="34" y="145" type="curve" smooth="yes"/>
      <point x="34" y="267"/>
      <point x="152" y="311"/>
      <point x="302" y="311" type="curve" smooth="yes"/>
      <point x="367" y="311" type="line"/>
      <point x="367" y="338" type="line" smooth="yes"/>
      <point x="367" y="408"/>
      <point x="343" y="443"/>
      <point x="272" y="443" type="curve" smooth="yes"/>
      <point x="209" y="443"/>
      <point x="178" y="413"/>
      <point x="172" y="361" type="curve"/>
      <point x="55" y="361" type="line"/>
      <point x="65" y="483"/>
      <point x="162" y="534"/>
      <point x="279" y="534" type="curve" smooth="yes"/>
      <point x="396" y="534"/>
      <point x="488" y="486"/>
      <point x="488" y="343" type="curve" smooth="yes"/>
      <point x="488" y="0" type="line"/>
      <point x="369" y="0" type="line"/>
      <point x="369" y="64" type="line"/>
      <point x="335" y="19"/>
      <point x="289" y="-10"/>
    </contour>
    <contour>
      <point x="238" y="77" type="curve" smooth="yes"/>
      <point x="312" y="77"/>
      <point x="367" y="116"/>
      <point x="367" y="183" type="curve" smooth="yes"/>
      <point x="367" y="235" type="line"/>
      <point x="305" y="235" type="line" smooth="yes"/>
      <point x="213" y="235"/>
      <point x="154" y="214"/>
      <point x="154" y="150" type="curve" smooth="yes"/>
      <point x="154" y="106"/>
      <point x="178" y="77"/>
    </contour>
    <contour>
      <point x="337" y="606" type="curve" smooth="yes"/>
      <point x="289" y="606"/>
      <point x="255" y="646"/>
      <point x="226" y="646" type="curve" smooth="yes"/>
      <point x="208" y="646"/>
      <point x="193" y="629"/>
      <point x="189" y="606" type="curve"/>
      <point x="114" y="606" type="line"/>
      <point x="122" y="690"/>
      <point x="165" y="737"/>
      <point x="221" y="737" type="curve" smooth="yes"/>
      <point x="267" y="737"/>
      <point x="302" y="698"/>
      <point x="333" y="698" type="curve" smooth="yes"/>
      <point x="351" y="698"/>
      <point x="365" y="714"/>
      <point x="369" y="738" type="curve"/>
      <point x="444" y="738" type="line"/>
      <point x="436" y="654"/>
      <point x="392" y="606"/>
    </contour>
  </outline>
</glyph>
<glyph name="adieresis" format="2">
  <advance width="555"/>
  <unicode hex="00E4"/>
  <outline>
    <contour>
      <point x="209" y="-10" type="curve" smooth="yes"/>
      <point x="113" y="-10"/>
      <point x="34" y="36"/>
      <point x="34" y="145" type="curve" smooth="yes"/>
      <point x="34" y="267"/>
      <point x="152" y="311"/>
      <point x="302" y="311" type="curve" smooth="yes"/>
      <point x="367" y="311" type="line"/>
      <point x="367" y="338" type="line" smooth="yes"/>
      <point x="367" y="408"/>
      <point x="343" y="443"/>
      <point x="272" y="443" type="curve" smooth="yes"/>
      <point x="209" y="443"/>
      <point x="178" y="413"/>
      <point x="172" y="361" type="curve"/>
      <point x="55" y="361" type="line"/>
      <point x="65" y="483"/>
      <point x="162" y="534"/>
      <point x="279" y="534" type="curve" smooth="yes"/>
      <point x="396" y="534"/>
      <point x="488" y="486"/>
      <point x="488" y="343" type="curve" smooth="yes"/>
      <point x="488" y="0" type="line"/>
      <point x="369" y="0" type="line"/>
      <point x="369" y="64" type="line"/>
      <point x="335" y="19"/>
      <point x="289" y="-10"/>
    </contour>
    <contour>
      <point x="238" y="77" type="curve" smooth="yes"/>
      <point x="312" y="77"/>
      <point x="367" y="116"/>
      <point x="367" y="183" type="curve" smooth="yes"/>
      <point x="367" y="235" type="line"/>
      <point x="305" y="235" type="line" smooth="yes"/>
      <point x="213" y="235"/>
      <point x="154" y="214"/>
      <point x="154" y="150" type="curve" smooth="yes"/>
      <point x="154" y="106"/>
      <point x="178" y="77"/>
    </contour>
    <contour>
      <point x="180" y="613" type="curve" smooth="yes"/>
      <point x="144" y="613"/>
      <point x="114" y="642"/>
      <point x="114" y="678" type="curve" smooth="yes"/>
      <point x="114" y="713"/>
      <point x="144" y="743"/>
      <point x="180" y="743" type="curve" smooth="yes"/>
      <point x="216" y="743"/>
      <point x="246" y="713"/>
      <point x="246" y="678" type="curve" smooth="yes"/>
      <point x="246" y="642"/>
      <point x="216" y="613"/>
    </contour>
    <contour>
      <point x="378" y="613" type="curve" smooth="yes"/>
      <point x="341" y="613"/>
      <point x="312" y="642"/>
      <point x="312" y="678" type="curve" smooth="yes"/>
      <point x="312" y="713"/>
      <point x="341" y="743"/>
      <point x="378" y="743" type="curve" smooth="yes"/>
      <point x="414" y="743"/>
      <point x="444" y="713"/>
      <point x="444" y="678" type="curve" smooth="yes"/>
      <point x="444" y="642"/>
      <point x="414" y="613"/>
    </contour>
  </outline>
</glyph>
<glyph name="ae" format="2">
  <advance width="891"/>
  <unicode hex="00E6"/>
  <outline>
    <contour>
      <point x="620" y="-10" type="curve" smooth="yes"/>
      <point x="530" y="-10"/>
      <point x="462" y="26"/>
      <point x="421" y="90" type="curve"/>
      <point x="375" y="23"/>
      <point x="315" y="-10"/>
      <point x="216" y="-10" type="curve" smooth="yes"/>
      <point x="115" y="-10"/>
      <point x="34" y="36"/>
      <point x="34" y="145" type="curve" smooth="yes"/>
      <point x="34" y="267"/>
      <point x="150" y="314"/>
      <point x="300" y="314" type="curve" smooth="yes"/>
      <point x="368" y="314" type="line"/>
      <point x="368" y="338" type="line" smooth="yes"/>
      <point x="368" y="408"/>
      <point x="341" y="443"/>
      <point x="273" y="443" type="curve" smooth="yes"/>
      <point x="210" y="443"/>
      <point x="178" y="414"/>
      <point x="172" y="361" type="curve"/>
      <point x="55" y="361" type="line"/>
      <point x="65" y="483"/>
      <point x="162" y="534"/>
      <point x="276" y="534" type="curve" smooth="yes"/>
      <point x="351" y="534"/>
      <point x="410" y="513"/>
      <point x="442" y="458" type="curve"/>
      <point x="483" y="506"/>
      <point x="542" y="534"/>
      <point x="615" y="534" type="curve" smooth="yes"/>
      <point x="741" y="534"/>
      <point x="856" y="459"/>
      <point x="856" y="270" type="curve" smooth="yes"/>
      <point x="856" y="237" type="line"/>
      <point x="484" y="237" type="line"/>
      <point x="488" y="137"/>
      <point x="534" y="80"/>
      <point x="621" y="80" type="curve" smooth="yes"/>
      <point x="691" y="80"/>
      <point x="728" y="109"/>
      <point x="737" y="160" type="curve"/>
      <point x="853" y="160" type="line"/>
      <point x="836" y="50"/>
      <point x="749" y="-10"/>
    </contour>
    <contour>
      <point x="239" y="77" type="curve" smooth="yes"/>
      <point x="314" y="77"/>
      <point x="368" y="116"/>
      <point x="368" y="183" type="curve" smooth="yes"/>
      <point x="368" y="236" type="line"/>
      <point x="303" y="236" type="line" smooth="yes"/>
      <point x="213" y="236"/>
      <point x="154" y="216"/>
      <point x="154" y="152" type="curve" smooth="yes"/>
      <point x="154" y="106"/>
      <point x="178" y="77"/>
    </contour>
    <contour>
      <point x="486" y="314" type="curve"/>
      <point x="736" y="314" type="line"/>
      <point x="729" y="406"/>
      <point x="687" y="446"/>
      <point x="615" y="446" type="curve" smooth="yes"/>
      <point x="545" y="446"/>
      <point x="497" y="396"/>
    </contour>
  </outline>
</glyph>
<glyph name="ccedilla" format="2">
  <advance width="575"/>
  <unicode hex="00E7"/>
  <outline>
    <contour>
      <point x="283" y="-219" type="curve" smooth="yes"/>
      <point x="220" y="-219"/>
      <point x="179" y="-185"/>
      <point x="173" y="-131" type="curve"/>
      <point x="239" y="-131" type="line"/>
      <point x="242" y="-148"/>
      <point x="255" y="-164"/>
      <point x="279" y="-164" type="curve" smooth="yes"/>
      <point x="302" y="-164"/>
      <point x="316" y="-150"/>
      <point x="316" y="-130" type="curve" smooth="yes"/>
      <point x="316" y="-111"/>
      <point x="302" y="-98"/>
      <point x="281" y="-98" type="curve" smooth="yes"/>
      <point x="267" y="-98"/>
      <point x="257" y="-103"/>
      <point x="251" y="-107" type="curve"/>
      <point x="217" y="-75" type="line"/>
      <point x="257" y="-7" type="line"/>
      <point x="129" y="10"/>
      <point x="37" y="104"/>
      <point x="37" y="255" type="curve" smooth="yes"/>
      <point x="37" y="263" type="line" smooth="yes"/>
      <point x="37" y="429"/>
      <point x="155" y="534"/>
      <point x="301" y="534" type="curve" smooth="yes"/>
      <point x="417" y="534"/>
      <point x="526" y="482"/>
      <point x="540" y="338" type="curve"/>
      <point x="423" y="338" type="line"/>
      <point x="413" y="408"/>
      <point x="367" y="437"/>
      <point x="303" y="437" type="curve" smooth="yes"/>
      <point x="220" y="437"/>
      <point x="161" y="373"/>
      <point x="161" y="265" type="curve" smooth="yes"/>
      <point x="161" y="257" type="line" smooth="yes"/>
      <point x="161" y="143"/>
      <point x="217" y="83"/>
      <point x="306" y="83" type="curve" smooth="yes"/>
      <point x="370" y="83"/>
      <point x="425" y="121"/>
      <point x="432" y="195" type="curve"/>
      <point x="543" y="195" type="line"/>
      <point x="534" y="79"/>
      <point x="449" y="-4"/>
      <point x="315" y="-10" type="curve"/>
      <point x="292" y="-50" type="line"/>
      <point x="342" y="-44"/>
      <point x="392" y="-70"/>
      <point x="392" y="-133" type="curve" smooth="yes"/>
      <point x="392" y="-189"/>
      <point x="345" y="-219"/>
    </contour>
  </outline>
</glyph>
<glyph name="edieresis" format="2">
  <advance width="580"/>
  <unicode hex="00EB"/>
  <outline>
    <contour>
      <point x="196" y="613" type="curve" smooth="yes"/>
      <point x="160" y="613"/>
      <point x="130" y="642"/>
      <point x="130" y="678" type="curve" smooth="yes"/>
      <point x="130" y="713"/>
      <point x="160" y="743"/>
      <point x="196" y="743" type="curve" smooth="yes"/>
      <point x="232" y="743"/>
      <point x="262" y="713"/>
      <point x="262" y="678" type="curve" smooth="yes"/>
      <point x="262" y="642"/>
      <point x="232" y="613"/>
    </contour>
    <contour>
      <point x="394" y="613" type="curve" smooth="yes"/>
      <point x="357" y="613"/>
      <point x="328" y="642"/>
      <point x="328" y="678" type="curve" smooth="yes"/>
      <point x="328" y="713"/>
      <point x="357" y="743"/>
      <point x="394" y="743" type="curve" smooth="yes"/>
      <point x="430" y="743"/>
      <point x="460" y="713"/>
      <point x="460" y="678" type="curve" smooth="yes"/>
      <point x="460" y="642"/>
      <point x="430" y="613"/>
    </contour>
    <contour>
      <point x="302" y="-10" type="curve" smooth="yes"/>
      <point x="148" y="-10"/>
      <point x="37" y="91"/>
      <point x="37" y="256" type="curve" smooth="yes"/>
      <point x="37" y="264" type="line" smooth="yes"/>
      <point x="37" y="426"/>
      <point x="148" y="534"/>
      <point x="297" y="534" type="curve" smooth="yes"/>
      <point x="427" y="534"/>
      <point x="544" y="457"/>
      <point x="544" y="270" type="curve" smooth="yes"/>
      <point x="544" y="235" type="line"/>
      <point x="161" y="235" type="line"/>
      <point x="165" y="136"/>
      <point x="215" y="80"/>
      <point x="305" y="80" type="curve" smooth="yes"/>
      <point x="378" y="80"/>
      <point x="416" y="109"/>
      <point x="425" y="160" type="curve"/>
      <point x="542" y="160" type="line"/>
      <point x="525" y="50"/>
      <point x="436" y="-10"/>
    </contour>
    <contour>
      <point x="163" y="316" type="curve"/>
      <point x="424" y="316" type="line"/>
      <point x="418" y="406"/>
      <point x="372" y="446"/>
      <point x="297" y="446" type="curve" smooth="yes"/>
      <point x="224" y="446"/>
      <point x="175" y="397"/>
    </contour>
  </outline>
</glyph>
<glyph name="iacute" format="2">
  <advance width="271"/>
  <unicode hex="00ED"/>
  <outline>
    <contour>
      <point x="86" y="601" type="line"/>
      <point x="145" y="756" type="line"/>
      <point x="279" y="756" type="line"/>
      <point x="175" y="601" type="line"/>
    </contour>
    <contour>
      <point x="75" y="0" type="line"/>
      <point x="75" y="523" type="line"/>
      <point x="196" y="523" type="line"/>
      <point x="196" y="0" type="line"/>
    </contour>
  </outline>
</glyph>
<glyph name="icircumflex" format="2">
  <advance width="271"/>
  <unicode hex="00EE"/>
  <outline>
    <contour>
      <point x="-25" y="602" type="line"/>
      <point x="89" y="753" type="line"/>
      <point x="185" y="753" type="line"/>
      <point x="296" y="602" type="line"/>
      <point x="210" y="602" type="line"/>
      <point x="135" y="670" type="line"/>
      <point x="59" y="602" type="line"/>
    </contour>
    <contour>
      <point x="75" y="0" type="line"/>
      <point x="75" y="523" type="line"/>
      <point x="196" y="523" type="line"/>
      <point x="196" y="0" type="line"/>
    </contour>
  </outline>
</glyph>
<glyph name="idieresis" format="2">
  <advance width="271"/>
  <unicode hex="00EF"/>
  <outline>
    <contour>
      <point x="39" y="613" type="curve" smooth="yes"/>
      <point x="3" y="613"/>
      <point x="-27" y="642"/>
      <point x="-27" y="678" type="curve" smooth="yes"/>
      <point x="-27" y="713"/>
      <point x="3" y="743"/>
      <point x="39" y="743" type="curve" smooth="yes"/>
      <point x="75" y="743"/>
      <point x="105" y="713"/>
      <point x="105" y="678" type="curve" smooth="yes"/>
      <point x="105" y="642"/>
      <point x="75" y="613"/>
    </contour>
    <contour>
      <point x="231" y="613" type="curve" smooth="yes"/>
      <point x="195" y="613"/>
      <point x="165" y="642"/>
      <point x="165" y="678" type="curve" smooth="yes"/>
      <point x="165" y="713"/>
      <point x="195" y="743"/>
      <point x="231" y="743" type="curve" smooth="yes"/>
      <point x="267" y="743"/>
      <point x="297" y="713"/>
      <point x="297" y="678" type="curve" smooth="yes"/>
      <point x="297" y="642"/>
      <point x="267" y="613"/>
    </contour>
    <contour>
      <point x="75" y="0" type="line"/>
      <point x="75" y="523" type="line"/>
      <point x="196" y="523" type="line"/>
      <point x="196" y="0" type="line"/>
    </contour>
  </outline>
</glyph>
<glyph name="eth" format="2">
  <advance width="611"/>
  <unicode hex="00F0"/>
  <outline>
    <contour>
      <point x="168" y="566" type="line"/>
      <point x="141" y="620" type="line"/>
      <point x="244" y="669" type="line"/>
      <point x="203" y="705"/>
      <point x="160" y="737"/>
      <point x="120" y="765" type="curve"/>
      <point x="263" y="765" type="line"/>
      <point x="286" y="752"/>
      <point x="312" y="736"/>
      <point x="338" y="715" type="curve"/>
      <point x="431" y="760" type="line"/>
      <point x="458" y="706" type="line"/>
      <point x="389" y="672" type="line"/>
      <point x="484" y="584"/>
      <point x="574" y="453"/>
      <point x="574" y="292" type="curve" smooth="yes"/>
      <point x="574" y="270" type="line" smooth="yes"/>
      <point x="574" y="102"/>
      <point x="462" y="-10"/>
      <point x="304" y="-10" type="curve" smooth="yes"/>
      <point x="150" y="-10"/>
      <point x="37" y="98"/>
      <point x="37" y="259" type="curve" smooth="yes"/>
      <point x="37" y="269" type="line" smooth="yes"/>
      <point x="37" y="427"/>
      <point x="150" y="531"/>
      <point x="274" y="531" type="curve" smooth="yes"/>
      <point x="335" y="531"/>
      <point x="375" y="507"/>
      <point x="408" y="470" type="curve"/>
      <point x="380" y="526"/>
      <point x="339" y="578"/>
      <point x="291" y="625" type="curve"/>
    </contour>
    <contour>
      <point x="306" y="84" type="curve" smooth="yes"/>
      <point x="396" y="84"/>
      <point x="450" y="152"/>
      <point x="450" y="257" type="curve" smooth="yes"/>
      <point x="450" y="265" type="line" smooth="yes"/>
      <point x="450" y="373"/>
      <point x="396" y="439"/>
      <point x="307" y="439" type="curve" smooth="yes"/>
      <point x="217" y="439"/>
      <point x="161" y="374"/>
      <point x="161" y="266" type="curve" smooth="yes"/>
      <point x="161" y="258" type="line" smooth="yes"/>
      <point x="161" y="151"/>
      <point x="215" y="84"/>
    </contour>
  </outline>
</glyph>
<glyph name="ntilde" format="2">
  <advance width="608"/>
  <unicode hex="00F1"/>
  <outline>
    <contour>
      <point x="72" y="0" type="line"/>
      <point x="72" y="523" type="line"/>
      <point x="193" y="523" type="line"/>
      <point x="193" y="440" type="line"/>
      <point x="218" y="491"/>
      <point x="276" y="534"/>
      <point x="362" y="534" type="curve" smooth="yes"/>
      <point x="467" y="534"/>
      <point x="541" y="473"/>
      <point x="541" y="329" type="curve" smooth="yes"/>
      <point x="541" y="0" type="line"/>
      <point x="420" y="0" type="line"/>
      <point x="420" y="318" type="line" smooth="yes"/>
      <point x="420" y="397"/>
      <point x="388" y="433"/>
      <point x="316" y="433" type="curve" smooth="yes"/>
      <point x="248" y="433"/>
      <point x="193" y="391"/>
      <point x="193" y="308" type="curve" smooth="yes"/>
      <point x="193" y="0" type="line"/>
    </contour>
    <contour>
      <point x="361" y="606" type="curve" smooth="yes"/>
      <point x="313" y="606"/>
      <point x="279" y="646"/>
      <point x="250" y="646" type="curve" smooth="yes"/>
      <point x="232" y="646"/>
      <point x="217" y="629"/>
      <point x="213" y="606" type="curve"/>
      <point x="138" y="606" type="line"/>
      <point x="146" y="690"/>
      <point x="189" y="737"/>
      <point x="245" y="737" type="curve" smooth="yes"/>
      <point x="291" y="737"/>
      <point x="326" y="698"/>
      <point x="357" y="698" type="curve" smooth="yes"/>
      <point x="375" y="698"/>
      <point x="389" y="714"/>
      <point x="393" y="738" type="curve"/>
      <point x="468" y="738" type="line"/>
      <point x="460" y="654"/>
      <point x="416" y="606"/>
    </contour>
  </outline>
</glyph>
<glyph name="otilde" format="2">
  <advance width="611"/>
  <unicode hex="00F5"/>
  <outline>
    <contour>
      <point x="306" y="84" type="curve" smooth="yes"/>
      <point x="396" y="84"/>
      <point x="450" y="151"/>
      <point x="450" y="258" type="curve" smooth="yes"/>
      <point x="450" y="265" type="line" smooth="yes"/>
      <point x="450" y="373"/>
      <point x="396" y="439"/>
      <point x="306" y="439" type="curve" smooth="yes"/>
      <point x="216" y="439"/>
      <point x="161" y="374"/>
      <point x="161" y="266" type="curve" smooth="yes"/>
      <point x="161" y="258" type="line" smooth="yes"/>
      <point x="161" y="151"/>
      <point x="214" y="84"/>
    </contour>
    <contour>
      <point x="305" y="-10" type="curve" smooth="yes"/>
      <point x="151" y="-10"/>
      <point x="37" y="97"/>
      <point x="37" y="256" type="curve" smooth="yes"/>
      <point x="37" y="264" type="line" smooth="yes"/>
      <point x="37" y="426"/>
      <point x="152" y="534"/>
      <point x="306" y="534" type="curve" smooth="yes"/>
      <point x="459" y="534"/>
      <point x="574" y="427"/>
      <point x="574" y="267" type="curve" smooth="yes"/>
      <point x="574" y="259" type="line" smooth="yes"/>
      <point x="574" y="96"/>
      <point x="459" y="-10"/>
    </contour>
    <contour>
      <point x="363" y="606" type="curve" smooth="yes"/>
      <point x="315" y="606"/>
      <point x="281" y="646"/>
      <point x="252" y="646" type="curve" smooth="yes"/>
      <point x="234" y="646"/>
      <point x="219" y="629"/>
      <point x="215" y="606" type="curve"/>
      <point x="140" y="606" type="line"/>
      <point x="148" y="690"/>
      <point x="191" y="737"/>
      <point x="247" y="737" type="curve" smooth="yes"/>
      <point x="293" y="737"/>
      <point x="328" y="698"/>
      <point x="359" y="698" type="curve" smooth="yes"/>
      <point x="377" y="698"/>
      <point x="391" y="714"/>
      <point x="395" y="738" type="curve"/>
      <point x="470" y="738" type="line"/>
      <point x="462" y="654"/>
      <point x="418" y="606"/>
    </contour>
  </outline>
</glyph>
<glyph name="divide" format="2">
  <advance width="540"/>
  <unicode hex="00F7"/>
  <outline>
    <contour>
      <point x="270" y="71" type="curve" smooth="yes"/>
      <point x="228" y="71"/>
      <point x="194" y="104"/>
      <point x="194" y="146" type="curve" smooth="yes"/>
      <point x="194" y="188"/>
      <point x="228" y="221"/>
      <point x="270" y="221" type="curve" smooth="yes"/>
      <point x="311" y="221"/>
      <point x="346" y="188"/>
      <point x="346" y="146" type="curve" smooth="yes"/>
      <point x="346" y="104"/>
      <point x="311" y="71"/>
    </contour>
    <contour>
      <point x="37" y="296" type="line"/>
      <point x="37" y="387" type="line"/>
      <point x="504" y="387" type="line"/>
      <point x="504" y="296" type="line"/>
    </contour>
    <contour>
      <point x="270" y="461" type="curve" smooth="yes"/>
      <point x="228" y="461"/>
      <point x="194" y="494"/>
      <point x="194" y="536" type="curve" smooth="yes"/>
      <point x="194" y="579"/>
      <point x="228" y="612"/>
      <point x="270" y="612" type="curve" smooth="yes"/>
      <point x="311" y="612"/>
      <point x="346" y="579"/>
      <point x="346" y="536" type="curve" smooth="yes"/>
      <point x="346" y="494"/>
      <point x="311" y="461"/>
    </contour>
  </outline>
</glyph>
<glyph name="oslash" format="2">
  <advance width="611"/>
  <unicode hex="00F8"/>
  <outline>
    <contour>
      <point x="69" y="-38" type="line"/>
      <point x="22" y="4" type="line"/>
      <point x="95" y="83" type="line"/>
      <point x="58" y="128"/>
      <point x="37" y="187"/>
      <point x="37" y="256" type="curve" smooth="yes"/>
      <point x="37" y="264" type="line" smooth="yes"/>
      <point x="37" y="426"/>
      <point x="152" y="534"/>
      <point x="306" y="534" type="curve" smooth="yes"/>
      <point x="367" y="534"/>
      <point x="421" y="517"/>
      <point x="465" y="486" type="curve"/>
      <point x="532" y="559" type="line"/>
      <point x="579" y="517" type="line"/>
      <point x="512" y="444" type="line"/>
      <point x="551" y="399"/>
      <point x="574" y="338"/>
      <point x="574" y="267" type="curve" smooth="yes"/>
      <point x="574" y="259" type="line" smooth="yes"/>
      <point x="574" y="96"/>
      <point x="459" y="-10"/>
      <point x="305" y="-10" type="curve" smooth="yes"/>
      <point x="242" y="-10"/>
      <point x="185" y="8"/>
      <point x="141" y="40" type="curve"/>
    </contour>
    <contour>
      <point x="306" y="84" type="curve" smooth="yes"/>
      <point x="397" y="84"/>
      <point x="451" y="151"/>
      <point x="451" y="257" type="curve" smooth="yes"/>
      <point x="451" y="265" type="line" smooth="yes"/>
      <point x="451" y="301"/>
      <point x="445" y="332"/>
      <point x="433" y="358" type="curve"/>
      <point x="211" y="117" type="line"/>
      <point x="235" y="95"/>
      <point x="267" y="84"/>
    </contour>
    <contour>
      <point x="161" y="258" type="line" smooth="yes"/>
      <point x="161" y="225"/>
      <point x="166" y="196"/>
      <point x="175" y="171" type="curve"/>
      <point x="395" y="410" type="line"/>
      <point x="371" y="429"/>
      <point x="341" y="440"/>
      <point x="306" y="440" type="curve" smooth="yes"/>
      <point x="216" y="440"/>
      <point x="161" y="374"/>
      <point x="161" y="266" type="curve" smooth="yes"/>
    </contour>
  </outline>
</glyph>
<glyph name="ugrave" format="2">
  <advance width="605"/>
  <unicode hex="00F9"/>
  <outline>
    <contour>
      <point x="247" y="-10" type="curve" smooth="yes"/>
      <point x="144" y="-10"/>
      <point x="67" y="49"/>
      <point x="67" y="188" type="curve" smooth="yes"/>
      <point x="67" y="523" type="line"/>
      <point x="188" y="523" type="line"/>
      <point x="188" y="202" type="line" smooth="yes"/>
      <point x="188" y="123"/>
      <point x="221" y="87"/>
      <point x="291" y="87" type="curve" smooth="yes"/>
      <point x="356" y="87"/>
      <point x="413" y="129"/>
      <point x="413" y="212" type="curve" smooth="yes"/>
      <point x="413" y="523" type="line"/>
      <point x="534" y="523" type="line"/>
      <point x="534" y="0" type="line"/>
      <point x="413" y="0" type="line"/>
      <point x="413" y="82" type="line"/>
      <point x="387" y="31"/>
      <point x="332" y="-10"/>
    </contour>
    <contour>
      <point x="263" y="601" type="line"/>
      <point x="159" y="756" type="line"/>
      <point x="293" y="756" type="line"/>
      <point x="352" y="601" type="line"/>
    </contour>
  </outline>
</glyph>
<glyph name="ucircumflex" format="2">
  <advance width="605"/>
  <unicode hex="00FB"/>
  <outline>
    <contour>
      <point x="141" y="602" type="line"/>
      <point x="255" y="753" type="line"/>
      <point x="351" y="753" type="line"/>
      <point x="462" y="602" type="line"/>
      <point x="376" y="602" type="line"/>
      <point x="301" y="670" type="line"/>
      <point x="225" y="602" type="line"/>
    </contour>
    <contour>
      <point x="247" y="-10" type="curve" smooth="yes"/>
      <point x="144" y="-10"/>
      <point x="67" y="49"/>
      <point x="67" y="188" type="curve" smooth="yes"/>
      <point x="67" y="523" type="line"/>
      <point x="188" y="523" type="line"/>
      <point x="188" y="202" type="line" smooth="yes"/>
      <point x="188" y="123"/>
      <point x="221" y="87"/>
      <point x="291" y="87" type="curve" smooth="yes"/>
      <point x="356" y="87"/>
      <point x="413" y="129"/>
      <point x="413" y="212" type="curve" smooth="yes"/>
      <point x="413" y="523" type="line"/>
      <point x="534" y="523" type="line"/>
      <point x="534" y="0" type="line"/>
      <point x="413" y="0" type="line"/>
      <point x="413" y="82" type="line"/>
      <point x="387" y="31"/>
      <point x="332" y="-10"/>
    </contour>
  </outline>
</glyph>
<glyph name="udieresis" format="2">
  <advance width="605"/>
  <unicode hex="00FC"/>
  <outline>
    <contour>
      <point x="203" y="613" type="curve" smooth="yes"/>
      <point x="167" y="613"/>
      <point x="137" y="642"/>
      <point x="137" y="678" type="curve" smooth="yes"/>
      <point x="137" y="713"/>
      <point x="167" y="743"/>
      <point x="203" y="743" type="curve" smooth="yes"/>
      <point x="239" y="743"/>
      <point x="269" y="713"/>
      <point x="269" y="678" type="curve" smooth="yes"/>
      <point x="269" y="642"/>
      <point x="239" y="613"/>
    </contour>
    <contour>
      <point x="401" y="613" type="curve" smooth="yes"/>
      <point x="364" y="613"/>
      <point x="335" y="642"/>
      <point x="335" y="678" type="curve" smooth="yes"/>
      <point x="335" y="713"/>
      <point x="364" y="743"/>
      <point x="401" y="743" type="curve" smooth="yes"/>
      <point x="437" y="743"/>
      <point x="467" y="713"/>
      <point x="467" y="678" type="curve" smooth="yes"/>
      <point x="467" y="642"/>
      <point x="437" y="613"/>
    </contour>
    <contour>
      <point x="247" y="-10" type="curve" smooth="yes"/>
      <point x="144" y="-10"/>
      <point x="67" y="49"/>
      <point x="67" y="188" type="curve" smooth="yes"/>
      <point x="67" y="523" type="line"/>
      <point x="188" y="523" type="line"/>
      <point x="188" y="202" type="line" smooth="yes"/>
      <point x="188" y="123"/>
      <point x="221" y="87"/>
      <point x="291" y="87" type="curve" smooth="yes"/>
      <point x="356" y="87"/>
      <point x="413" y="129"/>
      <point x="413" y="212" type="curve" smooth="yes"/>
      <point x="413" y="523" type="line"/>
      <point x="534" y="523" type="line"/>
      <point x="534" y="0" type="line"/>
      <point x="413" y="0" type="line"/>
      <point x="413" y="82" type="line"/>
      <point x="387" y="31"/>
      <point x="332" y="-10"/>
    </contour>
  </outline>
</glyph>
<glyph name="ydieresis" format="2">
  <advance width="553"/>
  <unicode hex="00FF"/>
  <outline>
    <contour>
      <point x="130" y="-179" type="line"/>
      <point x="225" y="53" type="line"/>
      <point x="18" y="523" type="line"/>
      <point x="149" y="523" type="line"/>
      <point x="288" y="186" type="line"/>
      <point x="416" y="523" type="line"/>
      <point x="534" y="523" type="line"/>
      <point x="249" y="-179" type="line"/>
    </contour>
    <contour>
      <point x="186" y="613" type="curve" smooth="yes"/>
      <point x="150" y="613"/>
      <point x="120" y="642"/>
      <point x="120" y="678" type="curve" smooth="yes"/>
      <point x="120" y="713"/>
      <point x="150" y="743"/>
      <point x="186" y="743" type="curve" smooth="yes"/>
      <point x="222" y="743"/>
      <point x="252" y="713"/>
      <point x="252" y="678" type="curve" smooth="yes"/>
      <point x="252" y="642"/>
      <point x="222" y="613"/>
    </contour>
    <contour>
      <point x="384" y="613" type="curve" smooth="yes"/>
      <point x="347" y="613"/>
      <point x="318" y="642"/>
      <point x="318" y="678" type="curve" smooth="yes"/>
      <point x="318" y="713"/>
      <point x="347" y="743"/>
      <point x="384" y="743" type="curve" smooth="yes"/>
      <point x="420" y="743"/>
      <point x="450" y="713"/>
      <point x="450" y="678" type="curve" smooth="yes"/>
      <point x="450" y="642"/>
      <point x="420" y="613"/>
    </contour>
  </outline>
</glyph>
<glyph name="Amacron" format="2">
  <advance width="703"/>
  <unicode hex="0100"/>
  <outline>
    <contour>
      <point x="27" y="0" type="line"/>
      <point x="266" y="715" type="line"/>
      <point x="440" y="715" type="line"/>
      <point x="676" y="0" type="line"/>
      <point x="538" y="0" type="line"/>
      <point x="481" y="177" type="line"/>
      <point x="208" y="177" type="line"/>
      <point x="152" y="0" type="line"/>
    </contour>
    <contour>
      <point x="345" y="606" type="line"/>
      <point x="239" y="274" type="line"/>
      <point x="450" y="274" type="line"/>
    </contour>
    <contour>
      <point x="206" y="780" type="line"/>
      <point x="206" y="861" type="line"/>
      <point x="494" y="861" type="line"/>
      <point x="494" y="780" type="line"/>
    </contour>
  </outline>
</glyph>
<glyph name="Abreve" format="2">
  <advance width="703"/>
  <unicode hex="0102"/>
  <outline>
    <contour>
      <point x="27" y="0" type="line"/>
      <point x="266" y="715" type="line"/>
      <point x="440" y="715" type="line"/>
      <point x="676" y="0" type="line"/>
      <point x="538" y="0" type="line"/>
      <point x="481" y="177" type="line"/>
      <point x="208" y="177" type="line"/>
      <point x="152" y="0" type="line"/>
    </contour>
    <contour>
      <point x="345" y="606" type="line"/>
      <point x="239" y="274" type="line"/>
      <point x="450" y="274" type="line"/>
    </contour>
    <contour>
      <point x="349" y="761" type="curve" smooth="yes"/>
      <point x="266" y="761"/>
      <point x="208" y="818"/>
      <point x="204" y="901" type="curve"/>
      <point x="289" y="901" type="line"/>
      <point x="294" y="867"/>
      <point x="313" y="845"/>
      <point x="349" y="845" type="curve" smooth="yes"/>
      <point x="385" y="845"/>
      <point x="406" y="866"/>
      <point x="412" y="901" type="curve"/>
      <point x="496" y="901" type="line"/>
      <point x="491" y="818"/>
      <point x="430" y="761"/>
    </contour>
  </outline>
</glyph>
<glyph name="abreve" format="2">
  <advance width="555"/>
  <unicode hex="0103"/>
  <outline>
    <contour>
      <point x="209" y="-10" type="curve" smooth="yes"/>
      <point x="113" y="-10"/>
      <point x="34" y="36"/>
      <point x="34" y="145" type="curve" smooth="yes"/>
      <point x="34" y="267"/>
      <point x="152" y="311"/>
      <point x="302" y="311" type="curve" smooth="yes"/>
      <point x="367" y="311" type="line"/>
      <point x="367" y="338" type="line" smooth="yes"/>
      <point x="367" y="408"/>
      <point x="343" y="443"/>
      <point x="272" y="443" type="curve" smooth="yes"/>
      <point x="209" y="443"/>
      <point x="178" y="413"/>
      <point x="172" y="361" type="curve"/>
      <point x="55" y="361" type="line"/>
      <point x="65" y="483"/>
      <point x="162" y="534"/>
      <point x="279" y="534" type="curve" smooth="yes"/>
      <point x="396" y="534"/>
      <point x="488" y="486"/>
      <point x="488" y="343" type="curve" smooth="yes"/>
      <point x="488" y="0" type="line"/>
      <point x="369" y="0" type="line"/>
      <point x="369" y="64" type="line"/>
      <point x="335" y="19"/>
      <point x="289" y="-10"/>
    </contour>
    <contour>
      <point x="238" y="77" type="curve" smooth="yes"/>
      <point x="312" y="77"/>
      <point x="367" y="116"/>
      <point x="367" y="183" type="curve" smooth="yes"/>
      <point x="367" y="235" type="line"/>
      <point x="305" y="235" type="line" smooth="yes"/>
      <point x="213" y="235"/>
      <point x="154" y="214"/>
      <point x="154" y="150" type="curve" smooth="yes"/>
      <point x="154" y="106"/>
      <point x="178" y="77"/>
    </contour>
    <contour>
      <point x="278" y="606" type="curve" smooth="yes"/>
      <point x="196" y="606"/>
      <point x="138" y="663"/>
      <point x="133" y="749" type="curve"/>
      <point x="217" y="749" type="line"/>
      <point x="222" y="713"/>
      <point x="241" y="691"/>
      <point x="278" y="691" type="curve" smooth="yes"/>
      <point x="315" y="691"/>
      <point x="336" y="713"/>
      <point x="343" y="749" type="curve"/>
      <point x="425" y="749" type="line"/>
      <point x="420" y="663"/>
      <point x="358" y="606"/>
    </contour>
  </outline>
</glyph>
<glyph name="Aogonek" format="2">
  <advance width="703"/>
  <unicode hex="0104"/>
  <outline>
    <contour>
      <point x="605" y="-182" type="curve" smooth="yes"/>
      <point x="537" y="-182"/>
      <point x="493" y="-151"/>
      <point x="493" y="-101" type="curve" smooth="yes"/>
      <point x="493" y="-56"/>
      <point x="532" y="-21"/>
      <point x="574" y="0" type="curve"/>
      <point x="538" y="0" type="line"/>
      <point x="481" y="177" type="line"/>
      <point x="208" y="177" type="line"/>
      <point x="152" y="0" type="line"/>
      <point x="27" y="0" type="line"/>
      <point x="266" y="715" type="line"/>
      <point x="440" y="715" type="line"/>
      <point x="673" y="7" type="line"/>
      <point x="624" y="-21"/>
      <point x="602" y="-49"/>
      <point x="602" y="-76" type="curve" smooth="yes"/>
      <point x="602" y="-97"/>
      <point x="615" y="-108"/>
      <point x="637" y="-108" type="curve" smooth="yes"/>
      <point x="652" y="-108"/>
      <point x="668" y="-105"/>
      <point x="680" y="-99" type="curve"/>
      <point x="680" y="-168" type="line"/>
      <point x="663" y="-176"/>
      <point x="639" y="-182"/>
    </contour>
    <contour>
      <point x="345" y="606" type="line"/>
      <point x="239" y="274" type="line"/>
      <point x="450" y="274" type="line"/>
    </contour>
  </outline>
</glyph>
<glyph name="Ccaron" format="2">
  <advance width="741"/>
  <unicode hex="010C"/>
  <outline>
    <contour>
      <point x="340" y="766" type="line"/>
      <point x="232" y="901" type="line"/>
      <point x="320" y="901" type="line"/>
      <point x="395" y="846" type="line"/>
      <point x="469" y="901" type="line"/>
      <point x="555" y="901" type="line"/>
      <point x="445" y="766" type="line"/>
    </contour>
    <contour>
      <point x="395" y="-10" type="curve" smooth="yes"/>
      <point x="171" y="-10"/>
      <point x="46" y="133"/>
      <point x="46" y="353" type="curve" smooth="yes"/>
      <point x="46" y="361" type="line" smooth="yes"/>
      <point x="46" y="576"/>
      <point x="194" y="726"/>
      <point x="393" y="726" type="curve" smooth="yes"/>
      <point x="557" y="726"/>
      <point x="684" y="644"/>
      <point x="700" y="476" type="curve"/>
      <point x="565" y="476" type="line"/>
      <point x="550" y="571"/>
      <point x="497" y="620"/>
      <point x="394" y="620" type="curve" smooth="yes"/>
      <point x="268" y="620"/>
      <point x="186" y="522"/>
      <point x="186" y="362" type="curve" smooth="yes"/>
      <point x="186" y="354" type="line" smooth="yes"/>
      <point x="186" y="193"/>
      <point x="263" y="98"/>
      <point x="395" y="98" type="curve" smooth="yes"/>
      <point x="494" y="98"/>
      <point x="564" y="148"/>
      <point x="578" y="249" type="curve"/>
      <point x="708" y="249" type="line"/>
      <point x="687" y="77"/>
      <point x="565" y="-10"/>
    </contour>
  </outline>
</glyph>
<glyph name="Dcaron" format="2">
  <advance width="714"/>
  <unicode hex="010E"/>
  <outline>
    <contour>
      <point x="270" y="766" type="line"/>
      <point x="162" y="901" type="line"/>
      <point x="250" y="901" type="line"/>
      <point x="325" y="846" type="line"/>
      <point x="399" y="901" type="line"/>
      <point x="485" y="901" type="line"/>
      <point x="375" y="766" type="line"/>
    </contour>
    <contour>
      <point x="215" y="105" type="line"/>
      <point x="293" y="105" type="line" smooth="yes"/>
      <point x="453" y="105"/>
      <point x="530" y="197"/>
      <point x="530" y="355" type="curve" smooth="yes"/>
      <point x="530" y="363" type="line" smooth="yes"/>
      <point x="530" y="517"/>
      <point x="460" y="610"/>
      <point x="292" y="610" type="curve" smooth="yes"/>
      <point x="215" y="610" type="line"/>
    </contour>
    <contour>
      <point x="82" y="0" type="line"/>
      <point x="82" y="715" type="line"/>
      <point x="299" y="715" type="line" smooth="yes"/>
      <point x="548" y="715"/>
      <point x="669" y="573"/>
      <point x="669" y="365" type="curve" smooth="yes"/>
      <point x="669" y="356" type="line" smooth="yes"/>
      <point x="669" y="148"/>
      <point x="548" y="0"/>
      <point x="297" y="0" type="curve" smooth="yes"/>
    </contour>
  </outline>
</glyph>
<glyph name="Dcroat" format="2">
  <advance width="739"/>
  <unicode hex="0110"/>
  <outline>
    <contour>
      <point x="32" y="311" type="line"/>
      <point x="32" y="406" type="line"/>
      <point x="101" y="406" type="line"/>
      <point x="101" y="715" type="line"/>
      <point x="318" y="715" type="line" smooth="yes"/>
      <point x="567" y="715"/>
      <point x="688" y="573"/>
      <point x="688" y="365" type="curve" smooth="yes"/>
      <point x="688" y="356" type="line" smooth="yes"/>
      <point x="688" y="148"/>
      <point x="568" y="0"/>
      <point x="317" y="0" type="curve" smooth="yes"/>
      <point x="101" y="0" type="line"/>
      <point x="101" y="311" type="line"/>
    </contour>
    <contour>
      <point x="233" y="105" type="line"/>
      <point x="313" y="105" type="line" smooth="yes"/>
      <point x="473" y="105"/>
      <point x="549" y="197"/>
      <point x="549" y="355" type="curve" smooth="yes"/>
      <point x="549" y="363" type="line" smooth="yes"/>
      <point x="549" y="517"/>
      <point x="480" y="610"/>
      <point x="312" y="610" type="curve" smooth="yes"/>
      <point x="233" y="610" type="line"/>
      <point x="233" y="406" type="line"/>
      <point x="406" y="406" type="line"/>
      <point x="406" y="311" type="line"/>
      <point x="233" y="311" type="line"/>
    </contour>
  </outline>
</glyph>
<glyph name="Emacron" format="2">
  <advance width="584"/>
  <unicode hex="0112"/>
  <outline>
    <contour>
      <point x="82" y="0" type="line"/>
      <point x="82" y="715" type="line"/>
      <point x="529" y="715" type="line"/>
      <point x="529" y="610" type="line"/>
      <point x="215" y="610" type="line"/>
      <point x="215" y="414" type="line"/>
      <point x="467" y="414" type="line"/>
      <point x="467" y="314" type="line"/>
      <point x="215" y="314" type="line"/>
      <point x="215" y="105" type="line"/>
      <point x="546" y="105" type="line"/>
      <point x="546" y="0" type="line"/>
    </contour>
    <contour>
      <point x="169" y="780" type="line"/>
      <point x="169" y="861" type="line"/>
      <point x="457" y="861" type="line"/>
      <point x="457" y="780" type="line"/>
    </contour>
  </outline>
</glyph>
<glyph name="Ebreve" format="2">
  <advance width="584"/>
  <unicode hex="0114"/>
  <outline>
    <contour>
      <point x="82" y="0" type="line"/>
      <point x="82" y="715" type="line"/>
      <point x="529" y="715" type="line"/>
      <point x="529" y="610" type="line"/>
      <point x="215" y="610" type="line"/>
      <point x="215" y="414" type="line"/>
      <point x="467" y="414" type="line"/>
      <point x="467" y="314" type="line"/>
      <point x="215" y="314" type="line"/>
      <point x="215" y="105" type="line"/>
      <point x="546" y="105" type="line"/>
      <point x="546" y="0" type="line"/>
    </contour>
    <contour>
      <point x="316" y="761" type="curve" smooth="yes"/>
      <point x="233" y="761"/>
      <point x="175" y="818"/>
      <point x="171" y="901" type="curve"/>
      <point x="256" y="901" type="line"/>
      <point x="261" y="867"/>
      <point x="280" y="845"/>
      <point x="316" y="845" type="curve" smooth="yes"/>
      <point x="352" y="845"/>
      <point x="373" y="866"/>
      <point x="379" y="901" type="curve"/>
      <point x="463" y="901" type="line"/>
      <point x="458" y="818"/>
      <point x="397" y="761"/>
    </contour>
  </outline>
</glyph>
<glyph name="ebreve" format="2">
  <advance width="580"/>
  <unicode hex="0115"/>
  <outline>
    <contour>
      <point x="302" y="-10" type="curve" smooth="yes"/>
      <point x="148" y="-10"/>
      <point x="37" y="91"/>
      <point x="37" y="256" type="curve" smooth="yes"/>
      <point x="37" y="264" type="line" smooth="yes"/>
      <point x="37" y="426"/>
      <point x="148" y="534"/>
      <point x="297" y="534" type="curve" smooth="yes"/>
      <point x="427" y="534"/>
      <point x="544" y="457"/>
      <point x="544" y="270" type="curve" smooth="yes"/>
      <point x="544" y="235" type="line"/>
      <point x="161" y="235" type="line"/>
      <point x="165" y="136"/>
      <point x="215" y="80"/>
      <point x="305" y="80" type="curve" smooth="yes"/>
      <point x="378" y="80"/>
      <point x="416" y="109"/>
      <point x="425" y="160" type="curve"/>
      <point x="542" y="160" type="line"/>
      <point x="525" y="50"/>
      <point x="436" y="-10"/>
    </contour>
    <contour>
      <point x="163" y="316" type="curve"/>
      <point x="424" y="316" type="line"/>
      <point x="418" y="406"/>
      <point x="372" y="446"/>
      <point x="297" y="446" type="curve" smooth="yes"/>
      <point x="224" y="446"/>
      <point x="175" y="397"/>
    </contour>
    <contour>
      <point x="287" y="606" type="curve" smooth="yes"/>
      <point x="205" y="606"/>
      <point x="147" y="663"/>
      <point x="142" y="749" type="curve"/>
      <point x="226" y="749" type="line"/>
      <point x="231" y="713"/>
      <point x="250" y="691"/>
      <point x="287" y="691" type="curve" smooth="yes"/>
      <point x="324" y="691"/>
      <point x="345" y="713"/>
      <point x="352" y="749" type="curve"/>
      <point x="434" y="749" type="line"/>
      <point x="429" y="663"/>
      <point x="367" y="606"/>
    </contour>
  </outline>
</glyph>
<glyph name="Edotaccent" format="2">
  <advance width="584"/>
  <unicode hex="0116"/>
  <outline>
    <contour>
      <point x="313" y="775" type="curve" smooth="yes"/>
      <point x="273" y="775"/>
      <point x="242" y="806"/>
      <point x="242" y="844" type="curve" smooth="yes"/>
      <point x="242" y="882"/>
      <point x="273" y="912"/>
      <point x="313" y="912" type="curve" smooth="yes"/>
      <point x="352" y="912"/>
      <point x="384" y="882"/>
      <point x="384" y="844" type="curve" smooth="yes"/>
      <point x="384" y="806"/>
      <point x="352" y="775"/>
    </contour>
    <contour>
      <point x="82" y="0" type="line"/>
      <point x="82" y="715" type="line"/>
      <point x="529" y="715" type="line"/>
      <point x="529" y="610" type="line"/>
      <point x="215" y="610" type="line"/>
      <point x="215" y="414" type="line"/>
      <point x="467" y="414" type="line"/>
      <point x="467" y="314" type="line"/>
      <point x="215" y="314" type="line"/>
      <point x="215" y="105" type="line"/>
      <point x="546" y="105" type="line"/>
      <point x="546" y="0" type="line"/>
    </contour>
  </outline>
</glyph>
<glyph name="edotaccent" format="2">
  <advance width="580"/>
  <unicode hex="0117"/>
  <outline>
    <contour>
      <point x="302" y="-10" type="curve" smooth="yes"/>
      <point x="148" y="-10"/>
      <point x="37" y="91"/>
      <point x="37" y="256" type="curve" smooth="yes"/>
      <point x="37" y="264" type="line" smooth="yes"/>
      <point x="37" y="426"/>
      <point x="148" y="534"/>
      <point x="297" y="534" type="curve" smooth="yes"/>
      <point x="427" y="534"/>
      <point x="544" y="457"/>
      <point x="544" y="270" type="curve" smooth="yes"/>
      <point x="544" y="235" type="line"/>
      <point x="161" y="235" type="line"/>
      <point x="165" y="136"/>
      <point x="215" y="80"/>
      <point x="305" y="80" type="curve" smooth="yes"/>
      <point x="378" y="80"/>
      <point x="416" y="109"/>
      <point x="425" y="160" type="curve"/>
      <point x="542" y="160" type="line"/>
      <point x="525" y="50"/>
      <point x="436" y="-10"/>
    </contour>
    <contour>
      <point x="163" y="316" type="curve"/>
      <point x="424" y="316" type="line"/>
      <point x="418" y="406"/>
      <point x="372" y="446"/>
      <point x="297" y="446" type="curve" smooth="yes"/>
      <point x="224" y="446"/>
      <point x="175" y="397"/>
    </contour>
    <contour>
      <point x="295" y="611" type="curve" smooth="yes"/>
      <point x="255" y="611"/>
      <point x="224" y="641"/>
      <point x="224" y="680" type="curve" smooth="yes"/>
      <point x="224" y="718"/>
      <point x="255" y="748"/>
      <point x="295" y="748" type="curve" smooth="yes"/>
      <point x="334" y="748"/>
      <point x="366" y="718"/>
      <point x="366" y="680" type="curve" smooth="yes"/>
      <point x="366" y="641"/>
      <point x="334" y="611"/>
    </contour>
  </outline>
</glyph>
<glyph name="Eogonek" format="2">
  <advance width="584"/>
  <unicode hex="0118"/>
  <outline>
    <contour>
      <point x="459" y="-182" type="curve" smooth="yes"/>
      <point x="392" y="-182"/>
      <point x="348" y="-151"/>
      <point x="348" y="-101" type="curve" smooth="yes"/>
      <point x="348" y="-56"/>
      <point x="387" y="-21"/>
      <point x="429" y="0" type="curve"/>
      <point x="82" y="0" type="line"/>
      <point x="82" y="715" type="line"/>
      <point x="529" y="715" type="line"/>
      <point x="529" y="610" type="line"/>
      <point x="215" y="610" type="line"/>
      <point x="215" y="414" type="line"/>
      <point x="467" y="414" type="line"/>
      <point x="467" y="314" type="line"/>
      <point x="215" y="314" type="line"/>
      <point x="215" y="105" type="line"/>
      <point x="546" y="105" type="line"/>
      <point x="546" y="0" type="line"/>
      <point x="514" y="0" type="line"/>
      <point x="476" y="-27"/>
      <point x="457" y="-49"/>
      <point x="457" y="-76" type="curve" smooth="yes"/>
      <point x="457" y="-97"/>
      <point x="470" y="-108"/>
      <point x="492" y="-108" type="curve" smooth="yes"/>
      <point x="507" y="-108"/>
      <point x="522" y="-105"/>
      <point x="535" y="-99" type="curve"/>
      <point x="535" y="-168" type="line"/>
      <point x="518" y="-176"/>
      <point x="493" y="-182"/>
    </contour>
  </outline>
</glyph>
<glyph name="eogonek" format="2">
  <advance width="580"/>
  <unicode hex="0119"/>
  <outline>
    <contour>
      <point x="395" y="-182" type="curve" smooth="yes"/>
      <point x="329" y="-182"/>
      <point x="285" y="-152"/>
      <point x="285" y="-102" type="curve" smooth="yes"/>
      <point x="285" y="-62"/>
      <point x="320" y="-28"/>
      <point x="359" y="-6" type="curve"/>
      <point x="342" y="-9"/>
      <point x="321" y="-10"/>
      <point x="302" y="-10" type="curve" smooth="yes"/>
      <point x="148" y="-10"/>
      <point x="37" y="91"/>
      <point x="37" y="256" type="curve" smooth="yes"/>
      <point x="37" y="264" type="line" smooth="yes"/>
      <point x="37" y="426"/>
      <point x="148" y="534"/>
      <point x="297" y="534" type="curve" smooth="yes"/>
      <point x="427" y="534"/>
      <point x="544" y="457"/>
      <point x="544" y="270" type="curve" smooth="yes"/>
      <point x="544" y="235" type="line"/>
      <point x="161" y="235" type="line"/>
      <point x="165" y="136"/>
      <point x="215" y="80"/>
      <point x="305" y="80" type="curve" smooth="yes"/>
      <point x="378" y="80"/>
      <point x="416" y="109"/>
      <point x="425" y="160" type="curve"/>
      <point x="542" y="160" type="line"/>
      <point x="530" y="84"/>
      <point x="486" y="46"/>
      <point x="459" y="22" type="curve" smooth="yes"/>
      <point x="418" y="-15"/>
      <point x="390" y="-46"/>
      <point x="390" y="-77" type="curve" smooth="yes"/>
      <point x="390" y="-99"/>
      <point x="403" y="-110"/>
      <point x="425" y="-110" type="curve" smooth="yes"/>
      <point x="440" y="-110"/>
      <point x="456" y="-107"/>
      <point x="469" y="-101" type="curve"/>
      <point x="469" y="-168" type="line"/>
      <point x="451" y="-176"/>
      <point x="430" y="-182"/>
    </contour>
    <contour>
      <point x="163" y="316" type="curve"/>
      <point x="424" y="316" type="line"/>
      <point x="418" y="406"/>
      <point x="372" y="446"/>
      <point x="297" y="446" type="curve" smooth="yes"/>
      <point x="224" y="446"/>
      <point x="175" y="397"/>
    </contour>
  </outline>
</glyph>
<glyph name="Gcircumflex" format="2">
  <advance width="775"/>
  <unicode hex="011C"/>
  <outline>
    <contour>
      <point x="403" y="-10" type="curve" smooth="yes"/>
      <point x="174" y="-10"/>
      <point x="46" y="142"/>
      <point x="46" y="353" type="curve" smooth="yes"/>
      <point x="46" y="361" type="line" smooth="yes"/>
      <point x="46" y="574"/>
      <point x="194" y="726"/>
      <point x="403" y="726" type="curve" smooth="yes"/>
      <point x="556" y="726"/>
      <point x="692" y="656"/>
      <point x="711" y="485" type="curve"/>
      <point x="578" y="485" type="line"/>
      <point x="562" y="580"/>
      <point x="498" y="621"/>
      <point x="405" y="621" type="curve" smooth="yes"/>
      <point x="265" y="621"/>
      <point x="184" y="517"/>
      <point x="184" y="360" type="curve" smooth="yes"/>
      <point x="184" y="352" type="line" smooth="yes"/>
      <point x="184" y="199"/>
      <point x="255" y="94"/>
      <point x="405" y="94" type="curve" smooth="yes"/>
      <point x="539" y="94"/>
      <point x="594" y="175"/>
      <point x="598" y="274" type="curve"/>
      <point x="418" y="274" type="line"/>
      <point x="418" y="374" type="line"/>
      <point x="729" y="374" type="line"/>
      <point x="729" y="308" type="line" smooth="yes"/>
      <point x="729" y="110"/>
      <point x="605" y="-10"/>
    </contour>
    <contour>
      <point x="236" y="766" type="line"/>
      <point x="347" y="901" type="line"/>
      <point x="451" y="901" type="line"/>
      <point x="559" y="766" type="line"/>
      <point x="471" y="766" type="line"/>
      <point x="397" y="821" type="line"/>
      <point x="322" y="766" type="line"/>
    </contour>
  </outline>
</glyph>
<glyph name="Gbreve" format="2">
  <advance width="775"/>
  <unicode hex="011E"/>
  <outline>
    <contour>
      <point x="403" y="-10" type="curve" smooth="yes"/>
      <point x="174" y="-10"/>
      <point x="46" y="142"/>
      <point x="46" y="353" type="curve" smooth="yes"/>
      <point x="46" y="361" type="line" smooth="yes"/>
      <point x="46" y="574"/>
      <point x="194" y="726"/>
      <point x="403" y="726" type="curve" smooth="yes"/>
      <point x="556" y="726"/>
      <point x="692" y="656"/>
      <point x="711" y="485" type="curve"/>
      <point x="578" y="485" type="line"/>
      <point x="562" y="580"/>
      <point x="498" y="621"/>
      <point x="405" y="621" type="curve" smooth="yes"/>
      <point x="265" y="621"/>
      <point x="184" y="517"/>
      <point x="184" y="360" type="curve" smooth="yes"/>
      <point x="184" y="352" type="line" smooth="yes"/>
      <point x="184" y="199"/>
      <point x="255" y="94"/>
      <point x="405" y="94" type="curve" smooth="yes"/>
      <point x="539" y="94"/>
      <point x="594" y="175"/>
      <point x="598" y="274" type="curve"/>
      <point x="418" y="274" type="line"/>
      <point x="418" y="374" type="line"/>
      <point x="729" y="374" type="line"/>
      <point x="729" y="308" type="line" smooth="yes"/>
      <point x="729" y="110"/>
      <point x="605" y="-10"/>
    </contour>
    <contour>
      <point x="397" y="761" type="curve" smooth="yes"/>
      <point x="314" y="761"/>
      <point x="256" y="818"/>
      <point x="252" y="901" type="curve"/>
      <point x="337" y="901" type="line"/>
      <point x="342" y="867"/>
      <point x="361" y="845"/>
      <point x="397" y="845" type="curve" smooth="yes"/>
      <point x="433" y="845"/>
      <point x="454" y="866"/>
      <point x="460" y="901" type="curve"/>
      <point x="544" y="901" type="line"/>
      <point x="539" y="818"/>
      <point x="478" y="761"/>
    </contour>
  </outline>
</glyph>
<glyph name="gcommaaccent" format="2">
  <advance width="633"/>
  <unicode hex="0123"/>
  <outline>
    <contour>
      <point x="355" y="588" type="line"/>
      <point x="244" y="610" type="line"/>
      <point x="336" y="779" type="line"/>
      <point x="406" y="753" type="line"/>
    </contour>
    <contour>
      <point x="295" y="-192" type="curve" smooth="yes"/>
      <point x="131" y="-192"/>
      <point x="57" y="-118"/>
      <point x="43" y="-18" type="curve"/>
      <point x="165" y="-18" type="line"/>
      <point x="175" y="-70"/>
      <point x="215" y="-100"/>
      <point x="294" y="-100" type="curve" smooth="yes"/>
      <point x="388" y="-100"/>
      <point x="440" y="-53"/>
      <point x="440" y="41" type="curve" smooth="yes"/>
      <point x="440" y="118" type="line"/>
      <point x="411" y="68"/>
      <point x="346" y="21"/>
      <point x="269" y="21" type="curve" smooth="yes"/>
      <point x="138" y="21"/>
      <point x="37" y="119"/>
      <point x="37" y="270" type="curve" smooth="yes"/>
      <point x="37" y="277" type="line" smooth="yes"/>
      <point x="37" y="424"/>
      <point x="137" y="534"/>
      <point x="272" y="534" type="curve" smooth="yes"/>
      <point x="358" y="534"/>
      <point x="410" y="495"/>
      <point x="440" y="443" type="curve"/>
      <point x="440" y="523" type="line"/>
      <point x="561" y="523" type="line"/>
      <point x="561" y="39" type="line" smooth="yes"/>
      <point x="560" y="-115"/>
      <point x="457" y="-192"/>
    </contour>
    <contour>
      <point x="299" y="114" type="curve" smooth="yes"/>
      <point x="383" y="114"/>
      <point x="444" y="174"/>
      <point x="444" y="274" type="curve" smooth="yes"/>
      <point x="444" y="281" type="line" smooth="yes"/>
      <point x="444" y="380"/>
      <point x="390" y="439"/>
      <point x="303" y="439" type="curve" smooth="yes"/>
      <point x="213" y="439"/>
      <point x="161" y="374"/>
      <point x="161" y="279" type="curve" smooth="yes"/>
      <point x="161" y="271" type="line" smooth="yes"/>
      <point x="161" y="174"/>
      <point x="221" y="114"/>
    </contour>
  </outline>
</glyph>
<glyph name="hbar" format="2">
  <advance width="608"/>
  <unicode hex="0127"/>
  <outline>
    <contour>
      <point x="4" y="604" type="line"/>
      <point x="4" y="679" type="line"/>
      <point x="72" y="679" type="line"/>
      <point x="72" y="765" type="line"/>
      <point x="193" y="765" type="line"/>
      <point x="193" y="679" type="line"/>
      <point x="362" y="679" type="line"/>
      <point x="362" y="604" type="line"/>
      <point x="193" y="604" type="line"/>
      <point x="193" y="440" type="line"/>
      <point x="218" y="491"/>
      <point x="276" y="534"/>
      <point x="362" y="534" type="curve" smooth="yes"/>
      <point x="467" y="534"/>
      <point x="541" y="473"/>
      <point x="541" y="329" type="curve" smooth="yes"/>
      <point x="541" y="0" type="line"/>
      <point x="420" y="0" type="line"/>
      <point x="420" y="318" type="line" smooth="yes"/>
      <point x="420" y="397"/>
      <point x="388" y="433"/>
      <point x="316" y="433" type="curve" smooth="yes"/>
      <point x="248" y="433"/>
      <point x="193" y="391"/>
      <point x="193" y="308" type="curve" smooth="yes"/>
      <point x="193" y="0" type="line"/>
      <point x="72" y="0" type="line"/>
      <point x="72" y="604" type="line"/>
    </contour>
  </outline>
</glyph>
<glyph name="Itilde" format="2">
  <advance width="307"/>
  <unicode hex="0128"/>
  <outline>
    <contour>
      <point x="86" y="0" type="line"/>
      <point x="86" y="715" type="line"/>
      <point x="220" y="715" type="line"/>
      <point x="220" y="0" type="line"/>
    </contour>
    <contour>
      <point x="213" y="768" type="curve" smooth="yes"/>
      <point x="165" y="768"/>
      <point x="130" y="807"/>
      <point x="101" y="807" type="curve" smooth="yes"/>
      <point x="83" y="807"/>
      <point x="68" y="790"/>
      <point x="64" y="767" type="curve"/>
      <point x="-12" y="767" type="line"/>
      <point x="-5" y="851"/>
      <point x="41" y="898"/>
      <point x="97" y="898" type="curve" smooth="yes"/>
      <point x="143" y="898"/>
      <point x="179" y="858"/>
      <point x="210" y="858" type="curve" smooth="yes"/>
      <point x="228" y="858"/>
      <point x="242" y="875"/>
      <point x="246" y="898" type="curve"/>
      <point x="323" y="898" type="line"/>
      <point x="315" y="814"/>
      <point x="268" y="768"/>
    </contour>
  </outline>
</glyph>
<glyph name="itilde" format="2">
  <advance width="271"/>
  <unicode hex="0129"/>
  <outline>
    <contour>
      <point x="75" y="0" type="line"/>
      <point x="75" y="523" type="line"/>
      <point x="196" y="523" type="line"/>
      <point x="196" y="0" type="line"/>
    </contour>
    <contour>
      <point x="194" y="606" type="curve" smooth="yes"/>
      <point x="146" y="606"/>
      <point x="112" y="646"/>
      <point x="83" y="646" type="curve" smooth="yes"/>
      <point x="65" y="646"/>
      <point x="50" y="629"/>
      <point x="46" y="606" type="curve"/>
      <point x="-29" y="606" type="line"/>
      <point x="-21" y="690"/>
      <point x="22" y="737"/>
      <point x="78" y="737" type="curve" smooth="yes"/>
      <point x="124" y="737"/>
      <point x="159" y="698"/>
      <point x="190" y="698" type="curve" smooth="yes"/>
      <point x="208" y="698"/>
      <point x="222" y="714"/>
      <point x="226" y="738" type="curve"/>
      <point x="301" y="738" type="line"/>
      <point x="293" y="654"/>
      <point x="249" y="606"/>
    </contour>
  </outline>
</glyph>
<glyph name="Imacron" format="2">
  <advance width="307"/>
  <unicode hex="012A"/>
  <outline>
    <contour>
      <point x="86" y="0" type="line"/>
      <point x="86" y="715" type="line"/>
      <point x="220" y="715" type="line"/>
      <point x="220" y="0" type="line"/>
    </contour>
    <contour>
      <point x="9" y="780" type="line"/>
      <point x="9" y="861" type="line"/>
      <point x="297" y="861" type="line"/>
      <point x="297" y="780" type="line"/>
    </contour>
  </outline>
</glyph>
<glyph name="imacron" format="2">
  <advance width="271"/>
  <unicode hex="012B"/>
  <outline>
    <contour>
      <point x="28" y="634" type="line"/>
      <point x="28" y="712" type="line"/>
      <point x="242" y="712" type="line"/>
      <point x="242" y="634" type="line"/>
    </contour>
    <contour>
      <point x="75" y="0" type="line"/>
      <point x="75" y="523" type="line"/>
      <point x="196" y="523" type="line"/>
      <point x="196" y="0" type="line"/>
    </contour>
  </outline>
</glyph>
<glyph name="Ibreve" format="2">
  <advance width="307"/>
  <unicode hex="012C"/>
  <outline>
    <contour>
      <point x="86" y="0" type="line"/>
      <point x="86" y="715" type="line"/>
      <point x="220" y="715" type="line"/>
      <point x="220" y="0" type="line"/>
    </contour>
    <contour>
      <point x="154" y="761" type="curve" smooth="yes"/>
      <point x="71" y="761"/>
      <point x="13" y="818"/>
      <point x="9" y="901" type="curve"/>
      <point x="94" y="901" type="line"/>
      <point x="99" y="867"/>
      <point x="118" y="845"/>
      <point x="154" y="845" type="curve" smooth="yes"/>
      <point x="190" y="845"/>
      <point x="211" y="866"/>
      <point x="217" y="901" type="curve"/>
      <point x="301" y="901" type="line"/>
      <point x="296" y="818"/>
      <point x="235" y="761"/>
    </contour>
  </outline>
</glyph>
<glyph name="ibreve" format="2">
  <advance width="271"/>
  <unicode hex="012D"/>
  <outline>
    <contour>
      <point x="75" y="0" type="line"/>
      <point x="75" y="523" type="line"/>
      <point x="196" y="523" type="line"/>
      <point x="196" y="0" type="line"/>
    </contour>
    <contour>
      <point x="135" y="606" type="curve" smooth="yes"/>
      <point x="53" y="606"/>
      <point x="-5" y="663"/>
      <point x="-10" y="749" type="curve"/>
      <point x="74" y="749" type="line"/>
      <point x="79" y="713"/>
      <point x="98" y="691"/>
      <point x="135" y="691" type="curve" smooth="yes"/>
      <point x="172" y="691"/>
      <point x="193" y="713"/>
      <point x="200" y="749" type="curve"/>
      <point x="282" y="749" type="line"/>
      <point x="277" y="663"/>
      <point x="215" y="606"/>
    </contour>
  </outline>
</glyph>
<glyph name="Iogonek" format="2">
  <advance width="307"/>
  <unicode hex="012E"/>
  <outline>
    <contour>
      <point x="155" y="-182" type="curve" smooth="yes"/>
      <point x="87" y="-182"/>
      <point x="43" y="-151"/>
      <point x="43" y="-101" type="curve" smooth="yes"/>
      <point x="43" y="-56"/>
      <point x="82" y="-21"/>
      <point x="124" y="0" type="curve"/>
      <point x="86" y="0" type="line"/>
      <point x="86" y="715" type="line"/>
      <point x="220" y="715" type="line"/>
      <point x="220" y="7" type="line"/>
      <point x="174" y="-21"/>
      <point x="152" y="-48"/>
      <point x="152" y="-76" type="curve" smooth="yes"/>
      <point x="152" y="-97"/>
      <point x="165" y="-108"/>
      <point x="187" y="-108" type="curve" smooth="yes"/>
      <point x="202" y="-108"/>
      <point x="218" y="-105"/>
      <point x="230" y="-99" type="curve"/>
      <point x="230" y="-168" type="line"/>
      <point x="213" y="-176"/>
      <point x="189" y="-182"/>
    </contour>
  </outline>
</glyph>
<glyph name="iogonek" format="2">
  <advance width="271"/>
  <unicode hex="012F"/>
  <outline>
    <contour>
      <point x="134" y="-182" type="curve" smooth="yes"/>
      <point x="68" y="-182"/>
      <point x="25" y="-152"/>
      <point x="25" y="-101" type="curve" smooth="yes"/>
      <point x="25" y="-56"/>
      <point x="63" y="-21"/>
      <point x="106" y="0" type="curve"/>
      <point x="75" y="0" type="line"/>
      <point x="75" y="523" type="line"/>
      <point x="196" y="523" type="line"/>
      <point x="196" y="5" type="line"/>
      <point x="149" y="-25"/>
      <point x="130" y="-50"/>
      <point x="130" y="-77" type="curve" smooth="yes"/>
      <point x="130" y="-99"/>
      <point x="143" y="-110"/>
      <point x="165" y="-110" type="curve" smooth="yes"/>
      <point x="180" y="-110"/>
      <point x="196" y="-107"/>
      <point x="208" y="-101" type="curve"/>
      <point x="208" y="-168" type="line"/>
      <point x="191" y="-176"/>
      <point x="169" y="-182"/>
    </contour>
    <contour>
      <point x="134" y="609" type="curve" smooth="yes"/>
      <point x="94" y="609"/>
      <point x="62" y="639"/>
      <point x="62" y="678" type="curve" smooth="yes"/>
      <point x="62" y="718"/>
      <point x="94" y="748"/>
      <point x="134" y="748" type="curve" smooth="yes"/>
      <point x="174" y="748"/>
      <point x="206" y="718"/>
      <point x="206" y="678" type="curve" smooth="yes"/>
      <point x="206" y="639"/>
      <point x="174" y="609"/>
    </contour>
  </outline>
</glyph>
<glyph name="Idotaccent" format="2">
  <advance width="307"/>
  <unicode hex="0130"/>
  <outline>
    <contour>
      <point x="86" y="0" type="line"/>
      <point x="86" y="715" type="line"/>
      <point x="220" y="715" type="line"/>
      <point x="220" y="0" type="line"/>
    </contour>
    <contour>
      <point x="154" y="775" type="curve" smooth="yes"/>
      <point x="114" y="775"/>
      <point x="83" y="806"/>
      <point x="83" y="844" type="curve" smooth="yes"/>
      <point x="83" y="882"/>
      <point x="114" y="912"/>
      <point x="154" y="912" type="curve" smooth="yes"/>
      <point x="193" y="912"/>
      <point x="225" y="882"/>
      <point x="225" y="844" type="curve" smooth="yes"/>
      <point x="225" y="806"/>
      <point x="193" y="775"/>
    </contour>
  </outline>
</glyph>
<glyph name="IJ" format="2">
  <advance width="715"/>
  <unicode hex="0132"/>
  <outline>
    <contour>
      <point x="86" y="0" type="line"/>
      <point x="86" y="715" type="line"/>
      <point x="220" y="715" type="line"/>
      <point x="220" y="0" type="line"/>
    </contour>
    <contour>
      <point x="419" y="-9" type="curve" smooth="yes"/>
      <point x="360" y="-9"/>
      <point x="330" y="0"/>
      <point x="307" y="12" type="curve"/>
      <point x="307" y="116" type="line"/>
      <point x="332" y="106"/>
      <point x="357" y="98"/>
      <point x="399" y="98" type="curve" smooth="yes"/>
      <point x="464" y="98"/>
      <point x="506" y="132"/>
      <point x="506" y="220" type="curve" smooth="yes"/>
      <point x="506" y="715" type="line"/>
      <point x="640" y="715" type="line"/>
      <point x="640" y="217" type="line" smooth="yes"/>
      <point x="640" y="62"/>
      <point x="551" y="-9"/>
    </contour>
  </outline>
</glyph>
<glyph name="ij" format="2">
  <advance width="542"/>
  <unicode hex="0133"/>
  <outline>
    <contour>
      <point x="75" y="0" type="line"/>
      <point x="75" y="523" type="line"/>
      <point x="196" y="523" type="line"/>
      <point x="196" y="0" type="line"/>
    </contour>
    <contour>
      <point x="134" y="609" type="curve" smooth="yes"/>
      <point x="94" y="609"/>
      <point x="62" y="639"/>
      <point x="62" y="678" type="curve" smooth="yes"/>
      <point x="62" y="718"/>
      <point x="94" y="748"/>
      <point x="134" y="748" type="curve" smooth="yes"/>
      <point x="174" y="748"/>
      <point x="206" y="718"/>
      <point x="206" y="678" type="curve" smooth="yes"/>
      <point x="206" y="639"/>
      <point x="174" y="609"/>
    </contour>
    <contour>
      <point x="273" y="-188" type="curve"/>
      <point x="273" y="-95" type="line"/>
      <point x="326" y="-91"/>
      <point x="345" y="-65"/>
      <point x="345" y="-21" type="curve" smooth="yes"/>
      <point x="345" y="523" type="line"/>
      <point x="466" y="523" type="line"/>
      <point x="466" y="-18" type="line" smooth="yes"/>
      <point x="466" y="-124"/>
      <point x="418" y="-186"/>
    </contour>
    <contour>
      <point x="404" y="609" type="curve" smooth="yes"/>
      <point x="364" y="609"/>
      <point x="332" y="639"/>
      <point x="332" y="678" type="curve" smooth="yes"/>
      <point x="332" y="718"/>
      <point x="364" y="748"/>
      <point x="404" y="748" type="curve" smooth="yes"/>
      <point x="444" y="748"/>
      <point x="476" y="718"/>
      <point x="476" y="678" type="curve" smooth="yes"/>
      <point x="476" y="639"/>
      <point x="444" y="609"/>
    </contour>
  </outline>
</glyph>
<glyph name="Jcircumflex" format="2">
  <advance width="443"/>
  <unicode hex="0134"/>
  <outline>
    <contour>
      <point x="137" y="766" type="line"/>
      <point x="248" y="901" type="line"/>
      <point x="352" y="901" type="line"/>
      <point x="460" y="766" type="line"/>
      <point x="372" y="766" type="line"/>
      <point x="298" y="821" type="line"/>
      <point x="223" y="766" type="line"/>
    </contour>
    <contour>
      <point x="148" y="-9" type="curve" smooth="yes"/>
      <point x="89" y="-9"/>
      <point x="59" y="0"/>
      <point x="36" y="12" type="curve"/>
      <point x="36" y="116" type="line"/>
      <point x="61" y="106"/>
      <point x="86" y="98"/>
      <point x="128" y="98" type="curve" smooth="yes"/>
      <point x="193" y="98"/>
      <point x="235" y="132"/>
      <point x="235" y="220" type="curve" smooth="yes"/>
      <point x="235" y="715" type="line"/>
      <point x="369" y="715" type="line"/>
      <point x="369" y="217" type="line" smooth="yes"/>
      <point x="369" y="62"/>
      <point x="280" y="-9"/>
    </contour>
  </outline>
</glyph>
<glyph name="jcircumflex" format="2">
  <advance width="271"/>
  <unicode hex="0135"/>
  <outline>
    <contour>
      <point x="3" y="-188" type="curve"/>
      <point x="3" y="-95" type="line"/>
      <point x="56" y="-91"/>
      <point x="75" y="-65"/>
      <point x="75" y="-21" type="curve" smooth="yes"/>
      <point x="75" y="523" type="line"/>
      <point x="196" y="523" type="line"/>
      <point x="196" y="-18" type="line" smooth="yes"/>
      <point x="196" y="-124"/>
      <point x="148" y="-186"/>
    </contour>
    <contour>
      <point x="-26" y="602" type="line"/>
      <point x="88" y="753" type="line"/>
      <point x="184" y="753" type="line"/>
      <point x="295" y="602" type="line"/>
      <point x="209" y="602" type="line"/>
      <point x="134" y="670" type="line"/>
      <point x="58" y="602" type="line"/>
    </contour>
  </outline>
</glyph>
<glyph name="kcommaaccent" format="2">
  <advance width="540"/>
  <unicode hex="0137"/>
  <outline>
    <contour>
      <point x="72" y="0" type="line"/>
      <point x="72" y="765" type="line"/>
      <point x="193" y="765" type="line"/>
      <point x="193" y="293" type="line"/>
      <point x="380" y="523" type="line"/>
      <point x="512" y="523" type="line"/>
      <point x="309" y="283" type="line"/>
      <point x="529" y="0" type="line"/>
      <point x="389" y="0" type="line"/>
      <point x="193" y="257" type="line"/>
      <point x="193" y="0" type="line"/>
    </contour>
    <contour>
      <point x="256" y="-225" type="line"/>
      <point x="185" y="-198" type="line"/>
      <point x="237" y="-33" type="line"/>
      <point x="348" y="-55" type="line"/>
    </contour>
  </outline>
</glyph>
<glyph name="Lcommaaccent" format="2">
  <advance width="551"/>
  <unicode hex="013B"/>
  <outline>
    <contour>
      <point x="274" y="-225" type="line"/>
      <point x="203" y="-198" type="line"/>
      <point x="255" y="-33" type="line"/>
      <point x="366" y="-55" type="line"/>
    </contour>
    <contour>
      <point x="82" y="0" type="line"/>
      <point x="82" y="715" type="line"/>
      <point x="215" y="715" type="line"/>
      <point x="215" y="106" type="line"/>
      <point x="520" y="106" type="line"/>
      <point x="520" y="0" type="line"/>
    </contour>
  </outline>
</glyph>
<glyph name="lcommaaccent" format="2">
  <advance width="271"/>
  <unicode hex="013C"/>
  <outline>
    <contour>
      <point x="110" y="-225" type="line"/>
      <point x="39" y="-198" type="line"/>
      <point x="91" y="-33" type="line"/>
      <point x="202" y="-55" type="line"/>
    </contour>
    <contour>
      <point x="75" y="0" type="line"/>
      <point x="75" y="765" type="line"/>
      <point x="196" y="765" type="line"/>
      <point x="196" y="0" type="line"/>
    </contour>
  </outline>
</glyph>
<glyph name="Lcaron" format="2">
  <advance width="551"/>
  <unicode hex="013D"/>
  <outline>
    <contour>
      <point x="313" y="550" type="line"/>
      <point x="333" y="715" type="line"/>
      <point x="448" y="715" type="line"/>
      <point x="389" y="550" type="line"/>
    </contour>
    <contour>
      <point x="82" y="0" type="line"/>
      <point x="82" y="715" type="line"/>
      <point x="215" y="715" type="line"/>
      <point x="215" y="106" type="line"/>
      <point x="520" y="106" type="line"/>
      <point x="520" y="0" type="line"/>
    </contour>
  </outline>
</glyph>
